{"glyphs":{"0":{"ha":741,"x_min":14,"x_max":727,"o":"m 708 521 q 693 517 697 524 q 705 490 699 503 q 715 465 711 477 q 699 428 708 446 q 674 396 689 410 q 664 380 670 389 q 655 363 658 372 q 642 332 650 343 q 627 311 633 320 q 610 286 621 304 q 588 245 600 267 q 566 204 576 224 q 552 175 556 184 q 538 161 543 170 q 529 144 534 153 q 514 114 526 125 q 495 85 502 103 q 498 70 496 77 q 502 54 500 62 q 486 45 491 50 q 471 42 481 41 q 451 7 458 26 q 425 -23 444 -12 q 414 -18 418 -22 q 406 -12 411 -15 q 389 -17 397 -15 q 370 -19 380 -19 q 361 -14 365 -19 q 354 -5 357 -8 q 340 1 345 -1 q 331 7 336 4 q 320 22 328 15 q 298 33 305 23 q 289 54 292 42 q 297 77 296 66 q 272 119 286 100 q 243 159 258 138 q 225 184 233 171 q 208 212 217 197 q 196 223 201 218 q 187 235 191 228 q 139 313 161 273 q 85 389 117 354 q 64 415 75 403 q 43 441 54 427 q 35 444 39 442 q 26 449 31 446 q 18 462 22 456 q 14 476 15 468 q 22 492 18 483 q 30 509 26 500 q 35 522 33 515 q 41 536 38 529 q 58 572 49 555 q 79 606 68 590 q 109 652 95 629 q 140 697 123 675 q 152 720 142 709 q 165 743 161 731 q 190 780 179 761 q 212 818 201 799 q 224 836 220 826 q 237 854 229 846 q 248 873 241 865 q 256 894 254 882 q 273 914 264 902 q 289 940 281 926 q 304 966 297 954 q 316 989 311 979 q 332 1003 327 993 q 347 1019 336 1013 q 351 1027 349 1024 q 355 1036 354 1031 q 384 1031 372 1031 q 391 1023 389 1028 q 400 1017 393 1019 q 409 1026 407 1020 q 416 1038 411 1032 q 428 1034 423 1038 q 439 1028 433 1031 q 459 998 450 1013 q 476 967 468 982 q 483 955 480 962 q 488 943 486 948 q 509 912 499 928 q 529 882 519 897 q 557 842 544 863 q 583 799 571 821 q 613 743 600 769 q 646 685 627 716 q 663 659 654 671 q 682 633 673 646 q 699 606 692 620 q 716 581 707 593 q 722 562 718 571 q 727 543 727 553 q 720 530 727 536 q 708 521 713 524 m 534 486 q 566 537 556 509 q 557 550 562 544 q 545 563 552 556 q 517 602 534 576 q 490 643 499 628 l 477 671 q 463 699 471 686 q 449 727 456 712 q 444 741 446 734 q 437 754 441 747 q 426 766 431 761 q 418 783 420 772 q 410 791 414 787 q 404 802 407 795 q 353 725 374 761 q 309 652 332 689 q 288 620 298 636 q 267 585 277 604 q 252 561 262 574 q 233 534 243 548 q 216 506 224 519 q 206 487 208 492 q 240 435 224 456 q 271 392 256 415 q 297 345 283 366 q 313 323 304 334 q 328 300 321 312 q 356 262 345 282 q 387 225 368 241 q 414 268 401 245 q 439 313 426 290 q 465 358 453 336 q 487 406 477 380 q 495 411 492 408 q 500 416 498 414 q 517 451 507 435 q 534 486 528 467 m 450 575 q 469 546 458 560 q 490 518 479 532 q 499 512 494 515 q 505 502 505 509 q 498 490 505 496 q 490 475 491 483 q 479 465 483 471 q 469 453 475 460 q 456 453 461 456 q 444 450 450 450 q 425 439 429 442 q 418 431 422 435 q 410 423 415 427 q 395 416 406 419 q 380 404 382 406 q 371 406 374 404 q 363 410 368 408 q 345 429 358 414 q 319 463 332 445 q 295 498 305 481 q 285 521 285 514 q 296 538 293 534 q 305 541 298 541 q 320 551 316 545 q 328 561 324 556 q 336 569 331 566 q 353 576 342 572 q 368 594 363 591 q 378 597 372 597 q 386 611 385 602 q 397 618 387 620 q 431 594 418 608 q 441 583 438 589 q 450 575 444 578 z "},"1":{"ha":454,"x_min":0,"x_max":357,"o":"m 214 1010 q 216 986 213 994 q 232 990 231 991 q 241 1001 239 994 q 250 1015 244 1008 q 259 1013 255 1015 q 266 1009 263 1010 q 293 1005 288 1016 q 316 1008 308 1012 q 331 1004 324 1005 q 338 998 335 1001 q 346 994 340 996 q 353 878 351 936 q 354 760 354 819 q 352 684 354 722 q 350 610 350 647 q 351 583 350 595 q 353 556 353 570 q 352 536 353 545 q 351 517 351 526 q 352 467 351 491 q 353 416 353 442 l 353 380 q 353 360 353 369 q 354 342 354 351 q 353 309 354 326 q 353 274 353 292 q 355 243 353 258 q 357 213 357 228 q 355 128 357 170 q 355 45 354 87 q 349 37 353 41 q 345 31 346 34 q 340 18 342 24 q 332 5 339 11 q 321 9 323 5 q 313 16 319 14 q 287 12 300 14 q 259 5 274 9 q 250 10 255 8 q 240 12 245 12 q 229 19 229 14 q 225 26 229 24 q 214 20 218 24 q 199 15 210 15 q 190 21 195 15 q 182 33 184 27 l 182 47 q 179 68 182 61 q 183 132 183 98 q 183 197 183 167 q 182 232 183 216 q 179 267 180 248 q 179 307 178 286 q 180 347 180 328 q 179 425 180 387 q 178 503 178 464 q 180 534 178 518 q 182 567 182 549 q 181 604 182 586 q 180 642 180 623 q 184 728 180 684 q 182 737 182 732 q 179 745 182 742 q 174 740 175 743 q 170 732 172 736 q 161 725 164 730 q 155 716 157 720 q 136 705 144 711 q 117 694 127 699 q 106 700 110 696 q 100 708 103 704 q 79 719 90 712 q 58 730 69 726 q 44 747 53 741 q 31 762 35 753 q 10 774 20 765 q 0 793 0 783 q 8 811 0 803 q 16 830 16 819 q 58 885 37 859 q 99 939 80 911 q 118 955 110 945 q 134 972 126 964 q 142 977 140 974 q 152 983 145 981 q 173 985 167 982 q 184 990 179 987 q 186 1003 184 997 q 190 1016 187 1009 q 214 1010 210 1019 z "},"2":{"ha":620,"x_min":27,"x_max":578,"o":"m 556 674 q 562 667 560 671 q 566 659 564 663 q 537 586 557 628 q 491 500 517 544 q 438 416 465 456 q 391 351 411 377 q 352 295 369 324 q 313 237 335 266 q 311 230 313 233 q 308 221 308 227 q 286 191 297 201 q 278 165 275 180 q 271 157 273 163 q 270 148 270 152 q 294 141 282 142 q 321 140 307 140 q 360 144 342 146 q 392 142 378 142 q 425 144 408 142 q 458 146 442 146 q 465 144 461 146 q 473 141 469 141 q 488 144 483 142 q 500 148 494 146 q 524 151 513 151 q 548 153 536 152 q 560 142 555 148 q 571 129 566 136 q 574 119 572 123 q 578 109 576 114 q 574 83 576 98 q 566 60 572 68 q 559 32 564 45 q 552 4 555 19 q 542 -5 548 -3 q 530 -9 536 -7 q 504 -12 517 -9 q 476 -14 491 -14 q 464 -12 469 -14 q 452 -9 458 -11 q 432 -8 442 -7 q 411 -9 422 -9 q 388 -5 397 -9 q 302 -4 340 -8 q 224 0 263 0 q 198 0 208 -1 q 180 1 189 1 q 144 -1 161 1 q 107 -3 126 -3 q 81 -4 95 -3 q 54 -8 68 -5 q 37 0 46 -3 q 27 15 27 3 q 30 33 27 23 q 33 50 33 42 q 31 58 33 54 q 30 65 30 61 q 31 80 33 72 q 30 96 30 88 q 30 115 33 115 q 27 118 27 115 q 31 127 27 121 q 37 136 35 133 q 42 168 35 156 q 64 179 49 179 q 80 195 71 186 q 94 213 90 203 q 117 254 106 239 q 138 286 129 270 q 163 328 153 305 q 187 369 174 350 q 208 397 197 384 q 231 425 220 410 q 300 524 263 475 q 365 627 338 572 q 344 653 357 642 q 320 678 331 665 q 274 728 298 704 q 225 774 250 753 q 200 799 213 787 q 176 822 187 811 q 165 836 170 829 q 153 850 160 844 q 123 880 138 865 q 95 913 109 895 q 87 929 94 922 q 80 941 80 936 q 92 961 87 958 q 99 968 98 964 q 105 982 102 975 q 111 996 109 989 q 117 1006 115 1000 q 123 1019 119 1013 q 127 1031 126 1025 q 138 1036 129 1036 q 153 1063 145 1047 q 170 1084 160 1080 q 182 1074 176 1078 q 194 1067 187 1070 q 223 1041 208 1057 q 255 1008 239 1025 q 286 975 271 991 q 312 944 300 958 q 335 924 323 933 q 358 903 347 914 q 378 882 369 892 q 397 860 387 871 q 406 854 401 857 q 414 846 410 850 q 448 808 430 826 q 456 800 452 804 q 465 792 461 796 q 476 781 468 789 q 493 762 484 772 q 509 743 502 751 q 519 731 517 734 q 531 710 526 722 q 540 689 536 699 q 541 677 543 682 q 556 674 540 671 z "},"3":{"ha":574,"x_min":56,"x_max":538,"o":"m 490 722 q 499 717 495 719 q 507 713 503 715 q 508 705 507 708 q 509 699 509 701 l 499 684 q 472 663 491 680 q 431 628 453 647 q 391 591 410 609 q 365 567 372 574 q 345 551 357 557 q 330 532 334 544 q 345 516 336 521 q 365 505 354 511 q 399 476 382 491 q 431 448 415 461 q 467 418 450 433 q 502 392 483 404 q 509 380 505 385 q 511 368 513 374 q 518 357 514 361 q 522 345 522 353 q 531 334 528 340 q 538 320 534 327 q 533 309 536 313 q 528 298 530 305 q 508 282 517 292 q 487 266 499 273 q 475 250 483 255 q 460 237 467 244 l 439 213 q 422 196 430 203 q 407 180 414 189 q 386 162 396 170 q 366 140 376 155 q 338 114 349 123 q 321 94 328 104 q 299 74 308 81 q 285 56 290 66 q 264 37 273 43 q 248 19 255 30 q 232 4 237 12 q 202 -22 214 -12 q 175 -38 190 -33 q 151 -23 159 -35 q 127 -4 142 -11 q 122 7 125 0 q 115 18 119 15 q 99 30 100 27 q 95 35 98 33 q 85 48 90 47 q 77 50 80 49 q 73 58 76 52 q 68 66 69 64 q 90 102 79 90 q 121 130 102 115 q 170 178 145 151 q 218 229 195 206 q 267 278 241 255 q 315 327 292 301 q 294 348 304 338 q 271 363 285 358 q 249 385 266 370 q 212 414 232 399 q 175 441 193 429 q 151 457 157 454 q 135 471 144 467 q 119 484 126 476 q 116 494 119 490 q 113 505 113 499 q 115 524 119 522 q 111 533 111 526 q 119 548 111 540 q 126 567 126 556 q 149 585 137 578 q 171 602 160 593 q 180 615 176 609 q 190 625 184 621 q 214 636 205 633 q 254 676 233 658 q 294 716 275 694 q 283 732 292 727 q 267 746 274 738 q 251 760 258 753 q 236 773 244 766 q 191 807 217 787 q 138 850 164 827 q 89 896 111 873 q 56 937 66 918 q 58 947 56 943 q 60 956 60 951 q 79 979 75 972 q 85 994 83 986 q 102 1010 96 1000 q 122 1021 109 1020 q 124 1029 125 1025 q 125 1038 123 1034 q 134 1047 129 1042 q 142 1055 138 1053 q 159 1051 152 1054 q 174 1046 167 1048 q 202 1019 186 1031 q 233 994 218 1006 q 243 984 239 989 q 252 975 247 979 q 311 930 279 951 q 369 880 342 909 q 427 831 396 854 q 480 779 457 808 q 485 763 481 770 q 491 746 488 755 q 495 731 491 734 l 490 722 z "},"4":{"ha":713,"x_min":0,"x_max":686,"o":"m 545 841 q 547 838 545 838 q 551 837 549 837 q 555 835 553 837 q 556 827 556 833 q 559 810 556 821 q 553 746 556 777 q 545 682 549 715 q 542 652 544 667 q 540 623 540 637 q 541 577 540 600 q 543 532 543 555 q 540 513 543 524 q 538 491 538 502 q 537 469 537 480 l 551 456 q 597 458 574 454 q 644 461 621 461 q 658 461 651 461 q 673 460 665 461 q 679 448 677 454 q 686 437 681 442 q 682 418 682 427 q 682 401 681 410 q 677 393 680 395 q 677 384 675 391 q 656 313 656 342 q 646 301 652 307 q 635 289 640 296 q 627 288 631 289 q 618 288 623 288 q 609 288 614 288 q 601 292 604 289 q 568 286 586 286 q 538 279 551 286 q 538 247 538 263 q 537 216 537 231 q 540 164 537 189 q 543 113 543 140 q 542 60 543 88 q 533 8 541 33 q 521 1 530 5 q 507 -3 511 -3 q 491 -5 492 -1 q 487 -12 490 -8 q 469 -12 469 -15 q 463 -8 469 -8 q 455 -12 456 -8 q 449 -18 454 -15 q 414 -27 433 -27 l 399 -37 q 386 -34 388 -42 q 378 -23 384 -26 q 374 1 380 -12 q 368 8 372 4 q 365 15 365 12 q 369 99 365 56 q 370 113 369 106 q 372 126 372 119 q 370 146 372 136 q 368 168 369 157 q 366 218 366 193 q 362 267 365 243 q 310 267 332 266 q 266 266 288 269 q 256 263 260 264 q 247 259 252 262 q 213 256 231 256 q 179 250 195 255 q 166 243 172 247 q 153 239 160 240 q 81 232 115 232 q 63 243 66 243 q 57 247 60 244 q 48 268 49 262 q 42 277 47 274 q 14 281 22 275 q 0 293 7 286 q 12 315 3 305 q 24 338 22 324 q 31 342 28 340 q 37 347 34 345 q 56 375 47 359 q 73 404 64 391 q 91 426 81 415 q 109 449 100 437 q 132 486 121 467 q 157 524 144 505 q 217 616 187 570 q 274 709 247 662 q 302 757 288 734 q 332 803 317 780 q 344 822 339 812 q 355 842 349 831 q 366 855 361 849 q 377 868 372 861 q 399 901 389 884 q 419 935 408 918 q 432 951 426 943 q 444 968 438 960 q 449 977 446 972 q 454 987 452 982 q 467 1002 467 1000 q 468 1005 467 1004 q 478 1015 472 1010 q 490 1024 484 1020 q 505 1026 500 1024 q 517 1028 510 1028 q 545 1010 534 1028 q 549 999 548 1005 q 553 987 549 993 q 557 933 552 958 q 572 888 562 909 q 569 880 571 883 q 570 869 567 876 q 556 857 563 863 q 545 841 549 850 m 393 614 q 362 585 374 604 q 340 545 350 567 q 332 541 335 544 q 323 534 328 537 q 302 507 315 522 q 279 475 290 491 q 258 442 267 458 q 248 412 250 426 q 315 416 279 415 q 381 429 350 418 q 387 521 384 475 q 393 614 389 567 z "},"5":{"ha":701,"x_min":69,"x_max":646,"o":"m 616 985 q 618 949 614 963 q 621 922 621 936 q 627 885 623 897 q 635 861 632 873 q 627 847 631 854 q 616 833 623 840 q 557 829 586 830 q 499 827 528 827 q 418 831 458 827 q 399 834 408 833 q 381 836 391 836 q 351 833 366 836 q 321 831 336 831 q 288 832 304 831 q 255 833 273 833 q 253 817 254 825 q 252 800 252 808 q 253 772 252 785 q 254 743 254 758 q 254 688 254 716 q 252 633 254 661 q 263 630 258 631 q 274 629 269 629 q 288 630 281 629 q 302 631 296 631 q 392 626 347 631 q 483 621 437 621 q 540 625 511 621 q 597 628 568 628 q 616 624 608 628 q 633 616 624 620 q 641 600 636 606 q 646 583 646 593 q 643 576 646 579 q 637 570 640 574 q 632 559 635 566 q 629 541 629 553 q 632 522 628 525 q 636 511 636 518 q 630 494 636 507 q 616 464 624 480 q 600 433 608 448 q 590 412 593 418 q 545 311 568 361 q 500 210 521 262 q 482 171 492 190 q 461 132 472 152 q 425 65 442 99 q 388 -4 407 31 q 381 -16 385 -8 q 372 -33 377 -24 q 364 -51 368 -42 q 359 -64 361 -60 q 351 -77 355 -68 q 342 -94 347 -85 q 330 -108 336 -102 q 315 -114 324 -114 q 313 -104 312 -109 q 313 -94 313 -99 q 301 -83 309 -83 q 285 -85 293 -83 q 269 -88 277 -88 q 260 -80 263 -85 q 251 -72 256 -75 q 241 -68 244 -73 q 231 -61 237 -64 q 232 -52 232 -57 q 235 -45 232 -47 q 207 -38 216 -46 q 198 -19 198 -30 q 203 -7 198 -12 q 210 3 208 -3 q 244 80 222 42 q 288 153 266 118 q 309 190 300 172 q 330 231 320 210 q 346 275 339 252 q 362 311 351 290 q 385 352 373 331 q 405 393 396 373 q 416 430 414 414 q 406 435 411 435 q 395 435 400 435 q 359 435 376 435 q 326 437 343 435 q 313 438 319 437 q 301 439 308 439 q 275 439 289 439 q 248 438 262 439 q 241 437 244 438 q 233 437 237 437 q 220 439 227 437 q 208 441 214 441 q 176 447 187 445 q 155 453 165 449 q 133 471 148 463 q 125 454 127 456 q 106 455 111 457 q 95 453 102 453 q 78 471 81 465 q 69 490 75 477 q 75 546 72 518 q 77 601 77 574 q 79 614 79 608 q 80 628 80 621 q 80 657 80 643 q 77 686 80 671 q 83 749 84 718 q 81 811 81 780 q 82 832 81 822 q 83 853 83 842 q 85 907 84 887 q 90 949 85 928 q 92 971 91 960 q 95 993 94 982 q 121 994 117 996 q 134 1004 129 997 q 149 1015 138 1012 q 196 1013 174 1017 q 241 1009 218 1008 q 259 1005 250 1005 q 277 1006 269 1005 q 293 1006 285 1008 q 313 1009 307 1009 q 347 1006 331 1009 q 381 1002 362 1002 q 471 1007 426 1002 q 563 1012 517 1012 q 571 1008 567 1012 q 583 1005 575 1004 q 599 996 591 1001 q 616 985 606 990 z "},"6":{"ha":777,"x_min":0,"x_max":736,"o":"m 393 1048 q 395 1040 396 1044 q 396 1029 395 1035 q 429 1034 415 1036 q 449 1024 444 1031 q 473 1020 467 1021 q 483 1012 480 1019 q 494 1010 488 1010 q 505 1008 499 1010 q 509 990 509 1000 q 496 950 509 981 q 466 878 484 920 q 425 787 448 836 q 382 696 403 739 q 346 618 362 652 q 324 571 330 585 q 338 564 328 564 q 355 557 349 563 q 381 551 369 555 q 407 548 393 548 q 425 545 414 548 q 450 538 437 543 q 476 530 464 534 q 496 524 488 526 q 510 517 503 521 q 524 511 517 514 q 546 508 534 509 q 568 505 557 507 q 619 493 594 499 q 671 483 644 487 q 701 454 690 464 q 730 441 712 445 q 734 409 736 420 q 730 385 731 397 q 713 349 722 373 q 699 311 705 326 q 690 290 694 300 q 680 269 685 279 q 642 184 659 227 q 604 99 624 141 q 592 64 594 76 q 582 43 590 53 q 572 17 579 33 q 556 -15 566 1 q 537 -47 547 -31 q 522 -72 528 -62 q 501 -71 507 -73 q 487 -69 495 -69 q 472 -58 475 -61 q 463 -54 469 -54 q 460 -39 464 -43 q 419 -30 431 -39 q 391 -18 407 -20 q 392 -10 391 -14 q 393 -3 393 -7 q 391 4 393 0 q 387 11 388 8 q 345 44 365 26 q 304 75 324 62 q 267 96 286 87 q 228 115 247 106 l 213 123 q 194 135 206 127 q 168 150 182 142 q 144 164 155 157 q 132 174 134 171 q 113 185 121 178 q 94 195 104 193 q 62 224 72 212 q 45 230 52 224 q 27 235 38 236 q 14 248 16 244 q 9 255 12 252 q 3 276 0 266 q 12 298 7 286 q 21 320 16 311 q 27 332 26 330 q 84 468 52 403 q 152 598 117 533 q 218 729 187 663 q 278 863 248 795 q 319 952 297 909 q 357 1043 342 996 q 366 1049 363 1044 q 373 1058 369 1054 q 393 1048 382 1057 m 351 404 q 326 413 339 410 q 300 422 312 416 q 280 423 289 422 q 262 427 271 425 q 232 375 243 401 q 209 324 221 349 q 218 314 210 320 q 236 302 227 308 q 255 291 245 296 q 269 285 264 286 q 275 277 271 281 q 282 271 279 274 q 310 254 300 263 q 328 237 320 245 q 343 221 336 229 q 361 206 350 213 q 373 198 366 201 q 385 191 380 195 q 414 173 400 183 q 445 156 429 163 q 456 180 450 168 q 468 206 463 193 q 473 219 471 213 q 477 232 475 225 q 490 258 481 240 q 506 295 498 275 q 520 332 514 315 q 526 358 526 350 q 440 386 483 370 q 351 404 397 401 z "},"7":{"ha":685,"x_min":42,"x_max":636,"o":"m 606 977 q 604 965 606 970 q 602 954 602 960 q 604 941 605 941 q 602 935 602 940 q 616 929 614 928 q 621 930 618 930 q 636 913 636 930 q 635 899 636 906 q 636 884 635 891 q 615 827 625 856 q 593 769 605 799 q 580 723 585 746 q 570 677 575 700 q 529 540 551 608 q 486 403 507 472 q 470 349 479 376 q 454 296 461 323 q 432 216 445 256 q 408 136 419 176 q 395 81 401 109 q 382 26 389 53 q 375 1 380 14 q 362 -23 370 -12 q 341 -20 353 -20 q 323 -15 330 -20 l 297 -20 q 295 -12 296 -16 q 290 -5 294 -7 q 282 -7 285 -5 q 275 -11 279 -8 q 254 -8 264 -7 q 231 -1 235 -1 q 213 3 221 -1 q 216 34 213 23 q 218 56 218 45 q 241 163 231 115 q 264 258 251 210 q 278 301 271 281 q 292 343 285 321 q 303 386 298 363 q 315 429 308 408 q 325 457 319 444 q 336 484 331 471 q 344 509 340 496 q 351 533 347 521 q 361 564 357 549 q 372 594 366 579 q 382 627 377 612 q 391 659 388 643 q 395 667 395 662 q 399 675 396 673 q 416 749 407 713 q 433 822 426 785 q 412 827 426 825 q 389 829 397 829 q 353 828 370 829 q 316 827 335 827 q 239 829 278 827 q 161 830 201 830 q 144 829 153 830 q 127 827 136 827 q 114 828 123 827 q 95 830 104 829 q 77 833 85 831 q 65 837 69 834 q 58 851 58 841 q 60 867 58 861 q 47 905 52 886 q 45 927 47 920 q 43 943 43 935 q 42 978 42 967 q 45 996 42 985 q 62 998 53 997 q 80 1001 72 998 q 93 1006 91 1008 q 96 1005 95 1005 q 138 1007 119 1005 q 176 1009 157 1009 q 243 1008 210 1009 q 309 1008 277 1008 q 334 1009 323 1008 q 358 1010 346 1010 q 391 1008 376 1010 q 423 1006 407 1006 q 443 1007 434 1006 q 461 1009 452 1008 q 490 1008 476 1009 q 518 1008 503 1008 l 534 1008 q 547 1008 543 1008 q 557 1009 552 1009 q 573 1004 567 1009 q 587 997 579 1000 q 595 985 591 990 q 606 977 600 979 z "},"8":{"ha":800,"x_min":27,"x_max":772,"o":"m 427 899 q 418 895 423 897 q 411 891 414 894 q 290 875 351 890 q 334 781 305 826 q 385 689 362 736 q 398 662 393 669 q 408 646 403 655 q 414 656 412 651 q 420 669 416 662 q 427 691 422 675 q 437 713 433 707 q 469 793 452 753 q 503 872 486 833 q 532 947 517 907 q 566 1020 547 987 q 582 1038 570 1028 q 602 1054 594 1048 q 614 1047 609 1051 q 624 1039 618 1043 q 642 1034 635 1040 q 662 1032 650 1027 q 675 1020 671 1028 q 713 1004 696 1008 q 735 990 730 1000 q 735 981 736 986 q 736 971 734 977 q 734 957 734 964 q 731 943 734 949 q 716 911 727 929 q 699 879 705 894 q 693 870 696 875 q 688 861 690 865 q 669 819 680 840 q 648 777 659 799 q 637 759 643 768 q 628 739 632 750 q 623 725 625 732 q 618 711 621 718 q 605 686 612 699 q 593 659 598 674 l 585 635 q 568 602 579 624 q 551 568 557 579 q 543 557 548 563 q 537 545 538 552 q 524 516 529 528 q 514 494 518 505 q 536 448 524 471 q 562 406 548 426 q 586 363 575 385 q 610 320 597 340 q 658 232 636 277 q 707 148 680 187 q 741 111 734 130 q 761 75 747 91 q 766 52 761 62 q 772 34 772 42 q 769 18 772 26 q 751 7 757 12 q 736 -8 745 3 q 728 -12 731 -11 q 718 -16 724 -14 q 705 -10 709 -15 q 694 1 700 -5 q 676 -4 680 1 q 665 -15 673 -9 q 642 -18 654 -16 q 618 -19 631 -19 q 585 -18 601 -19 q 553 -16 568 -16 q 498 -20 525 -16 q 444 -24 471 -24 q 430 -23 437 -24 q 418 -22 423 -22 q 395 -22 407 -22 q 372 -23 384 -22 q 353 -21 362 -20 q 332 -22 343 -22 q 313 -20 321 -22 q 296 -16 305 -18 q 279 -15 288 -15 q 262 -15 270 -15 q 237 -22 251 -15 q 224 -17 231 -20 q 212 -9 218 -14 q 193 -11 201 -11 q 176 -14 184 -11 q 144 -14 153 -9 q 127 -8 127 -15 q 117 -5 119 -8 q 110 0 114 -3 q 98 1 104 1 q 85 1 92 1 q 90 31 85 19 q 98 54 95 42 q 106 92 96 73 q 127 132 115 110 q 152 172 140 153 q 170 199 164 191 q 190 239 182 218 q 213 279 198 260 q 219 294 217 292 q 222 298 221 296 q 229 316 227 307 q 236 334 232 326 q 252 367 244 350 q 269 400 260 384 q 274 415 271 407 q 279 431 277 423 q 285 442 281 434 q 294 460 289 450 q 304 477 300 469 q 311 488 309 486 q 295 522 305 507 q 277 555 285 537 q 257 586 269 570 q 239 618 245 602 q 222 652 233 632 q 199 693 212 673 q 174 732 187 713 q 151 760 160 750 q 137 784 144 772 q 123 807 130 796 q 109 829 117 818 q 95 853 102 840 q 66 898 81 876 q 39 943 52 920 q 33 966 37 960 q 27 977 30 971 q 61 1001 33 1004 q 78 1013 72 1008 q 99 1017 84 1019 q 123 1026 106 1020 q 148 1032 140 1032 q 178 1034 170 1034 q 195 1029 187 1034 q 233 1038 214 1035 q 271 1044 252 1042 q 298 1046 279 1046 q 339 1048 317 1047 q 379 1052 361 1050 q 401 1058 397 1054 q 416 1057 410 1057 q 442 1050 431 1057 q 450 1037 446 1043 q 458 1024 453 1031 q 454 996 456 1010 q 446 970 453 981 q 442 947 446 955 q 439 929 438 939 q 433 914 437 922 q 427 899 430 906 m 418 340 q 399 318 404 328 q 391 294 393 308 q 366 252 376 274 q 346 208 355 231 q 340 190 343 198 q 334 174 336 182 q 323 155 330 163 q 315 136 317 148 q 332 130 321 130 q 349 127 342 130 q 357 128 353 127 q 368 129 362 129 q 418 126 393 129 q 468 123 444 123 q 533 132 500 123 q 515 170 530 138 q 479 236 499 201 q 442 302 460 271 q 420 339 425 332 l 418 340 z "},"9":{"ha":777,"x_min":42,"x_max":777,"o":"m 385 -65 q 383 -56 382 -61 q 382 -46 384 -50 q 349 -50 362 -53 q 330 -41 335 -47 q 304 -36 311 -38 q 294 -27 297 -34 q 274 -23 283 -27 q 270 -7 270 -18 q 282 33 270 3 q 313 106 294 64 q 353 197 331 149 q 396 289 376 245 q 432 366 416 332 q 454 414 448 400 q 439 421 450 420 q 422 427 429 422 q 397 432 408 429 q 370 435 385 435 q 352 438 363 435 q 327 445 340 441 q 301 454 313 449 q 282 461 289 458 q 268 467 275 464 q 252 472 260 471 q 232 476 243 475 q 210 480 221 477 q 158 490 183 484 q 107 500 133 496 q 76 530 87 519 q 49 543 65 540 q 45 576 42 564 q 49 598 47 587 q 64 635 56 610 q 77 674 72 659 q 88 695 83 685 q 99 716 94 705 q 136 800 118 758 q 174 886 155 842 q 185 920 183 909 q 194 940 187 932 q 204 966 197 951 q 221 998 212 982 q 239 1029 231 1015 q 255 1055 248 1044 q 276 1055 270 1058 q 289 1053 282 1053 q 305 1041 302 1044 q 313 1038 308 1038 q 317 1023 313 1027 q 358 1014 346 1024 q 388 1001 370 1004 q 386 994 388 997 q 384 986 384 990 q 433 940 412 959 q 473 910 454 921 q 551 868 507 888 l 566 860 q 583 849 571 856 q 608 835 595 842 q 632 821 621 827 q 646 811 643 814 q 665 800 656 807 q 684 788 674 792 q 715 761 705 773 q 732 754 726 760 q 749 750 739 749 q 768 728 764 736 q 774 707 777 716 q 766 686 770 697 q 756 664 761 674 q 750 652 751 654 q 694 517 726 582 q 627 387 662 452 q 560 256 591 321 q 500 121 529 190 q 458 32 479 76 q 419 -60 437 -12 q 411 -65 414 -61 q 404 -73 408 -69 q 385 -65 393 -71 m 426 581 q 452 571 439 574 q 477 563 465 568 q 498 562 488 563 q 517 557 507 560 q 546 609 534 583 q 568 661 557 635 q 559 670 567 665 q 541 682 551 675 q 523 692 532 688 q 510 699 514 697 q 503 706 507 703 q 496 713 499 709 q 469 730 479 722 q 450 746 458 738 q 435 762 442 754 q 416 779 427 770 q 405 786 411 783 q 393 792 399 789 q 362 811 377 802 q 332 829 347 821 q 321 804 328 817 q 309 779 315 792 q 304 766 307 772 q 300 753 302 760 q 288 726 296 745 q 271 688 279 708 q 257 651 263 669 q 251 627 251 633 q 337 598 294 613 q 426 581 380 583 z "},"Ð":{"ha":776,"x_min":27,"x_max":791,"o":"m 140 637 l 140 674 q 141 832 138 753 q 146 991 144 911 q 179 997 160 998 q 209 1009 198 996 q 223 1010 216 1010 q 239 1009 231 1009 q 258 1013 254 1009 q 274 1024 262 1017 q 286 1030 281 1028 q 298 1035 292 1032 q 313 1033 309 1032 q 321 1034 316 1034 q 340 1024 330 1034 q 358 1009 351 1015 q 390 987 374 998 q 422 966 406 977 q 486 910 457 941 q 540 848 514 879 q 596 785 564 818 q 655 726 628 753 q 677 707 666 715 q 697 688 688 699 q 705 676 701 682 q 712 663 708 670 q 734 646 723 652 q 755 631 745 640 q 764 622 758 628 q 777 609 770 616 q 787 595 783 602 q 791 585 791 589 q 788 575 791 579 q 783 566 785 571 q 780 553 780 562 q 777 543 780 545 q 762 529 764 532 q 758 524 761 526 q 748 515 754 518 q 739 505 742 511 q 737 496 736 500 q 735 487 738 492 q 712 458 728 471 q 685 429 696 445 q 650 377 667 403 q 614 328 633 351 q 597 309 605 317 q 581 290 589 301 q 568 273 574 282 q 555 254 562 264 q 525 216 540 235 q 495 179 510 198 q 456 134 476 156 q 420 88 437 113 q 389 43 404 61 q 350 5 373 26 q 336 -8 345 0 q 320 -16 327 -16 q 309 -12 313 -16 q 298 -8 305 -8 q 290 -9 297 -8 q 273 -12 282 -11 l 248 -15 q 241 -18 244 -16 q 235 -23 237 -20 q 215 -25 225 -26 q 194 -26 205 -24 q 185 -30 189 -27 q 176 -33 182 -33 q 161 -24 167 -33 q 142 -16 155 -15 q 138 -1 138 -11 q 142 22 138 9 q 149 85 149 53 q 151 148 148 117 q 155 224 155 184 q 151 361 155 293 q 144 499 148 430 q 119 499 130 500 q 95 498 107 498 q 67 498 80 498 q 41 499 54 499 q 39 515 38 509 q 41 528 41 521 q 34 546 35 536 q 33 566 33 556 q 33 580 33 572 q 35 594 34 587 q 30 602 33 598 q 27 610 27 606 q 33 627 30 616 q 47 635 42 629 q 83 637 65 637 q 118 637 100 637 l 140 637 m 416 582 l 414 567 q 412 537 412 548 q 415 513 410 518 q 412 496 412 505 q 410 481 412 488 q 379 481 388 480 q 363 483 370 481 q 342 484 353 484 q 321 483 332 483 q 321 378 323 431 q 328 274 320 326 q 326 259 326 270 q 328 243 326 254 q 346 259 339 250 q 359 278 353 269 q 382 307 365 285 q 422 360 399 330 q 470 425 445 391 q 517 490 495 460 q 552 543 538 521 q 566 571 566 566 q 552 591 566 578 q 533 609 538 604 q 511 624 524 616 q 490 642 498 632 q 475 661 483 651 q 460 680 468 670 q 412 731 435 705 q 370 788 388 757 q 347 808 357 796 q 323 825 338 819 q 320 810 319 818 q 321 795 321 802 q 318 732 321 764 q 315 670 315 701 l 315 625 q 361 623 338 624 q 407 618 384 621 q 410 593 410 600 l 416 582 z "},"ð":{"ha":776,"x_min":27,"x_max":791,"o":"m 140 637 l 140 674 q 141 832 138 753 q 146 991 144 911 q 179 997 160 998 q 209 1009 198 996 q 223 1010 216 1010 q 239 1009 231 1009 q 258 1013 254 1009 q 274 1024 262 1017 q 286 1030 281 1028 q 298 1035 292 1032 q 313 1033 309 1032 q 321 1034 316 1034 q 340 1024 330 1034 q 358 1009 351 1015 q 390 987 374 998 q 422 966 406 977 q 486 910 457 941 q 540 848 514 879 q 596 785 564 818 q 655 726 628 753 q 677 707 666 715 q 697 688 688 699 q 705 676 701 682 q 712 663 708 670 q 734 646 723 652 q 755 631 745 640 q 764 622 758 628 q 777 609 770 616 q 787 595 783 602 q 791 585 791 589 q 788 575 791 579 q 783 566 785 571 q 780 553 780 562 q 777 543 780 545 q 762 529 764 532 q 758 524 761 526 q 748 515 754 518 q 739 505 742 511 q 737 496 736 500 q 735 487 738 492 q 712 458 728 471 q 685 429 696 445 q 650 377 667 403 q 614 328 633 351 q 597 309 605 317 q 581 290 589 301 q 568 273 574 282 q 555 254 562 264 q 525 216 540 235 q 495 179 510 198 q 456 134 476 156 q 420 88 437 113 q 389 43 404 61 q 350 5 373 26 q 336 -8 345 0 q 320 -16 327 -16 q 309 -12 313 -16 q 298 -8 305 -8 q 290 -9 297 -8 q 273 -12 282 -11 l 248 -15 q 241 -18 244 -16 q 235 -23 237 -20 q 215 -25 225 -26 q 194 -26 205 -24 q 185 -30 189 -27 q 176 -33 182 -33 q 161 -24 167 -33 q 142 -16 155 -15 q 138 -1 138 -11 q 142 22 138 9 q 149 85 149 53 q 151 148 148 117 q 155 224 155 184 q 151 361 155 293 q 144 499 148 430 q 119 499 130 500 q 95 498 107 498 q 67 498 80 498 q 41 499 54 499 q 39 515 38 509 q 41 528 41 521 q 34 546 35 536 q 33 566 33 556 q 33 580 33 572 q 35 594 34 587 q 30 602 33 598 q 27 610 27 606 q 33 627 30 616 q 47 635 42 629 q 83 637 65 637 q 118 637 100 637 l 140 637 m 416 582 l 414 567 q 412 537 412 548 q 415 513 410 518 q 412 496 412 505 q 410 481 412 488 q 379 481 388 480 q 363 483 370 481 q 342 484 353 484 q 321 483 332 483 q 321 378 323 431 q 328 274 320 326 q 326 259 326 270 q 328 243 326 254 q 346 259 339 250 q 359 278 353 269 q 382 307 365 285 q 422 360 399 330 q 470 425 445 391 q 517 490 495 460 q 552 543 538 521 q 566 571 566 566 q 552 591 566 578 q 533 609 538 604 q 511 624 524 616 q 490 642 498 632 q 475 661 483 651 q 460 680 468 670 q 412 731 435 705 q 370 788 388 757 q 347 808 357 796 q 323 825 338 819 q 320 810 319 818 q 321 795 321 802 q 318 732 321 764 q 315 670 315 701 l 315 625 q 361 623 338 624 q 407 618 384 621 q 410 593 410 600 l 416 582 z "},"Ł":{"ha":629,"x_min":0,"x_max":623,"o":"m 374 661 q 372 643 374 648 q 372 621 372 625 q 373 610 373 617 q 377 589 370 594 q 375 574 374 582 q 373 557 376 566 q 352 547 363 551 q 330 540 340 543 q 303 531 316 537 q 278 519 290 525 q 279 486 278 503 q 281 452 281 468 q 279 420 281 435 q 277 391 277 406 q 276 309 277 353 q 278 229 275 266 l 282 213 q 334 229 308 220 q 387 244 359 237 q 418 259 407 255 q 439 267 429 263 q 484 284 463 275 q 529 301 506 293 q 545 304 541 300 q 558 302 552 302 q 570 301 564 301 q 589 278 586 286 q 600 263 593 270 q 601 253 598 255 q 604 248 604 251 q 606 241 612 247 q 600 232 601 235 q 617 199 612 216 q 623 175 623 182 q 619 159 623 165 q 612 144 616 153 q 503 104 556 123 q 393 65 449 84 q 366 56 378 61 q 339 49 354 52 q 330 44 336 46 q 316 39 324 42 q 301 35 308 37 q 292 33 294 33 l 243 30 q 233 23 236 28 q 227 12 231 18 q 216 1 222 5 q 197 -4 209 -4 q 172 -3 184 -4 q 149 4 160 -1 q 145 14 144 8 q 144 26 146 20 q 125 22 132 26 q 111 18 118 19 q 104 31 107 23 q 98 43 102 38 q 95 57 95 50 q 95 71 95 64 q 96 92 95 79 q 102 113 96 106 q 104 269 104 190 q 104 425 104 347 l 104 463 q 62 444 83 452 q 19 426 41 435 q 16 439 15 434 q 16 450 16 445 q 6 487 7 467 q 7 519 5 507 q 3 526 5 522 q 0 533 0 530 q 1 541 0 536 q 3 551 3 545 q 18 566 11 557 q 59 585 38 576 q 100 602 80 593 q 100 631 99 617 q 100 659 100 644 q 98 740 100 700 q 95 819 95 780 q 91 985 95 901 q 94 996 94 990 q 96 1008 95 1001 q 126 1015 115 1017 q 148 1012 137 1012 q 171 1017 157 1012 q 182 1014 176 1016 q 194 1012 187 1012 q 216 1013 214 1016 q 222 1008 217 1010 q 231 1013 228 1009 q 240 1016 233 1016 q 252 1005 247 1016 q 262 989 256 994 q 263 975 262 982 q 267 962 264 968 q 269 812 269 887 q 275 663 269 738 q 302 673 289 669 q 330 684 315 678 q 346 687 338 684 q 362 693 354 690 q 366 670 366 677 l 374 661 z "},"ł":{"ha":629,"x_min":0,"x_max":623,"o":"m 374 661 q 372 643 374 648 q 372 621 372 625 q 373 610 373 617 q 377 589 370 594 q 375 574 374 582 q 373 557 376 566 q 352 547 363 551 q 330 540 340 543 q 303 531 316 537 q 278 519 290 525 q 279 486 278 503 q 281 452 281 468 q 279 420 281 435 q 277 391 277 406 q 276 309 277 353 q 278 229 275 266 l 282 213 q 334 229 308 220 q 387 244 359 237 q 418 259 407 255 q 439 267 429 263 q 484 284 463 275 q 529 301 506 293 q 545 304 541 300 q 558 302 552 302 q 570 301 564 301 q 589 278 586 286 q 600 263 593 270 q 601 253 598 255 q 604 248 604 251 q 606 241 612 247 q 600 232 601 235 q 617 199 612 216 q 623 175 623 182 q 619 159 623 165 q 612 144 616 153 q 503 104 556 123 q 393 65 449 84 q 366 56 378 61 q 339 49 354 52 q 330 44 336 46 q 316 39 324 42 q 301 35 308 37 q 292 33 294 33 l 243 30 q 233 23 236 28 q 227 12 231 18 q 216 1 222 5 q 197 -4 209 -4 q 172 -3 184 -4 q 149 4 160 -1 q 145 14 144 8 q 144 26 146 20 q 125 22 132 26 q 111 18 118 19 q 104 31 107 23 q 98 43 102 38 q 95 57 95 50 q 95 71 95 64 q 96 92 95 79 q 102 113 96 106 q 104 269 104 190 q 104 425 104 347 l 104 463 q 62 444 83 452 q 19 426 41 435 q 16 439 15 434 q 16 450 16 445 q 6 487 7 467 q 7 519 5 507 q 3 526 5 522 q 0 533 0 530 q 1 541 0 536 q 3 551 3 545 q 18 566 11 557 q 59 585 38 576 q 100 602 80 593 q 100 631 99 617 q 100 659 100 644 q 98 740 100 700 q 95 819 95 780 q 91 985 95 901 q 94 996 94 990 q 96 1008 95 1001 q 126 1015 115 1017 q 148 1012 137 1012 q 171 1017 157 1012 q 182 1014 176 1016 q 194 1012 187 1012 q 216 1013 214 1016 q 222 1008 217 1010 q 231 1013 228 1009 q 240 1016 233 1016 q 252 1005 247 1016 q 262 989 256 994 q 263 975 262 982 q 267 962 264 968 q 269 812 269 887 q 275 663 269 738 q 302 673 289 669 q 330 684 315 678 q 346 687 338 684 q 362 693 354 690 q 366 670 366 677 l 374 661 z "},"Š":{"ha":498,"x_min":-7,"x_max":486,"o":"m 372 1009 q 381 968 381 991 q 373 925 381 948 q 347 890 365 902 q 323 846 335 863 q 301 812 312 829 q 293 794 297 803 q 282 776 289 785 q 264 749 278 769 q 237 706 251 728 q 212 663 222 684 q 201 637 201 643 q 214 624 201 632 q 231 612 227 616 q 243 598 237 605 q 256 585 250 591 q 286 560 271 572 q 315 533 300 548 q 374 484 343 507 q 430 430 406 461 q 460 397 453 423 q 464 349 467 372 q 469 340 467 345 q 473 331 471 336 q 467 299 473 309 q 454 274 461 289 q 446 247 448 260 q 437 222 444 233 q 429 216 434 218 q 422 208 425 213 q 413 185 416 198 q 404 161 410 172 q 394 140 400 151 q 384 118 388 129 q 379 102 381 111 q 366 88 377 92 q 348 41 359 64 q 330 -7 336 18 q 299 -22 317 -11 q 270 -34 281 -34 q 263 -30 266 -34 q 255 -23 260 -26 q 248 -23 252 -22 q 240 -24 243 -24 q 230 -19 233 -24 q 221 -11 227 -14 q 213 -14 217 -12 q 205 -15 209 -15 q 194 -10 195 -15 q 186 -1 193 -5 q 167 14 170 7 q 159 23 164 20 q 184 90 168 58 q 216 155 201 122 q 226 175 220 165 q 237 195 232 184 q 250 220 241 205 q 264 251 258 235 q 277 281 271 267 q 282 305 282 296 q 271 334 282 324 q 197 400 232 366 q 125 469 163 434 q 72 514 100 491 q 64 526 66 518 q 56 541 61 534 q 47 549 53 547 q 39 557 42 552 q 34 570 35 563 q 26 582 33 578 q 9 590 19 589 q -7 598 0 591 q -3 607 -3 602 q -4 616 -4 612 q 4 629 -4 625 q 12 644 12 633 q 20 658 18 655 q 54 728 35 694 q 94 796 73 762 q 106 817 100 807 q 119 838 113 827 q 127 855 123 848 q 137 869 130 863 q 169 910 156 891 q 189 956 182 929 q 194 975 190 963 q 204 1000 198 987 q 217 1021 210 1012 q 232 1031 224 1031 q 252 1025 239 1031 q 274 1017 264 1020 q 291 1013 282 1015 q 308 1010 300 1010 q 319 1014 313 1010 q 331 1017 324 1017 q 351 1014 342 1017 q 372 1009 361 1010 m 80 1196 q 73 1213 76 1207 q 67 1224 69 1219 q 64 1236 65 1229 q 64 1255 64 1242 q 65 1278 64 1264 q 73 1299 66 1293 q 87 1302 81 1299 q 100 1308 94 1305 q 128 1293 115 1302 q 156 1279 141 1283 q 165 1266 163 1272 q 180 1259 168 1260 q 201 1236 191 1248 q 222 1213 212 1225 q 241 1204 233 1210 q 260 1195 250 1198 q 301 1229 277 1208 q 345 1259 326 1249 q 355 1270 349 1265 q 363 1282 361 1275 q 377 1293 370 1284 q 388 1306 384 1301 q 415 1318 403 1309 q 442 1329 427 1326 q 460 1306 460 1325 q 483 1290 471 1294 q 484 1263 486 1279 q 484 1242 481 1248 q 471 1229 477 1236 q 458 1214 465 1222 q 454 1208 456 1211 q 449 1202 452 1204 q 379 1143 418 1171 q 305 1088 340 1116 q 290 1084 298 1085 q 274 1082 282 1084 q 241 1097 259 1088 q 213 1111 224 1105 q 179 1132 195 1119 q 148 1156 163 1145 q 114 1175 132 1166 q 80 1196 96 1184 z "},"š":{"ha":522,"x_min":-14,"x_max":530,"o":"m 340 1000 q 347 992 343 994 q 351 983 350 990 q 366 973 361 977 q 373 962 372 970 q 387 949 385 952 q 391 943 389 947 q 404 933 397 937 q 412 921 410 929 q 426 906 423 911 q 430 894 429 901 q 408 868 425 884 q 372 833 392 852 q 332 798 351 815 q 302 772 313 781 q 296 762 300 766 q 289 753 292 758 q 274 739 281 746 q 258 727 267 731 q 220 690 244 708 q 187 654 195 671 q 193 646 189 650 q 201 639 198 642 q 227 619 212 628 q 252 600 241 610 q 274 581 263 590 q 296 563 285 572 q 309 547 301 557 q 336 527 323 536 q 361 507 349 518 q 411 463 387 486 q 463 419 435 441 l 473 407 q 479 382 473 396 q 491 358 486 368 q 492 341 488 345 q 498 335 495 338 q 499 301 496 309 q 456 264 476 281 q 422 231 437 247 q 397 204 410 216 q 369 179 384 193 q 355 164 361 168 q 336 149 346 155 q 304 121 320 134 q 274 94 289 107 q 254 75 263 84 q 235 56 244 66 q 216 37 227 47 q 195 19 206 26 q 184 5 191 11 q 172 -8 178 -1 q 155 -19 163 -14 q 136 -30 146 -24 q 115 -15 125 -22 q 92 -5 104 -8 q 80 8 84 1 q 65 18 76 15 q 59 26 62 22 q 53 37 56 31 q 27 57 37 38 q 35 69 30 65 q 37 84 39 73 q 56 108 45 98 q 79 129 68 118 q 101 151 91 140 q 123 174 111 163 q 137 186 130 180 q 152 199 144 193 q 182 227 167 214 q 214 255 198 240 q 259 296 236 277 q 301 340 282 316 q 297 348 300 346 q 293 354 294 350 q 250 394 271 374 q 205 429 229 414 q 194 442 197 437 q 147 481 170 460 q 98 518 125 503 q 85 530 92 525 q 71 538 77 534 q 62 550 66 545 q 50 557 57 555 q 36 573 39 567 q 24 581 33 579 q 16 591 22 587 q 3 601 9 595 q -5 614 0 609 q -4 630 -7 625 q 0 637 -1 635 q -7 650 -1 646 q -14 663 -14 654 q -10 671 -14 669 q -5 677 -7 673 l -1 697 q 17 717 9 705 q 37 735 24 728 q 71 769 50 755 q 87 787 77 780 q 104 804 98 793 q 123 819 115 811 q 141 834 130 827 q 147 843 144 840 q 152 850 151 846 q 216 911 189 886 q 274 963 244 937 q 290 978 282 970 q 308 993 298 986 q 315 996 311 996 q 323 998 319 996 q 340 1000 339 998 m 125 1150 q 117 1167 121 1161 q 112 1178 114 1173 q 109 1190 110 1183 q 109 1208 109 1196 q 110 1232 109 1218 q 118 1253 111 1246 q 132 1256 126 1253 q 145 1261 138 1259 q 173 1246 160 1256 q 201 1233 186 1237 q 210 1220 208 1226 q 225 1213 213 1214 q 246 1190 236 1202 q 267 1166 256 1179 q 286 1158 278 1164 q 305 1149 294 1152 q 346 1183 321 1162 q 389 1213 370 1203 q 399 1224 393 1219 q 408 1236 406 1229 q 422 1246 415 1238 q 433 1260 429 1255 q 460 1272 448 1263 q 487 1283 472 1280 q 505 1260 505 1279 q 528 1244 515 1248 q 528 1217 530 1233 q 529 1196 526 1202 q 516 1183 522 1190 q 503 1168 510 1176 q 498 1162 500 1165 q 494 1156 496 1158 q 424 1097 463 1124 q 350 1042 385 1070 q 335 1038 343 1039 q 319 1036 327 1038 q 286 1050 304 1042 q 258 1065 269 1059 q 224 1086 240 1073 q 193 1109 208 1099 q 159 1129 176 1120 q 125 1150 141 1138 z "},"Ý":{"ha":628,"x_min":-12,"x_max":642,"o":"m 642 960 q 608 897 627 933 q 578 833 589 860 q 570 814 574 823 q 563 796 567 806 q 546 758 556 776 q 528 719 536 739 q 503 664 515 692 q 477 606 490 636 q 456 559 464 579 q 441 519 449 540 q 427 479 433 499 q 416 444 420 460 q 396 411 404 422 q 391 362 393 387 q 388 312 388 338 q 390 288 388 300 q 393 264 392 277 q 394 230 395 247 q 395 195 393 213 q 398 128 396 161 q 401 60 400 95 q 399 18 403 35 q 397 -16 396 1 q 389 -20 393 -19 q 380 -24 384 -22 q 360 -24 365 -24 q 351 -26 355 -23 q 338 -18 339 -18 q 335 -19 336 -19 q 317 -11 319 -14 q 312 -5 316 -8 q 288 -9 297 -5 q 281 -4 283 -7 q 274 1 278 -1 q 254 5 262 3 q 240 9 245 7 q 231 28 236 20 q 227 50 227 37 q 229 71 227 61 q 233 91 232 80 q 233 103 233 98 q 232 115 232 109 q 235 133 232 122 q 231 199 231 164 q 232 264 232 233 q 227 323 232 296 q 227 348 228 340 q 225 363 225 355 q 227 378 225 370 q 228 392 228 385 q 226 406 228 393 q 221 433 224 419 q 216 460 218 448 q 213 476 213 473 q 193 522 199 500 q 178 559 186 544 q 167 581 172 570 q 157 604 161 591 q 153 618 155 610 q 148 633 151 627 q 138 657 142 644 q 126 678 133 670 q 116 701 121 690 q 111 720 111 711 q 98 749 107 736 q 83 776 90 762 q 77 791 79 784 q 72 804 75 798 q 64 818 69 810 q 54 830 60 826 q 45 852 52 842 q 35 873 38 861 q 20 892 28 883 q 5 930 15 913 q -12 966 -4 947 q 19 1001 -7 994 q 35 1019 33 1017 q 47 1020 38 1020 q 64 1031 56 1027 q 83 1034 72 1036 q 90 1043 84 1039 q 102 1047 96 1047 q 116 1039 110 1047 q 129 1027 122 1031 q 151 990 140 1008 q 171 954 163 972 q 188 916 180 935 q 210 879 195 897 q 231 828 217 852 q 255 777 245 804 q 271 745 262 761 q 286 712 279 730 q 293 696 290 704 q 298 680 296 688 q 304 662 301 673 q 311 644 307 651 q 327 669 320 654 q 347 705 336 688 q 365 741 357 722 q 380 777 376 758 q 392 815 385 796 q 398 829 395 822 q 404 844 401 836 q 411 860 408 852 q 416 876 414 868 q 437 927 426 902 q 461 978 449 952 q 467 990 463 982 q 478 1007 472 998 q 490 1023 484 1016 q 499 1032 495 1029 q 508 1036 502 1035 q 518 1038 514 1036 q 536 1031 530 1038 q 560 1021 552 1024 q 572 1009 568 1019 q 603 994 593 996 q 618 982 613 991 q 636 968 633 972 q 642 960 639 964 m 480 1328 q 495 1331 486 1331 q 515 1328 506 1331 q 536 1321 525 1325 q 550 1301 547 1308 q 557 1286 553 1294 q 563 1272 560 1278 q 566 1264 566 1265 q 519 1218 541 1234 q 475 1183 496 1202 q 454 1167 464 1176 q 433 1152 444 1158 q 410 1134 425 1146 q 378 1109 395 1122 q 347 1086 362 1097 q 327 1073 332 1076 q 294 1057 311 1062 q 271 1069 277 1067 q 260 1076 266 1072 q 256 1084 259 1081 q 251 1090 254 1086 q 239 1104 241 1099 q 237 1128 236 1116 q 240 1143 237 1139 q 331 1213 286 1179 q 423 1283 376 1248 q 450 1302 435 1293 q 476 1322 464 1312 l 480 1328 z "},"ý":{"ha":628,"x_min":-12,"x_max":642,"o":"m 642 960 q 608 897 627 933 q 578 833 589 860 q 570 814 574 823 q 563 796 567 806 q 546 758 556 776 q 528 719 536 739 q 503 664 515 692 q 477 606 490 636 q 456 559 464 579 q 441 519 449 540 q 427 479 433 499 q 416 444 420 460 q 396 411 404 422 q 391 362 393 387 q 388 312 388 338 q 390 288 388 300 q 393 264 392 277 q 394 230 395 247 q 395 195 393 213 q 398 128 396 161 q 401 60 400 95 q 399 18 403 35 q 397 -16 396 1 q 389 -20 393 -19 q 380 -24 384 -22 q 360 -24 365 -24 q 351 -26 355 -23 q 338 -18 339 -18 q 335 -19 336 -19 q 317 -11 319 -14 q 312 -5 316 -8 q 288 -9 297 -5 q 281 -4 283 -7 q 274 1 278 -1 q 254 5 262 3 q 240 9 245 7 q 231 28 236 20 q 227 50 227 37 q 229 71 227 61 q 233 91 232 80 q 233 103 233 98 q 232 115 232 109 q 235 133 232 122 q 231 199 231 164 q 232 264 232 233 q 227 323 232 296 q 227 348 228 340 q 225 363 225 355 q 227 378 225 370 q 228 392 228 385 q 226 406 228 393 q 221 433 224 419 q 216 460 218 448 q 213 476 213 473 q 193 522 199 500 q 178 559 186 544 q 167 581 172 570 q 157 604 161 591 q 153 618 155 610 q 148 633 151 627 q 138 657 142 644 q 126 678 133 670 q 116 701 121 690 q 111 720 111 711 q 98 749 107 736 q 83 776 90 762 q 77 791 79 784 q 72 804 75 798 q 64 818 69 810 q 54 830 60 826 q 45 852 52 842 q 35 873 38 861 q 20 892 28 883 q 5 930 15 913 q -12 966 -4 947 q 19 1001 -7 994 q 35 1019 33 1017 q 47 1020 38 1020 q 64 1031 56 1027 q 83 1034 72 1036 q 90 1043 84 1039 q 102 1047 96 1047 q 116 1039 110 1047 q 129 1027 122 1031 q 151 990 140 1008 q 171 954 163 972 q 188 916 180 935 q 210 879 195 897 q 231 828 217 852 q 255 777 245 804 q 271 745 262 761 q 286 712 279 730 q 293 696 290 704 q 298 680 296 688 q 304 662 301 673 q 311 644 307 651 q 327 669 320 654 q 347 705 336 688 q 365 741 357 722 q 380 777 376 758 q 392 815 385 796 q 398 829 395 822 q 404 844 401 836 q 411 860 408 852 q 416 876 414 868 q 437 927 426 902 q 461 978 449 952 q 467 990 463 982 q 478 1007 472 998 q 490 1023 484 1016 q 499 1032 495 1029 q 508 1036 502 1035 q 518 1038 514 1036 q 536 1031 530 1038 q 560 1021 552 1024 q 572 1009 568 1019 q 603 994 593 996 q 618 982 613 991 q 636 968 633 972 q 642 960 639 964 m 491 1293 q 506 1295 496 1295 q 526 1293 517 1295 q 547 1286 536 1290 q 561 1265 557 1272 q 568 1251 564 1259 q 574 1236 571 1242 q 576 1229 576 1230 q 530 1183 552 1199 q 486 1147 507 1166 q 465 1132 475 1141 q 444 1116 454 1123 q 420 1099 435 1111 q 389 1074 406 1086 q 358 1051 373 1062 q 338 1038 343 1040 q 305 1021 321 1027 q 282 1034 288 1032 q 271 1040 277 1036 q 267 1048 270 1046 q 262 1055 264 1051 q 250 1069 252 1063 q 248 1093 247 1081 q 251 1108 248 1104 q 342 1178 297 1143 q 434 1248 387 1213 q 460 1267 446 1257 q 487 1287 475 1276 l 491 1293 z "},"Þ":{"ha":690,"x_min":98,"x_max":697,"o":"m 697 587 q 692 576 692 583 q 686 563 692 568 q 694 543 692 555 q 673 515 689 526 q 659 498 669 505 q 646 481 650 492 q 634 471 636 475 q 629 463 632 467 q 581 416 604 435 q 540 373 559 396 q 500 334 515 361 q 478 313 488 324 q 457 293 468 302 q 449 284 454 288 q 441 274 444 281 q 416 255 426 267 q 392 235 406 243 l 382 221 q 371 212 378 218 q 356 199 363 206 q 342 184 349 191 q 335 174 336 178 q 324 165 332 172 q 307 151 316 159 q 290 134 297 142 q 281 123 282 126 l 270 113 q 273 65 269 88 q 277 18 277 42 q 271 -5 277 1 q 248 -7 266 -11 q 222 -14 235 -12 q 194 -20 209 -16 q 179 -17 187 -18 q 164 -14 171 -16 q 140 -20 153 -20 q 130 -20 134 -20 q 121 -18 126 -19 q 114 1 115 -9 q 110 20 113 11 q 106 85 110 53 q 100 151 102 118 q 101 163 100 157 q 102 175 102 168 q 100 185 102 180 q 99 197 99 190 q 101 222 99 210 q 103 247 103 235 q 102 275 103 262 q 100 301 100 288 q 101 322 100 312 q 102 343 102 332 q 101 362 102 353 q 99 382 100 372 q 101 397 100 385 q 102 422 102 408 q 102 450 102 437 q 102 468 102 464 l 102 572 q 100 609 102 591 q 98 646 98 627 q 100 685 98 666 q 103 724 103 704 l 103 795 q 102 830 103 812 q 102 865 102 848 q 102 887 102 876 q 103 909 103 898 q 102 923 103 911 q 101 947 102 935 q 99 971 100 960 q 98 985 98 982 q 102 1005 100 998 q 107 1017 104 1012 q 115 1027 110 1023 q 129 1040 119 1032 q 148 1035 136 1035 q 178 1032 168 1032 q 194 1025 187 1032 q 221 1021 209 1024 q 248 1017 233 1017 q 262 1008 255 1013 q 273 996 269 1002 l 273 979 q 275 949 273 964 q 277 918 277 933 q 276 898 277 907 q 275 878 275 888 q 283 865 282 875 q 292 854 283 856 q 298 846 294 849 q 308 838 302 844 q 345 823 324 836 q 381 804 366 811 q 407 791 393 798 q 433 776 420 784 q 457 760 445 769 q 483 746 469 751 q 515 727 496 731 q 548 712 533 723 q 571 698 560 705 q 593 684 582 690 q 604 673 597 677 q 616 662 610 669 q 637 648 632 651 q 646 639 643 644 q 674 620 655 632 q 697 595 693 608 l 697 587 m 483 560 q 436 591 460 575 q 385 617 412 606 q 364 631 381 623 q 340 640 347 640 q 315 654 328 652 q 298 658 305 654 q 289 663 290 662 q 285 649 286 652 q 282 643 283 646 q 283 633 282 639 q 283 624 283 628 q 283 562 283 593 q 282 502 282 532 l 279 430 q 281 415 279 423 q 282 400 282 407 q 281 387 282 393 q 279 373 279 381 q 283 338 279 355 q 293 347 290 340 q 301 357 296 353 q 359 417 332 385 q 414 480 387 449 q 456 522 439 506 q 483 560 473 537 z "},"þ":{"ha":690,"x_min":98,"x_max":697,"o":"m 697 587 q 692 576 692 583 q 686 563 692 568 q 694 543 692 555 q 673 515 689 526 q 659 498 669 505 q 646 481 650 492 q 634 471 636 475 q 629 463 632 467 q 581 416 604 435 q 540 373 559 396 q 500 334 515 361 q 478 313 488 324 q 457 293 468 302 q 449 284 454 288 q 441 274 444 281 q 416 255 426 267 q 392 235 406 243 l 382 221 q 371 212 378 218 q 356 199 363 206 q 342 184 349 191 q 335 174 336 178 q 324 165 332 172 q 307 151 316 159 q 290 134 297 142 q 281 123 282 126 l 270 113 q 273 65 269 88 q 277 18 277 42 q 271 -5 277 1 q 248 -7 266 -11 q 222 -14 235 -12 q 194 -20 209 -16 q 179 -17 187 -18 q 164 -14 171 -16 q 140 -20 153 -20 q 130 -20 134 -20 q 121 -18 126 -19 q 114 1 115 -9 q 110 20 113 11 q 106 85 110 53 q 100 151 102 118 q 101 163 100 157 q 102 175 102 168 q 100 185 102 180 q 99 197 99 190 q 101 222 99 210 q 103 247 103 235 q 102 275 103 262 q 100 301 100 288 q 101 322 100 312 q 102 343 102 332 q 101 362 102 353 q 99 382 100 372 q 101 397 100 385 q 102 422 102 408 q 102 450 102 437 q 102 468 102 464 l 102 572 q 100 609 102 591 q 98 646 98 627 q 100 685 98 666 q 103 724 103 704 l 103 795 q 102 830 103 812 q 102 865 102 848 q 102 887 102 876 q 103 909 103 898 q 102 923 103 911 q 101 947 102 935 q 99 971 100 960 q 98 985 98 982 q 102 1005 100 998 q 107 1017 104 1012 q 115 1027 110 1023 q 129 1040 119 1032 q 148 1035 136 1035 q 178 1032 168 1032 q 194 1025 187 1032 q 221 1021 209 1024 q 248 1017 233 1017 q 262 1008 255 1013 q 273 996 269 1002 l 273 979 q 275 949 273 964 q 277 918 277 933 q 276 898 277 907 q 275 878 275 888 q 283 865 282 875 q 292 854 283 856 q 298 846 294 849 q 308 838 302 844 q 345 823 324 836 q 381 804 366 811 q 407 791 393 798 q 433 776 420 784 q 457 760 445 769 q 483 746 469 751 q 515 727 496 731 q 548 712 533 723 q 571 698 560 705 q 593 684 582 690 q 604 673 597 677 q 616 662 610 669 q 637 648 632 651 q 646 639 643 644 q 674 620 655 632 q 697 595 693 608 l 697 587 m 483 560 q 436 591 460 575 q 385 617 412 606 q 364 631 381 623 q 340 640 347 640 q 315 654 328 652 q 298 658 305 654 q 289 663 290 662 q 285 649 286 652 q 282 643 283 646 q 283 633 282 639 q 283 624 283 628 q 283 562 283 593 q 282 502 282 532 l 279 430 q 281 415 279 423 q 282 400 282 407 q 281 387 282 393 q 279 373 279 381 q 283 338 279 355 q 293 347 290 340 q 301 357 296 353 q 359 417 332 385 q 414 480 387 449 q 456 522 439 506 q 483 560 473 537 z "},"Ž":{"ha":597,"x_min":7,"x_max":597,"o":"m 505 1035 q 517 1025 506 1031 q 532 1020 529 1020 q 554 1019 551 1023 q 562 1012 557 1016 q 570 1018 567 1015 q 581 1021 574 1021 q 589 1010 587 1017 q 595 996 591 1002 q 595 973 594 978 q 597 963 597 968 q 585 919 597 943 q 567 875 572 895 q 558 860 560 868 q 551 845 556 852 q 538 821 547 831 q 528 798 530 811 q 522 788 526 796 q 511 770 517 780 q 501 751 506 761 q 495 739 496 742 q 489 726 491 732 q 483 715 487 720 q 474 695 480 707 q 460 671 468 684 q 448 648 453 659 q 442 631 442 636 q 431 606 433 620 q 366 465 395 537 q 305 321 338 392 q 302 307 302 309 q 298 302 301 304 q 289 284 294 293 q 281 266 283 275 q 272 238 275 251 q 259 212 269 225 q 254 196 258 203 q 251 180 250 189 q 264 176 255 176 q 278 175 273 175 q 294 176 286 175 q 311 176 302 176 q 326 176 319 176 q 339 175 332 175 l 373 175 q 383 174 378 175 q 392 174 388 174 q 424 175 407 174 q 457 176 441 176 q 477 177 467 176 q 499 175 488 178 q 505 171 503 174 q 514 171 507 168 q 529 156 526 159 q 534 151 532 153 q 535 142 534 145 q 536 134 536 138 q 538 114 536 119 q 533 96 530 102 l 526 81 q 524 67 526 75 q 524 53 521 60 q 515 29 517 42 q 506 5 513 16 q 484 2 495 1 q 463 0 473 3 q 444 3 456 3 q 422 1 433 3 q 401 0 412 0 q 393 1 397 0 q 385 1 389 1 q 370 0 370 -1 q 366 1 369 1 q 336 1 351 1 q 307 0 321 0 q 297 -1 301 0 q 289 -3 293 -3 q 281 -1 285 -3 q 273 0 277 0 q 258 -1 266 0 q 241 -3 250 -3 q 233 -2 237 -3 q 225 -1 229 -1 q 212 -4 218 -1 q 197 -4 205 -7 l 178 -7 q 135 -9 156 -7 q 92 -12 114 -12 q 76 -11 80 -12 q 60 -4 69 -5 q 42 1 50 -3 q 33 18 41 12 q 18 30 24 23 q 15 50 19 46 q 7 79 16 72 q 16 102 8 91 q 26 125 24 113 q 39 141 37 136 q 42 153 42 146 q 58 177 50 163 q 72 208 65 191 q 84 239 79 224 q 94 267 90 255 q 110 298 104 282 q 122 331 115 315 q 136 359 133 350 q 146 374 140 368 q 154 395 148 380 q 167 429 160 411 q 181 460 174 446 q 191 479 189 475 q 197 492 193 486 q 201 506 201 499 q 222 549 214 524 q 240 594 231 575 q 260 634 250 614 q 282 674 271 654 q 366 838 324 755 q 355 845 363 845 q 340 849 346 845 q 320 848 330 846 q 300 849 311 849 q 257 854 274 854 q 224 853 240 853 q 207 854 216 853 q 190 856 198 856 q 149 853 170 856 q 109 846 127 850 q 83 849 96 849 q 60 852 71 849 q 57 875 54 872 q 51 882 54 879 q 45 890 47 886 q 43 905 46 902 q 37 916 39 909 q 36 934 37 925 q 38 952 35 943 q 31 961 35 958 q 24 968 27 964 q 25 980 26 975 q 26 990 24 985 q 43 1000 34 997 q 58 1012 53 1004 q 94 1019 76 1017 q 130 1020 113 1020 q 166 1019 149 1020 q 199 1017 183 1019 q 222 1014 212 1017 q 243 1009 232 1010 q 256 1008 250 1008 q 270 1009 263 1009 q 317 1008 293 1009 q 363 1008 340 1008 q 399 1008 382 1008 q 431 1010 415 1008 q 439 1021 437 1016 q 445 1032 442 1027 q 461 1031 457 1032 q 468 1031 465 1031 l 484 1024 q 496 1026 490 1024 q 505 1035 503 1028 m 165 1190 q 158 1206 161 1200 q 153 1217 155 1213 q 150 1229 151 1222 q 149 1248 149 1236 q 151 1272 149 1257 q 159 1293 152 1286 q 173 1295 167 1293 q 186 1301 179 1298 q 214 1286 201 1295 q 241 1272 227 1276 q 251 1259 248 1265 q 266 1252 254 1253 q 287 1230 277 1241 q 308 1206 297 1218 q 327 1197 319 1203 q 346 1188 335 1191 q 387 1222 362 1202 q 430 1252 411 1242 q 440 1263 434 1259 q 449 1275 446 1268 q 463 1286 456 1278 q 473 1299 469 1294 q 500 1311 488 1302 q 528 1322 513 1320 q 545 1299 545 1318 q 568 1283 556 1287 q 569 1257 571 1272 q 570 1236 567 1241 q 557 1222 563 1229 q 544 1207 551 1215 q 539 1201 541 1204 q 534 1195 537 1198 q 465 1137 503 1164 q 391 1081 426 1109 q 376 1078 384 1078 q 359 1076 368 1077 q 327 1090 345 1081 q 298 1104 309 1099 q 264 1125 281 1112 q 233 1149 248 1138 q 199 1168 217 1160 q 165 1190 182 1177 z "},"ž":{"ha":597,"x_min":7,"x_max":597,"o":"m 505 1035 q 517 1025 506 1031 q 532 1020 529 1020 q 554 1019 551 1023 q 562 1012 557 1016 q 570 1018 567 1015 q 581 1021 574 1021 q 589 1010 587 1017 q 595 996 591 1002 q 595 973 594 978 q 597 963 597 968 q 585 919 597 943 q 567 875 572 895 q 558 860 560 868 q 551 845 556 852 q 538 821 547 831 q 528 798 530 811 q 522 788 526 796 q 511 770 517 780 q 501 751 506 761 q 495 739 496 742 q 489 726 491 732 q 483 715 487 720 q 474 695 480 707 q 460 671 468 684 q 448 648 453 659 q 442 631 442 636 q 431 606 433 620 q 366 465 395 537 q 305 321 338 392 q 302 307 302 309 q 298 302 301 304 q 289 284 294 293 q 281 266 283 275 q 272 238 275 251 q 259 212 269 225 q 254 196 258 203 q 251 180 250 189 q 264 176 255 176 q 278 175 273 175 q 294 176 286 175 q 311 176 302 176 q 326 176 319 176 q 339 175 332 175 l 373 175 q 383 174 378 175 q 392 174 388 174 q 424 175 407 174 q 457 176 441 176 q 477 177 467 176 q 499 175 488 178 q 505 171 503 174 q 514 171 507 168 q 529 156 526 159 q 534 151 532 153 q 535 142 534 145 q 536 134 536 138 q 538 114 536 119 q 533 96 530 102 l 526 81 q 524 67 526 75 q 524 53 521 60 q 515 29 517 42 q 506 5 513 16 q 484 2 495 1 q 463 0 473 3 q 444 3 456 3 q 422 1 433 3 q 401 0 412 0 q 393 1 397 0 q 385 1 389 1 q 370 0 370 -1 q 366 1 369 1 q 336 1 351 1 q 307 0 321 0 q 297 -1 301 0 q 289 -3 293 -3 q 281 -1 285 -3 q 273 0 277 0 q 258 -1 266 0 q 241 -3 250 -3 q 233 -2 237 -3 q 225 -1 229 -1 q 212 -4 218 -1 q 197 -4 205 -7 l 178 -7 q 135 -9 156 -7 q 92 -12 114 -12 q 76 -11 80 -12 q 60 -4 69 -5 q 42 1 50 -3 q 33 18 41 12 q 18 30 24 23 q 15 50 19 46 q 7 79 16 72 q 16 102 8 91 q 26 125 24 113 q 39 141 37 136 q 42 153 42 146 q 58 177 50 163 q 72 208 65 191 q 84 239 79 224 q 94 267 90 255 q 110 298 104 282 q 122 331 115 315 q 136 359 133 350 q 146 374 140 368 q 154 395 148 380 q 167 429 160 411 q 181 460 174 446 q 191 479 189 475 q 197 492 193 486 q 201 506 201 499 q 222 549 214 524 q 240 594 231 575 q 260 634 250 614 q 282 674 271 654 q 366 838 324 755 q 355 845 363 845 q 340 849 346 845 q 320 848 330 846 q 300 849 311 849 q 257 854 274 854 q 224 853 240 853 q 207 854 216 853 q 190 856 198 856 q 149 853 170 856 q 109 846 127 850 q 83 849 96 849 q 60 852 71 849 q 57 875 54 872 q 51 882 54 879 q 45 890 47 886 q 43 905 46 902 q 37 916 39 909 q 36 934 37 925 q 38 952 35 943 q 31 961 35 958 q 24 968 27 964 q 25 980 26 975 q 26 990 24 985 q 43 1000 34 997 q 58 1012 53 1004 q 94 1019 76 1017 q 130 1020 113 1020 q 166 1019 149 1020 q 199 1017 183 1019 q 222 1014 212 1017 q 243 1009 232 1010 q 256 1008 250 1008 q 270 1009 263 1009 q 317 1008 293 1009 q 363 1008 340 1008 q 399 1008 382 1008 q 431 1010 415 1008 q 439 1021 437 1016 q 445 1032 442 1027 q 461 1031 457 1032 q 468 1031 465 1031 l 484 1024 q 496 1026 490 1024 q 505 1035 503 1028 m 167 1202 q 159 1219 163 1213 q 154 1230 156 1225 q 151 1241 152 1234 q 151 1260 151 1248 q 152 1284 151 1270 q 160 1305 153 1298 q 174 1308 168 1305 q 187 1313 180 1310 q 215 1298 202 1308 q 243 1284 228 1289 q 252 1272 250 1278 q 267 1264 255 1265 q 288 1242 278 1253 q 309 1218 298 1230 q 328 1209 320 1215 q 347 1200 336 1203 q 388 1234 363 1214 q 431 1264 412 1255 q 441 1276 435 1271 q 450 1287 448 1280 q 464 1298 457 1290 q 475 1312 471 1306 q 502 1323 490 1314 q 529 1335 514 1332 q 547 1312 547 1331 q 570 1295 557 1299 q 570 1269 572 1284 q 571 1248 568 1253 q 558 1234 564 1241 q 545 1219 552 1227 q 541 1213 543 1217 q 536 1207 538 1210 q 466 1149 505 1176 q 392 1093 427 1122 q 377 1090 385 1090 q 361 1088 369 1089 q 328 1102 346 1093 q 300 1116 311 1111 q 266 1137 282 1124 q 235 1161 250 1150 q 201 1181 218 1172 q 167 1202 183 1190 z "},"½":{"ha":1082,"x_min":20,"x_max":1012,"o":"m 686 943 q 686 926 686 936 q 684 909 686 917 q 676 887 681 901 q 666 859 671 873 q 655 831 661 845 q 646 810 650 818 q 631 774 637 792 q 618 739 625 755 q 611 726 616 732 q 604 712 606 719 q 593 684 597 699 q 583 654 589 669 q 552 571 568 612 q 522 487 536 530 q 481 375 503 430 q 442 263 460 320 q 437 255 439 259 q 433 247 435 251 q 418 204 430 237 q 391 133 406 171 q 364 62 377 95 q 346 22 351 30 q 336 29 339 23 q 327 39 332 35 q 308 31 319 39 q 289 37 300 38 q 273 49 278 37 q 262 47 267 49 q 252 46 258 46 q 245 54 245 50 q 244 62 244 58 q 245 75 244 69 q 247 85 247 80 q 246 94 247 90 q 245 100 245 98 q 254 134 247 114 q 270 176 260 153 q 288 218 279 198 q 301 251 297 239 q 341 357 321 305 q 381 461 361 410 q 412 550 397 505 q 444 639 426 595 q 451 655 448 647 q 454 674 454 663 q 473 714 465 693 q 487 755 480 735 q 503 797 495 777 q 519 836 510 817 q 545 895 532 865 q 568 956 557 925 l 583 1000 q 609 990 600 1000 q 624 990 618 990 q 644 978 637 990 q 664 975 665 982 q 671 968 663 968 q 685 960 684 972 q 686 943 686 947 m 247 373 q 215 378 225 380 q 194 373 205 377 q 179 377 180 378 q 167 384 170 387 q 157 381 164 381 l 144 396 q 144 406 144 400 q 142 415 145 411 q 146 459 146 437 q 146 505 146 481 q 144 528 146 515 q 142 552 142 540 q 142 631 142 591 q 141 712 141 671 q 142 734 141 723 q 144 755 144 745 q 144 811 144 784 q 146 867 144 838 q 126 859 127 864 q 113 851 119 856 q 100 844 107 846 q 74 860 81 856 q 60 867 66 864 q 51 878 57 873 q 42 890 45 883 q 28 899 35 892 q 20 911 20 905 q 26 923 20 918 q 33 936 33 928 q 60 972 46 955 q 90 1009 75 990 q 102 1021 96 1016 q 113 1034 107 1027 q 148 1046 133 1039 q 152 1062 148 1054 q 167 1059 163 1063 q 166 1050 167 1054 q 168 1043 165 1046 q 186 1053 183 1048 q 191 1061 189 1057 q 209 1062 202 1062 q 222 1059 224 1057 q 227 1061 221 1061 q 237 1058 233 1061 q 248 1055 241 1055 q 264 968 263 1009 q 264 887 264 928 q 263 837 264 863 q 262 785 262 811 q 262 767 262 776 q 263 749 263 758 q 264 701 263 724 q 264 654 264 677 q 265 628 264 640 q 266 602 266 616 q 264 573 266 587 q 264 544 263 559 q 266 529 264 537 q 267 514 267 521 q 267 477 267 495 q 266 441 266 460 l 266 400 q 253 382 254 387 q 248 373 252 377 l 247 373 m 1008 98 q 1009 90 1008 94 q 1012 81 1010 87 q 1010 63 1010 75 q 1004 45 1009 52 q 999 24 1002 34 q 994 3 996 14 q 988 -3 991 -1 q 981 -7 985 -4 q 962 -8 971 -7 q 943 -9 954 -9 q 930 -7 936 -9 q 917 -5 924 -5 q 899 -6 909 -5 q 882 -4 890 -7 q 869 -3 875 -4 q 857 -3 864 -3 q 814 -1 834 -3 q 770 1 793 1 q 753 1 758 0 q 742 1 747 1 q 722 0 731 1 q 703 -1 712 -1 q 644 -5 673 -1 q 633 0 639 -3 q 627 11 627 3 q 628 24 627 18 q 629 38 629 31 q 629 66 629 54 q 629 83 629 77 q 629 96 627 92 q 632 102 631 99 q 635 121 631 111 q 650 130 639 130 q 661 143 652 133 q 671 155 670 153 q 686 180 678 171 q 700 199 693 190 q 717 230 709 214 q 735 259 724 245 q 749 279 742 270 q 764 298 757 289 q 812 367 787 334 q 856 437 837 400 q 841 455 850 448 q 825 471 831 463 q 747 551 789 514 q 671 632 705 589 q 667 644 671 639 q 662 651 662 648 q 669 664 666 662 q 675 670 673 666 q 680 679 678 674 q 684 689 681 684 q 688 696 686 692 q 692 703 689 700 q 694 711 692 705 q 699 716 696 716 q 717 734 705 723 q 735 749 728 746 q 751 738 742 739 q 830 652 793 700 q 848 637 838 644 q 867 621 859 629 q 878 609 873 616 q 888 595 883 602 q 932 552 909 575 q 972 507 956 529 q 981 492 978 500 q 987 477 983 484 q 1004 458 1001 465 q 985 408 998 437 q 954 350 971 380 q 917 293 936 320 q 884 248 898 266 q 859 210 869 229 q 833 171 848 190 l 823 155 q 814 139 821 145 q 808 123 808 133 q 804 115 804 119 q 802 109 803 111 q 837 104 819 104 q 888 108 867 107 q 930 109 909 109 q 950 106 943 106 q 966 109 958 107 q 981 111 974 110 q 993 113 989 113 l 1008 98 z "},"¼":{"ha":1059,"x_min":27,"x_max":1004,"o":"m 685 932 q 681 898 685 914 q 673 876 678 890 q 663 848 669 863 q 652 821 658 834 q 643 799 647 807 q 629 762 635 780 q 616 728 624 745 q 608 714 613 720 q 601 701 604 708 q 591 673 594 688 q 582 643 587 658 q 551 560 567 601 q 519 476 534 519 q 479 364 502 419 q 439 251 457 309 q 430 236 435 247 q 415 193 427 227 q 389 122 403 160 q 361 52 374 84 q 345 11 349 19 q 334 18 336 12 q 324 27 331 23 q 307 19 315 27 q 286 25 297 26 q 270 38 275 24 q 260 37 264 38 q 251 35 255 35 q 241 52 241 41 q 243 63 241 58 q 245 75 245 68 q 244 81 245 77 q 243 90 243 84 q 251 123 244 103 q 267 165 258 142 q 286 208 277 187 q 298 240 294 228 q 338 345 319 292 q 378 450 358 399 q 409 539 395 494 q 442 628 423 585 q 448 644 445 636 q 453 662 452 652 q 471 702 464 681 q 484 745 477 723 q 500 785 492 765 q 517 825 507 806 q 543 884 530 854 q 566 944 555 914 l 581 989 q 605 979 598 987 q 621 979 616 979 q 643 967 633 979 q 661 964 662 971 q 669 958 661 958 q 684 949 682 962 q 685 932 685 936 m 1004 294 q 1001 278 1001 289 q 998 266 1000 267 q 997 262 997 264 q 982 212 982 231 q 975 202 979 206 q 967 193 971 198 q 941 194 944 193 q 918 191 930 191 q 895 187 905 191 q 895 165 895 176 q 894 142 894 153 q 897 108 894 125 q 899 73 899 91 q 899 37 899 57 q 891 1 898 18 q 882 -3 888 0 q 872 -5 875 -5 q 857 -12 863 -4 q 845 -12 845 -14 q 838 -9 845 -9 q 816 -21 822 -19 q 804 -23 810 -23 q 791 -29 792 -26 q 788 -33 789 -33 q 783 -27 785 -33 q 777 -19 781 -22 q 774 -3 777 -14 q 770 43 769 20 q 772 81 772 66 q 770 131 772 102 q 766 179 769 160 q 726 178 743 178 q 694 176 709 179 q 681 175 690 176 q 662 172 671 174 q 644 170 652 171 q 631 167 635 168 q 621 162 625 164 q 612 159 616 160 q 560 155 585 155 q 545 163 548 163 q 540 165 543 163 q 533 178 534 175 q 529 184 532 182 q 512 185 518 182 q 499 195 506 189 q 508 212 502 206 q 517 227 514 217 q 540 254 533 243 q 555 275 547 264 q 567 288 562 282 q 578 301 572 294 q 595 327 587 313 q 614 353 604 340 q 659 416 636 385 q 700 480 681 448 q 730 526 711 499 q 761 571 749 553 q 793 612 777 591 q 825 656 810 633 q 833 667 830 663 q 842 677 836 670 q 852 689 848 686 q 860 694 856 692 q 869 695 865 693 q 879 697 873 697 q 902 686 891 697 q 903 678 903 682 q 906 671 903 674 q 909 635 906 652 q 921 602 911 617 q 908 581 913 585 q 901 570 903 576 q 910 548 909 555 q 906 503 907 525 q 902 458 905 480 q 899 439 901 449 q 898 420 898 430 q 899 390 898 406 q 899 358 899 374 q 897 338 899 349 q 894 316 894 327 q 938 308 921 305 q 974 311 955 311 q 993 309 987 311 q 998 302 997 307 q 1004 294 1000 297 m 779 289 q 783 351 781 320 q 788 415 785 382 q 766 395 774 407 q 750 369 757 384 q 743 365 746 368 q 736 361 741 362 q 722 342 731 353 q 705 320 713 331 q 689 298 696 309 q 682 278 682 288 q 730 281 705 279 q 779 289 755 282 m 254 373 q 222 378 232 380 q 201 373 212 377 q 186 377 187 378 q 174 384 176 387 q 164 381 171 381 l 152 396 q 153 406 152 400 q 151 415 153 411 q 153 459 153 437 q 153 505 153 481 q 152 528 153 515 q 151 552 151 540 q 150 631 151 591 q 149 712 149 671 q 151 734 149 723 q 152 755 152 745 q 152 811 152 784 q 153 867 152 838 q 133 859 134 864 q 120 851 126 856 q 107 844 114 846 q 81 860 88 856 q 66 867 73 864 q 58 878 64 873 q 49 890 52 883 q 35 899 42 892 q 27 911 27 905 q 33 923 27 918 q 39 936 39 928 q 67 972 53 955 q 96 1009 81 990 q 109 1021 103 1016 q 119 1034 114 1027 q 155 1046 142 1039 q 159 1062 155 1054 q 174 1059 170 1063 q 173 1050 174 1054 q 175 1043 172 1046 q 193 1053 190 1048 q 198 1061 195 1057 q 216 1062 210 1062 q 229 1059 231 1057 q 233 1061 228 1061 q 244 1058 240 1061 q 255 1055 248 1055 q 271 968 270 1009 q 271 887 271 928 q 270 837 271 863 q 269 785 269 811 q 269 767 269 776 q 270 749 270 758 q 271 701 270 724 q 271 654 271 677 q 272 628 271 640 q 273 602 273 616 q 271 573 273 587 q 271 544 270 559 q 273 529 271 537 q 274 514 274 521 q 273 477 274 495 q 273 441 273 460 l 273 400 q 261 382 262 387 q 255 373 260 377 l 254 373 z "},"¹":{"ha":370,"x_min":27,"x_max":274,"o":"m 254 373 q 222 378 232 380 q 201 373 212 377 q 186 377 187 378 q 174 384 176 387 q 164 381 171 381 l 152 396 q 153 406 152 400 q 151 415 153 411 q 153 459 153 437 q 153 505 153 481 q 152 528 153 515 q 151 552 151 540 q 150 631 151 591 q 149 712 149 671 q 151 734 149 723 q 152 755 152 745 q 152 811 152 784 q 153 867 152 838 q 133 859 134 864 q 120 851 126 856 q 107 844 114 846 q 81 860 88 856 q 66 867 73 864 q 58 878 64 873 q 49 890 52 883 q 35 899 42 892 q 27 911 27 905 q 33 923 27 918 q 39 936 39 928 q 67 972 53 955 q 96 1009 81 990 q 109 1021 103 1016 q 119 1034 114 1027 q 155 1046 142 1039 q 159 1062 155 1054 q 174 1059 170 1063 q 173 1050 174 1054 q 175 1043 172 1046 q 193 1053 190 1048 q 198 1061 195 1057 q 216 1062 210 1062 q 229 1059 231 1057 q 233 1061 228 1061 q 244 1058 240 1061 q 255 1055 248 1055 q 271 968 270 1009 q 271 887 271 928 q 270 837 271 863 q 269 785 269 811 q 269 767 269 776 q 270 749 270 758 q 271 701 270 724 q 271 654 271 677 q 272 628 271 640 q 273 602 273 616 q 271 573 273 587 q 271 544 270 559 q 273 529 271 537 q 274 514 274 521 q 273 477 274 495 q 273 441 273 460 l 273 400 q 261 382 262 387 q 255 373 260 377 l 254 373 z "},"¾":{"ha":1104,"x_min":56,"x_max":1048,"o":"m 350 547 q 342 536 347 540 q 332 528 336 533 q 325 520 328 525 q 316 511 321 515 q 290 488 305 500 q 269 461 275 475 q 247 444 254 450 q 236 429 240 438 q 220 415 227 420 q 212 403 214 410 q 196 391 202 395 q 186 380 190 387 q 174 368 178 376 q 136 340 153 346 q 119 351 125 343 q 103 362 113 358 q 99 370 100 365 q 95 378 98 376 q 87 384 91 381 q 79 389 83 387 q 68 395 71 391 q 64 401 65 400 q 79 427 71 418 q 102 448 87 435 q 138 481 121 463 q 171 517 155 499 q 205 551 187 534 q 239 586 224 567 q 225 600 232 593 q 209 613 218 608 q 193 627 205 617 q 166 648 180 637 q 140 667 152 658 q 122 678 127 675 q 113 688 119 685 q 100 697 106 692 q 99 716 96 715 q 102 720 102 718 q 100 743 95 738 q 106 755 106 749 q 122 768 114 762 q 137 783 130 774 q 144 790 141 785 q 152 798 148 795 q 163 802 160 802 q 168 806 165 803 q 197 834 182 821 q 225 863 212 848 q 216 873 222 869 q 206 883 210 876 q 195 892 199 887 q 183 902 190 897 q 151 926 170 911 q 113 957 132 941 q 79 989 95 972 q 56 1019 64 1005 q 69 1038 66 1034 q 75 1048 72 1043 q 85 1059 81 1053 q 99 1067 88 1065 q 107 1085 104 1081 q 114 1092 110 1089 q 134 1085 121 1090 q 160 1059 145 1070 q 189 1036 175 1047 q 229 1004 208 1017 q 270 971 251 990 q 309 937 289 952 q 345 902 330 921 q 349 890 346 895 q 353 879 351 884 l 353 861 q 363 851 362 853 q 365 846 365 849 q 346 823 358 834 q 319 797 334 811 q 292 770 305 783 q 278 754 279 757 q 265 743 273 747 q 255 731 258 739 q 271 716 255 731 q 307 684 288 701 q 342 652 326 667 q 362 635 359 636 q 366 628 363 632 q 369 621 369 624 q 374 612 370 614 q 374 602 377 609 q 381 594 380 598 q 385 586 382 590 q 382 578 384 582 q 378 571 380 575 q 363 560 369 567 q 350 547 358 553 m 1048 294 q 1046 278 1046 289 q 1043 266 1044 267 q 1042 262 1042 264 q 1028 212 1028 233 q 1021 202 1025 206 q 1010 193 1016 198 q 986 194 990 193 q 962 191 975 191 q 940 187 949 191 q 939 165 940 176 q 939 142 939 153 q 941 108 939 125 q 943 73 943 91 q 943 37 943 57 q 936 1 943 18 q 926 -3 933 0 q 917 -5 920 -5 q 903 -12 906 -4 q 888 -12 888 -14 q 883 -9 888 -9 q 861 -21 867 -19 q 849 -23 854 -23 q 835 -29 836 -26 q 831 -33 834 -33 q 827 -27 829 -33 q 822 -19 825 -22 q 819 -3 822 -14 q 815 43 814 20 q 817 81 817 66 q 815 131 817 102 q 811 179 814 160 q 771 178 788 178 q 739 176 754 179 q 726 175 735 176 q 707 172 716 174 q 688 170 697 171 q 675 167 680 168 q 665 162 670 164 q 655 159 661 160 q 604 155 631 155 q 589 163 591 163 q 585 165 587 163 q 578 178 579 175 q 574 184 578 182 q 557 185 563 182 q 543 195 551 189 q 552 212 545 206 q 562 227 559 217 q 585 254 578 243 q 598 275 591 264 q 611 288 605 282 q 624 301 617 294 q 641 327 632 313 q 658 353 650 340 q 703 416 681 385 q 745 480 724 448 q 774 526 755 499 q 806 571 793 553 q 838 612 822 591 q 869 656 854 633 q 878 667 875 663 q 886 677 880 670 q 897 689 891 686 q 905 694 902 692 q 914 695 910 693 q 924 697 918 697 q 945 686 937 697 q 947 678 948 682 q 949 671 947 674 q 952 635 949 652 q 966 602 955 617 q 954 581 959 585 q 945 570 948 576 q 953 557 952 560 q 956 548 954 553 q 950 503 952 525 q 945 458 948 480 q 943 439 944 449 q 941 420 941 430 q 943 390 941 406 q 944 358 944 374 q 941 338 944 349 q 940 316 939 327 q 983 308 967 305 q 1019 311 1000 311 q 1039 309 1032 311 q 1044 302 1042 307 q 1048 294 1046 297 m 823 289 q 827 351 826 320 q 831 415 829 382 q 810 395 819 407 q 795 369 802 384 q 788 365 791 368 q 780 361 785 362 q 749 321 769 345 q 727 278 728 297 q 775 281 750 279 q 823 289 800 282 m 739 943 q 735 909 739 925 q 728 887 732 901 q 718 859 723 873 q 707 831 712 845 q 697 810 701 818 q 683 774 689 792 q 670 739 677 755 q 662 726 666 732 q 655 712 658 719 q 645 684 648 699 q 636 654 642 669 q 605 571 621 612 q 574 487 589 530 q 533 375 555 430 q 494 263 511 320 q 488 255 490 259 q 484 247 487 251 q 469 204 481 237 q 443 133 457 171 q 416 62 429 95 q 399 22 403 30 q 387 29 391 23 q 378 39 384 35 q 361 31 369 39 q 340 37 351 38 q 324 49 330 37 q 313 47 317 49 q 305 46 309 46 q 296 54 297 50 q 296 62 296 58 q 297 75 296 69 q 298 85 298 80 q 298 94 298 90 q 297 100 297 98 q 305 134 298 114 q 321 176 312 153 q 340 218 331 198 q 353 251 349 239 q 393 357 373 305 q 431 461 412 410 q 463 550 449 505 q 496 639 477 595 q 503 655 499 647 q 506 674 506 663 q 524 714 517 693 q 538 755 532 735 q 553 797 545 777 q 571 836 562 817 q 597 895 585 865 q 620 956 609 925 l 635 1000 q 659 990 652 998 q 675 990 670 990 q 697 978 688 990 q 715 975 716 982 q 722 968 715 968 q 738 960 736 972 q 739 943 739 947 z "},"³":{"ha":468,"x_min":69,"x_max":399,"o":"m 363 547 q 355 536 361 540 q 346 528 350 533 q 338 520 342 525 q 331 511 335 515 q 304 488 319 500 q 282 461 289 475 q 261 444 269 450 q 250 429 254 438 q 234 415 240 420 q 225 403 228 410 q 211 391 217 395 q 199 380 205 387 q 187 368 191 376 q 151 340 167 346 q 132 351 138 343 q 117 362 126 358 q 113 370 114 365 q 109 378 111 376 q 101 384 104 381 q 94 389 98 387 q 81 395 84 391 q 77 401 79 400 q 94 427 85 418 q 115 448 102 435 q 151 481 134 463 q 184 517 168 499 q 220 551 202 534 q 252 586 237 567 q 239 600 245 593 q 222 613 232 608 q 207 627 218 617 q 181 648 195 637 q 154 667 167 658 q 136 678 141 675 q 126 688 133 685 q 114 697 119 692 q 113 716 110 715 q 115 720 115 718 q 114 743 109 738 q 119 755 119 749 q 136 768 127 762 q 152 783 144 774 q 159 790 156 785 q 165 798 161 795 q 176 802 174 802 q 182 806 179 803 q 210 834 195 821 q 239 863 225 848 q 230 873 236 869 q 220 883 224 876 q 208 892 213 887 q 197 902 203 897 q 165 926 183 911 q 128 957 146 941 q 94 989 110 972 q 69 1019 77 1005 q 83 1038 80 1034 q 90 1048 87 1043 q 100 1059 96 1053 q 113 1067 103 1065 q 121 1085 118 1081 q 127 1092 123 1089 q 138 1089 133 1090 q 149 1085 142 1088 q 174 1059 160 1070 q 203 1036 189 1047 q 243 1004 222 1017 q 283 971 264 990 q 323 937 302 952 q 358 902 343 921 q 362 890 359 895 q 366 879 365 884 l 366 861 q 378 851 377 853 q 380 846 380 849 q 359 823 372 834 q 333 797 347 811 q 306 770 319 783 q 292 754 293 757 q 279 743 286 747 q 270 731 273 739 q 286 716 270 731 q 321 684 301 701 q 357 652 340 667 q 377 635 374 636 q 381 628 378 632 q 384 621 384 624 q 388 612 385 614 q 389 602 391 609 q 395 594 393 598 q 399 586 396 590 q 395 578 397 582 q 392 571 393 575 q 378 560 384 567 q 363 547 372 553 z "},"²":{"ha":471,"x_min":42,"x_max":429,"o":"m 423 445 q 429 429 425 438 q 425 410 426 422 q 419 392 425 399 q 415 371 418 381 q 410 350 412 361 q 404 345 407 346 q 396 340 400 343 q 378 339 387 340 q 359 338 369 338 q 347 340 353 338 q 334 342 340 342 q 315 341 324 342 q 298 343 307 340 q 286 344 292 343 q 273 345 279 345 q 230 347 251 345 q 186 349 209 349 q 170 348 175 347 q 157 349 164 349 q 137 347 146 349 q 118 346 127 346 q 60 342 90 346 q 48 347 54 345 q 42 358 42 350 q 43 372 42 365 q 45 385 45 378 q 45 413 45 401 q 45 430 45 425 q 44 443 42 439 q 47 449 46 446 q 50 468 46 458 q 66 477 54 477 q 77 490 68 480 q 85 502 85 500 q 102 528 95 518 q 115 547 109 537 q 132 577 125 562 q 151 606 140 593 q 165 627 157 617 q 179 646 172 636 q 228 714 202 681 q 273 784 254 747 q 258 802 267 795 q 241 818 248 810 q 163 899 206 861 q 88 979 121 936 q 81 991 85 986 q 77 998 77 996 q 85 1011 81 1009 q 91 1017 90 1013 q 99 1036 94 1023 q 103 1043 102 1039 q 107 1050 104 1047 q 110 1058 109 1053 q 114 1063 111 1063 q 132 1082 122 1070 q 151 1096 142 1093 q 167 1085 157 1086 q 209 1044 189 1066 q 247 1000 229 1023 q 264 984 254 991 q 282 968 274 977 q 294 956 289 963 q 305 943 298 949 q 348 899 324 922 q 389 854 372 876 q 396 840 393 848 q 403 825 399 831 q 419 806 416 811 q 400 755 414 784 q 369 697 387 727 q 333 640 351 667 q 300 595 315 613 q 274 557 285 576 q 248 518 263 537 q 239 502 243 503 q 230 486 236 492 q 224 471 224 480 q 220 463 221 467 q 218 456 218 458 q 252 452 235 452 q 303 455 282 454 q 346 456 324 456 q 366 454 359 453 q 381 456 373 454 q 397 458 389 457 q 408 460 404 460 q 416 453 412 457 q 423 445 419 449 z "},"¦":{"ha":365,"x_min":83,"x_max":269,"o":"m 110 1034 q 121 1031 117 1034 q 130 1028 125 1028 q 149 1031 141 1029 q 160 1027 157 1032 q 176 1025 175 1028 q 180 1021 178 1023 q 201 1021 197 1023 q 206 1017 205 1020 q 238 1018 227 1019 q 258 1008 250 1017 q 263 959 262 983 q 264 910 264 935 q 263 832 264 871 q 262 754 262 793 q 262 723 262 746 q 263 675 262 700 q 265 629 264 651 q 269 601 266 608 q 261 583 262 593 q 254 563 260 572 q 237 561 239 560 q 233 562 236 562 q 206 555 220 559 q 178 551 193 551 q 152 556 163 551 q 140 551 145 555 q 127 545 134 548 q 115 549 121 548 q 104 553 110 549 q 94 608 95 579 q 90 663 92 636 q 85 683 88 673 q 83 701 83 693 q 83 721 83 709 q 88 739 84 732 q 87 763 88 754 q 88 783 85 772 q 86 895 84 844 q 88 998 88 947 q 96 1017 88 1005 q 110 1034 104 1028 m 113 515 q 121 513 115 514 q 130 511 127 511 q 161 511 149 511 q 180 505 174 511 q 188 505 184 506 q 195 505 191 505 q 202 502 198 502 q 209 498 206 502 q 224 501 222 502 q 228 500 225 500 q 243 498 237 502 q 252 495 248 495 q 258 487 255 490 q 263 480 260 484 q 264 406 263 442 q 266 332 266 369 q 261 239 266 285 q 258 148 256 194 q 256 135 258 141 q 255 122 255 129 q 256 87 255 104 q 258 54 258 71 q 258 31 258 47 q 252 9 259 14 q 242 9 245 8 q 236 11 239 11 q 222 6 227 11 q 205 4 217 1 q 195 -1 199 3 q 187 -5 190 -5 q 169 -3 178 -5 q 151 -1 160 -1 q 142 -5 145 -1 q 133 -8 138 -8 q 120 -7 129 -8 q 107 -4 111 -7 q 102 10 104 3 q 92 22 99 18 q 84 71 85 46 q 83 119 83 96 q 85 191 83 155 q 88 262 88 227 q 87 368 88 315 q 84 475 85 422 q 89 485 88 479 q 92 496 90 491 q 102 506 96 502 q 113 515 107 510 z "},"−":{"ha":667,"x_min":42,"x_max":627,"o":"m 618 510 q 626 492 625 496 q 625 486 627 488 q 625 469 623 473 l 621 446 q 624 429 618 434 q 621 413 621 420 q 618 399 621 406 q 604 397 614 397 q 582 399 593 397 q 560 400 571 400 q 501 401 530 400 q 445 406 472 401 q 336 408 385 408 q 291 411 313 410 q 245 412 269 412 q 197 416 218 415 q 156 416 175 416 q 132 415 144 416 q 109 414 121 414 q 81 414 95 414 q 54 415 68 415 q 53 430 52 425 q 54 444 54 435 q 47 463 49 453 q 46 481 46 472 q 47 496 46 488 q 49 511 47 505 q 44 519 46 515 q 42 526 42 524 q 46 541 45 537 q 61 552 57 547 q 115 555 88 556 q 168 555 141 555 q 210 553 189 555 q 251 551 231 552 q 304 548 278 548 q 357 548 331 548 q 407 545 382 548 q 456 543 431 543 q 616 534 534 543 q 618 510 618 518 z "},"×":{"ha":620,"x_min":42,"x_max":578,"o":"m 525 377 q 551 358 534 365 q 578 340 568 351 q 562 308 567 319 q 545 290 556 297 q 530 285 538 288 q 519 275 522 282 q 506 267 509 271 q 488 259 503 262 q 484 248 486 252 q 477 239 483 243 q 464 243 469 239 q 454 252 458 247 q 447 263 450 258 q 439 270 444 269 l 426 278 q 402 298 418 285 q 370 326 387 312 q 336 352 353 340 q 311 366 320 363 q 290 363 298 369 q 278 350 282 357 q 258 331 264 338 q 189 252 221 294 q 177 245 183 252 q 164 231 171 239 q 151 214 157 222 q 138 203 144 206 q 123 222 130 217 q 107 229 115 227 q 96 252 100 244 q 80 267 91 260 q 72 277 77 274 q 64 286 66 279 q 47 288 52 285 q 42 294 42 290 q 70 328 52 313 q 99 354 88 342 q 105 364 102 359 q 113 374 109 369 q 123 392 121 381 q 143 409 133 401 q 159 430 153 416 q 178 450 170 439 q 197 469 187 460 q 184 484 190 479 q 171 498 178 490 q 155 514 163 506 q 137 530 148 522 l 125 543 q 107 552 118 544 q 86 573 99 564 q 66 594 73 582 q 57 609 68 598 q 46 627 46 620 l 62 633 q 86 655 76 650 q 106 667 96 661 q 129 685 125 682 q 137 701 133 688 q 172 679 152 696 q 212 642 191 662 q 255 602 233 621 q 296 570 277 582 q 317 585 308 576 q 338 600 327 594 q 370 635 353 618 q 401 671 388 652 q 432 693 418 678 q 456 708 446 708 q 467 699 458 708 q 480 688 475 690 l 488 667 q 509 640 500 654 q 530 617 517 627 l 533 593 q 513 580 528 587 q 496 568 499 572 q 490 562 492 564 q 483 556 488 559 q 463 530 475 541 q 441 506 452 518 q 420 487 426 492 q 408 472 414 481 q 429 454 418 461 q 448 438 439 448 q 480 414 467 420 q 525 377 500 391 z "}," ":{"ha":486,"x_min":0,"x_max":0,"o":""},"!":{"ha":359,"x_min":83,"x_max":290,"o":"m 90 633 q 87 663 90 648 q 85 692 85 677 q 90 842 85 768 q 95 993 94 917 q 109 1002 106 1002 q 115 1005 113 1002 q 123 1000 118 1002 q 132 998 129 998 q 140 1003 138 998 q 152 1008 141 1008 q 160 1006 156 1008 q 167 1001 164 1004 q 179 1002 176 1004 q 183 1006 182 1001 q 203 999 199 1004 q 209 994 206 994 q 223 998 221 1000 q 228 997 225 997 q 240 996 236 996 q 247 993 244 996 q 250 975 250 987 q 252 954 250 962 q 250 923 250 939 q 250 891 251 907 q 248 878 250 884 q 247 867 247 872 q 246 806 247 836 q 245 746 245 777 q 247 721 245 734 q 248 696 248 708 q 248 662 248 680 q 250 628 247 644 q 249 610 250 613 q 248 604 248 608 q 249 590 248 597 q 250 576 250 583 q 249 566 250 571 q 248 553 248 560 q 250 534 248 543 q 252 517 252 526 q 251 507 252 511 q 248 498 250 502 q 247 481 247 490 q 247 467 247 473 q 246 420 247 444 q 245 373 245 396 q 246 346 245 361 q 239 320 247 331 q 228 323 232 320 q 220 326 224 326 q 210 319 213 326 q 199 312 206 312 q 184 312 190 316 q 176 305 179 308 q 156 311 165 309 q 136 317 146 313 q 127 312 129 317 q 122 305 126 307 q 109 303 115 304 q 95 301 102 302 q 87 394 85 347 q 88 488 88 441 l 88 537 q 88 564 88 557 q 88 576 88 570 q 89 605 88 591 q 90 633 90 618 m 289 68 q 290 47 289 54 q 281 37 288 41 q 269 30 275 34 q 253 26 256 31 q 250 16 250 22 q 231 16 233 14 q 225 19 228 19 q 214 14 220 19 q 205 5 209 8 q 195 5 199 5 q 186 7 190 4 q 169 -7 175 -4 q 156 -11 163 -9 q 140 12 149 -4 q 125 31 130 27 q 104 79 114 54 q 83 126 95 103 q 92 142 84 137 q 110 146 100 146 q 121 156 118 149 q 130 163 123 163 q 152 171 140 170 q 171 180 164 172 q 197 180 187 176 q 210 187 206 184 l 228 186 q 242 162 232 179 q 262 127 252 145 q 281 92 273 109 q 289 68 289 76 z "},"\"":{"ha":368,"x_min":27,"x_max":340,"o":"m 235 1059 q 239 1053 237 1057 q 247 1048 241 1048 q 271 1053 267 1054 q 278 1043 275 1051 q 293 1043 285 1042 q 313 1035 311 1040 q 326 1031 323 1035 q 334 1025 330 1027 q 339 989 339 1008 q 339 952 339 971 q 340 917 339 935 q 340 880 340 899 q 340 844 340 863 q 339 807 339 826 q 332 796 331 802 q 330 788 334 791 q 328 772 328 780 q 324 757 327 765 q 317 759 321 757 q 309 761 313 761 q 294 774 301 776 q 279 773 286 773 q 267 778 271 773 q 256 783 263 783 q 247 800 252 795 q 241 793 244 798 q 236 789 239 789 q 226 798 231 793 q 221 804 221 802 l 224 821 q 222 932 222 883 q 222 986 222 959 q 220 1040 221 1013 q 225 1052 222 1044 q 235 1059 228 1059 m 133 1059 q 142 1052 140 1059 q 151 1040 145 1044 q 149 986 149 1013 q 148 932 148 959 q 148 883 148 907 q 151 833 148 859 l 149 818 q 143 798 148 802 q 136 791 138 793 q 126 793 129 789 q 121 800 123 798 q 114 783 114 793 q 102 778 106 783 q 91 773 99 773 q 75 774 81 773 q 61 769 68 776 q 52 759 56 761 q 45 757 49 757 q 43 772 43 765 q 41 788 42 780 q 37 796 37 791 q 35 804 38 802 q 28 844 30 826 q 27 880 27 863 q 29 917 27 899 q 31 952 31 935 q 31 989 31 971 q 35 1025 31 1008 q 43 1031 41 1027 q 52 1035 46 1035 l 71 1036 q 91 1043 83 1040 q 98 1053 94 1051 q 109 1057 102 1054 q 122 1048 117 1048 q 129 1053 126 1048 q 133 1059 132 1057 z "},"#":{"ha":857,"x_min":42,"x_max":815,"o":"m 812 719 q 815 703 812 713 q 808 669 810 682 q 805 641 807 655 q 801 614 803 627 q 795 595 799 601 q 770 595 783 594 q 743 596 757 595 q 716 598 728 597 q 700 601 704 600 q 680 601 689 601 q 661 600 671 601 q 649 562 651 578 q 646 529 647 545 q 636 460 643 494 q 629 392 629 427 l 629 373 q 652 372 640 372 q 674 372 663 372 q 703 372 689 372 q 732 377 718 373 q 760 372 743 372 q 766 354 765 368 q 766 334 766 340 q 764 319 766 327 q 762 304 762 312 q 753 259 762 282 q 751 243 754 250 q 745 227 747 236 q 697 215 724 213 q 648 212 670 217 q 620 216 633 216 q 598 213 612 216 q 583 132 587 174 q 560 53 578 90 q 558 40 560 46 q 553 27 556 34 q 513 18 534 18 q 504 27 507 22 q 498 37 500 33 q 484 30 490 35 q 468 31 475 34 q 450 27 454 34 q 445 43 445 38 q 448 68 445 56 q 452 96 452 81 q 449 111 452 100 q 457 159 453 134 q 463 208 461 183 q 454 220 458 214 q 442 225 450 225 q 420 227 429 225 q 400 228 411 228 q 368 230 381 231 q 343 231 354 229 q 326 185 332 212 q 316 130 320 159 q 309 74 312 102 q 301 24 305 46 q 291 26 294 23 q 282 30 288 30 q 272 33 279 31 q 254 35 264 34 q 235 37 244 37 q 222 39 227 38 q 208 35 216 35 q 183 42 197 35 q 184 71 183 61 q 186 92 186 81 q 195 171 190 138 q 206 239 201 203 q 178 237 186 240 q 161 235 170 235 q 127 233 144 235 q 92 232 110 232 q 53 240 66 241 q 50 266 50 255 l 49 251 q 45 271 47 262 q 42 290 42 279 q 44 305 42 297 q 46 321 46 313 q 43 349 47 340 q 44 357 43 353 q 45 363 45 361 q 75 373 62 374 q 104 374 88 372 q 141 381 125 381 q 151 380 146 381 q 159 380 155 380 q 171 381 165 381 q 182 381 176 381 q 198 380 193 381 q 215 387 212 385 q 228 395 218 388 q 235 440 231 418 q 243 486 239 463 q 255 536 248 509 q 262 586 262 564 q 256 602 262 593 q 244 613 251 610 l 228 621 q 208 617 213 616 q 197 620 202 618 q 177 615 193 617 q 155 613 161 613 q 142 615 148 613 q 130 617 137 617 q 123 621 127 620 q 117 624 119 621 q 104 634 103 631 q 106 642 106 637 q 100 663 106 654 q 101 673 102 669 q 100 680 100 677 q 99 709 98 700 q 100 728 100 718 q 98 740 100 734 q 95 750 95 746 q 110 764 106 762 q 124 763 122 762 q 129 764 126 764 q 183 765 156 761 q 237 769 210 769 q 248 768 243 769 q 258 769 252 766 q 275 769 269 769 q 296 770 289 769 q 309 801 307 787 q 315 829 312 815 q 327 895 320 861 q 340 960 334 928 q 343 970 342 963 q 347 986 345 978 q 351 1000 349 994 q 357 1006 354 1006 q 370 1000 361 1004 q 382 991 378 996 q 408 986 400 986 q 429 975 418 977 q 441 964 433 968 q 450 947 450 956 q 450 929 450 937 q 448 908 450 918 q 445 887 446 898 q 437 829 438 859 q 430 772 437 800 q 487 770 458 772 q 543 769 515 769 q 550 774 547 769 q 555 783 553 779 q 566 845 560 815 q 578 905 571 875 q 585 939 581 924 q 591 974 590 955 q 604 978 602 982 q 606 970 605 974 q 645 961 631 960 q 674 960 659 962 q 680 954 678 958 q 688 948 681 949 q 701 932 690 940 q 713 914 713 922 q 714 904 713 909 q 715 892 715 899 q 712 869 715 882 q 707 845 709 856 q 699 804 701 825 q 693 762 696 784 q 706 747 700 753 q 724 742 712 742 q 763 740 743 742 q 802 732 783 738 l 810 719 l 812 719 m 496 368 q 511 424 505 393 q 522 487 517 454 q 532 551 528 519 q 538 609 536 582 q 517 620 526 617 q 500 623 509 623 q 484 623 492 623 q 464 627 476 623 q 435 623 450 623 q 406 621 420 623 q 397 608 401 614 q 389 595 392 602 q 374 532 380 568 q 362 468 369 496 q 353 437 358 454 q 347 406 347 419 q 349 393 347 399 q 353 381 350 388 q 410 374 381 376 q 467 372 438 373 q 484 371 479 372 q 496 368 490 370 z "},"$":{"ha":456,"x_min":27,"x_max":414,"o":"m 366 456 q 389 436 382 452 q 395 406 395 420 q 392 377 395 391 q 386 347 389 363 q 379 317 382 331 q 374 297 376 302 q 358 281 368 285 q 338 270 349 277 q 316 254 327 263 q 294 243 305 244 q 296 227 297 231 q 296 204 297 212 q 294 190 294 197 q 295 120 292 152 q 298 56 298 88 q 273 47 283 47 q 258 49 266 47 q 243 50 250 50 q 227 52 235 50 q 212 54 220 53 q 198 64 198 61 q 193 73 198 66 l 190 142 l 190 187 q 160 169 175 176 q 130 151 145 161 q 118 152 125 152 q 106 156 111 152 q 96 171 100 170 q 90 175 92 172 q 87 182 87 178 q 84 190 87 187 q 68 203 68 198 q 66 213 68 209 q 60 230 58 225 q 58 240 61 235 q 136 292 94 270 q 217 338 178 313 q 233 347 224 343 q 248 358 241 351 q 258 380 258 368 q 173 458 210 423 q 94 524 136 492 q 84 533 87 526 q 79 544 81 540 q 72 551 76 549 q 65 556 68 553 q 60 566 62 560 q 54 575 58 572 q 41 581 49 581 q 27 586 34 581 q 43 631 31 613 q 54 671 56 650 q 110 718 85 696 q 161 760 134 741 q 155 767 155 765 q 151 773 155 769 l 149 845 q 149 868 149 854 q 148 896 148 882 q 149 924 148 910 q 151 947 149 937 q 157 956 156 952 q 159 961 157 959 q 163 964 160 963 q 176 967 167 966 q 191 962 184 964 q 217 958 201 962 q 237 947 233 954 q 248 945 243 945 q 255 941 252 945 q 254 926 255 932 q 254 905 255 913 q 252 890 252 898 q 252 858 251 871 q 252 830 252 845 q 265 845 258 836 q 281 864 273 854 q 297 881 289 873 q 312 888 305 888 q 323 883 316 888 q 338 871 330 878 q 355 859 346 864 q 373 853 365 853 q 394 847 385 853 q 414 836 403 841 q 399 786 414 811 q 362 755 385 761 q 334 729 347 738 q 309 709 321 720 q 298 699 302 704 q 286 689 293 694 q 267 673 282 685 q 234 649 251 662 q 203 625 217 636 q 190 609 190 613 q 200 602 190 605 q 213 595 210 598 q 245 568 228 585 q 278 536 263 551 q 323 497 300 515 q 366 456 347 479 z "},"%":{"ha":990,"x_min":12,"x_max":977,"o":"m 247 537 q 239 529 241 534 q 231 521 236 524 q 219 515 228 519 q 209 511 210 511 q 179 526 193 511 q 159 555 165 541 q 151 564 156 560 q 142 572 146 567 q 134 581 136 579 q 132 585 132 582 q 106 614 117 602 q 84 636 95 625 q 65 659 77 651 q 47 689 58 675 q 27 718 35 703 q 22 724 24 720 q 18 732 20 728 q 16 747 20 739 q 14 764 12 755 q 34 784 22 776 q 45 815 42 800 q 77 861 61 842 q 111 903 94 879 q 123 918 118 910 q 133 933 127 926 q 159 964 146 948 q 182 996 171 981 q 193 998 190 994 q 203 1005 197 1001 q 213 1002 209 1004 q 222 1000 217 1000 q 248 978 236 986 q 258 983 252 979 q 267 987 263 987 q 278 981 277 987 q 289 974 279 974 q 334 917 316 943 q 373 868 351 891 q 388 857 381 861 q 401 845 395 852 q 415 826 408 838 q 429 806 422 814 q 431 789 429 800 q 421 772 429 779 q 407 760 414 766 q 412 745 407 749 q 419 734 416 741 q 404 707 416 715 q 384 688 392 700 q 373 680 376 682 q 368 673 370 677 q 338 639 350 658 q 308 604 326 620 q 296 587 301 591 q 292 575 290 583 q 281 566 286 570 q 270 563 277 563 q 261 559 260 562 q 258 553 262 556 q 248 542 250 544 q 247 537 247 540 m 205 671 q 263 731 237 694 q 289 810 289 768 l 289 826 l 206 852 q 194 817 203 829 q 174 795 184 804 q 153 775 163 785 q 137 746 142 765 q 169 707 156 727 q 205 671 182 686 m 977 262 q 965 245 972 251 q 951 233 958 240 q 956 218 951 222 q 963 208 960 214 q 948 181 960 189 q 928 160 936 174 q 917 153 920 156 q 913 146 914 151 q 881 113 894 132 q 852 77 868 94 q 840 60 845 65 q 834 47 834 56 q 824 39 829 42 q 812 37 819 37 q 799 22 802 23 q 795 20 796 22 q 782 2 785 7 q 774 -5 779 -3 q 762 -11 772 -7 q 751 -15 753 -15 q 723 -1 736 -15 q 703 27 709 14 q 695 37 700 34 q 688 46 690 41 q 678 54 680 53 q 677 58 677 56 q 650 87 661 76 q 628 110 639 99 q 621 122 625 117 q 610 133 616 127 q 591 162 602 149 q 571 190 579 175 q 566 197 568 194 q 563 206 564 201 q 562 221 566 213 q 557 236 557 229 q 576 256 564 250 q 587 289 587 278 q 621 334 605 316 q 655 377 636 353 q 666 392 661 384 q 678 407 671 400 q 702 437 689 422 q 727 469 715 453 q 737 471 734 468 q 746 477 741 475 q 755 475 751 477 q 765 473 760 473 q 792 450 777 463 q 802 457 798 453 q 811 461 806 461 q 821 454 819 461 q 831 448 822 448 q 878 391 860 416 q 918 342 895 365 q 931 329 925 335 q 944 316 937 323 q 959 298 951 309 q 972 279 967 288 q 974 271 972 275 q 977 262 975 267 m 754 142 q 810 201 785 165 q 834 275 834 236 l 834 290 l 755 315 q 744 280 753 292 q 725 260 735 269 q 705 243 715 252 q 690 214 694 233 q 721 177 708 197 q 754 142 734 157 m 738 924 q 734 890 738 906 q 726 868 731 882 q 714 840 720 854 q 701 811 708 825 q 690 791 694 798 q 682 773 686 781 q 674 755 678 765 q 667 737 671 746 q 659 719 663 728 q 652 706 656 712 q 643 693 647 700 q 632 665 636 681 q 623 635 628 650 q 586 552 604 593 q 553 468 568 511 q 507 356 532 411 q 461 243 481 301 q 456 236 458 240 q 452 228 454 232 q 435 184 449 217 q 406 113 422 151 q 375 42 389 75 q 355 3 361 9 q 343 9 347 4 q 332 19 339 15 q 312 12 326 19 q 290 18 302 19 q 271 30 278 16 q 261 28 266 30 q 251 26 256 26 q 242 31 244 26 q 240 43 240 37 q 242 56 240 50 q 244 66 244 61 l 241 83 q 252 113 243 94 q 271 155 260 133 q 290 199 281 178 q 304 233 300 221 q 349 337 327 285 q 393 442 370 389 q 429 531 412 486 q 464 620 445 576 q 471 636 468 628 q 476 655 475 644 q 497 695 490 674 q 514 736 505 716 q 530 777 522 757 q 548 817 538 798 q 587 897 568 856 q 621 981 606 939 q 642 979 639 982 q 648 972 646 975 q 667 971 659 971 q 690 959 682 971 q 711 956 711 963 q 718 948 711 948 q 736 941 734 952 q 738 924 738 929 z "},"&":{"ha":545,"x_min":20,"x_max":511,"o":"m 298 894 q 325 910 312 899 q 351 932 338 921 q 377 951 363 943 q 407 960 391 960 q 425 952 418 960 q 444 940 433 944 q 461 925 457 929 q 494 900 486 913 q 509 876 502 887 q 504 859 511 863 q 491 845 496 854 q 475 837 481 842 q 464 825 469 831 q 445 813 453 821 q 426 799 437 806 q 414 794 419 799 q 403 788 410 789 q 392 774 397 777 q 377 768 387 772 q 364 759 370 765 q 351 749 358 753 q 335 739 346 745 q 311 723 324 732 q 290 704 298 713 q 279 699 283 703 q 267 693 274 694 q 258 682 263 686 q 247 673 252 678 q 253 662 251 666 q 263 655 255 658 q 299 629 279 640 q 335 600 319 617 q 359 584 350 591 q 380 570 369 576 q 401 555 391 563 q 418 540 411 548 q 424 519 423 522 q 425 513 425 515 q 421 500 423 500 q 420 495 419 499 q 404 470 411 476 q 391 456 396 464 q 300 403 346 434 q 287 392 293 397 q 274 381 281 387 q 263 375 269 378 q 254 369 258 372 q 233 353 243 361 q 213 338 224 345 q 234 307 221 313 q 256 290 247 301 q 273 281 266 286 q 290 273 281 275 q 307 256 297 262 q 328 245 317 251 q 340 235 334 239 q 351 224 346 231 q 386 203 368 217 q 422 178 404 189 q 458 155 441 167 q 494 132 475 142 q 500 121 495 125 q 510 114 505 118 q 507 99 510 102 q 502 94 505 96 q 495 71 496 75 q 492 64 494 66 q 485 60 490 61 q 471 60 480 60 q 463 41 465 54 q 445 30 449 35 q 438 24 441 24 q 426 26 431 24 q 415 27 420 27 q 401 35 401 35 q 397 34 400 34 q 390 36 393 34 q 381 39 387 38 q 367 50 378 42 q 341 66 355 58 q 315 81 327 75 q 301 88 304 88 q 300 71 302 76 q 298 62 298 66 q 300 41 298 52 q 302 19 302 30 q 294 -1 302 4 q 282 -11 289 -1 q 270 -23 275 -20 q 262 -21 266 -23 q 254 -19 258 -19 q 240 -20 248 -19 q 228 -24 232 -22 q 226 -16 225 -22 q 224 -8 227 -11 q 214 -12 217 -8 q 205 -18 210 -16 q 174 -18 180 -16 q 170 3 168 -1 q 171 12 171 8 q 170 98 170 61 q 171 174 170 136 q 113 230 141 201 q 53 282 85 259 q 45 292 50 289 q 35 301 39 296 q 31 311 33 305 q 26 323 30 317 q 31 331 27 328 q 38 338 35 334 q 28 347 35 345 q 20 355 22 349 q 30 364 23 363 q 35 378 37 365 q 74 401 54 389 q 110 429 94 414 q 134 445 125 435 q 157 464 142 454 q 195 488 175 476 q 231 514 214 499 q 216 530 225 526 q 195 541 206 534 q 185 551 190 545 q 174 563 180 557 q 142 591 159 576 q 111 621 126 605 q 92 635 103 628 q 76 654 80 643 q 56 681 64 673 q 55 692 54 688 q 53 704 56 697 q 62 713 56 711 q 75 718 68 715 q 76 726 73 726 q 76 734 79 727 q 121 772 96 754 q 170 807 145 789 q 170 848 171 829 q 168 884 168 867 q 169 951 168 916 q 176 1019 170 987 q 184 1025 180 1021 q 193 1032 187 1029 q 212 1025 202 1032 q 222 1033 217 1029 q 233 1036 227 1036 q 245 1034 240 1036 q 258 1031 251 1032 q 264 1037 262 1034 q 269 1043 266 1040 q 273 1030 274 1034 q 273 1023 273 1027 q 289 1015 286 1021 q 294 1001 292 1009 q 296 985 296 993 q 297 975 297 978 q 296 953 297 964 q 296 930 296 941 q 296 912 296 921 q 298 894 297 903 z "},"'":{"ha":262,"x_min":69,"x_max":191,"o":"m 85 1059 q 91 1053 88 1057 q 98 1048 94 1048 q 111 1057 103 1048 q 122 1053 118 1054 q 129 1043 126 1051 q 145 1040 144 1042 q 149 1036 146 1038 q 161 1040 159 1040 q 164 1035 163 1039 q 176 1031 174 1035 q 184 1025 179 1027 q 189 989 189 1008 q 189 952 189 971 q 190 917 189 935 q 191 880 191 899 q 191 844 191 863 q 189 807 190 826 q 182 796 182 802 q 179 788 183 791 q 177 772 178 780 q 175 757 176 765 q 160 765 160 764 q 159 769 160 766 q 144 774 152 776 q 129 773 137 773 q 117 778 121 773 q 107 783 114 783 q 99 800 106 793 q 94 793 96 798 q 85 789 91 789 q 76 798 80 793 q 72 804 72 802 l 73 821 q 72 883 72 859 q 72 932 72 907 q 71 986 72 959 q 69 1040 71 1013 q 76 1052 73 1044 q 85 1059 79 1059 z "},"(":{"ha":560,"x_min":98,"x_max":560,"o":"m 456 1005 q 478 1008 471 1008 q 490 1002 486 1009 q 517 995 506 1005 q 540 983 529 985 q 559 964 551 975 q 555 941 560 954 q 545 915 551 929 q 532 888 538 901 q 522 869 525 875 q 507 847 515 857 q 495 822 499 837 q 473 783 481 803 q 453 745 464 764 q 444 730 449 738 q 435 713 439 722 q 413 669 423 692 q 392 625 403 647 q 387 611 389 618 q 381 597 384 604 q 366 568 374 582 q 351 540 358 555 q 317 469 335 505 q 281 399 300 434 q 274 379 278 388 q 267 361 270 370 q 315 270 288 313 q 368 182 343 227 q 416 86 395 134 q 461 -9 438 38 q 469 -30 467 -24 q 475 -41 472 -35 q 490 -72 479 -57 q 507 -114 496 -95 q 524 -156 517 -133 q 515 -170 519 -163 q 506 -184 510 -178 q 490 -198 496 -190 q 477 -213 484 -206 q 456 -210 457 -213 q 450 -218 453 -210 q 445 -228 448 -225 q 430 -236 434 -229 q 419 -248 426 -243 q 399 -241 404 -250 q 384 -231 393 -233 q 366 -199 376 -216 q 350 -171 357 -183 q 340 -146 346 -161 q 327 -115 334 -130 q 313 -86 320 -100 q 301 -64 307 -72 q 298 -53 300 -58 q 293 -42 296 -47 q 273 0 278 -15 q 262 30 269 15 q 254 40 259 34 q 244 49 248 46 q 218 106 233 79 q 187 161 202 133 q 174 189 180 175 q 161 217 168 202 q 152 231 157 224 q 141 247 146 239 q 126 281 133 264 q 109 313 119 298 q 103 331 106 330 q 99 335 100 332 l 99 350 q 99 361 99 357 q 98 373 99 366 q 121 414 114 393 q 132 446 127 434 q 139 463 134 454 q 149 477 144 471 q 163 511 156 495 q 178 544 171 528 q 193 576 184 560 q 210 609 201 591 q 216 625 213 616 q 224 642 220 633 q 229 652 227 647 q 235 663 232 656 q 248 696 241 680 q 266 728 255 713 q 279 758 271 743 q 293 788 286 773 q 297 799 296 793 q 301 808 298 804 q 315 831 308 819 q 328 854 321 842 q 342 883 336 868 q 355 913 349 898 q 364 927 359 920 q 373 941 369 935 q 412 1020 396 979 q 420 1027 418 1023 q 429 1036 423 1032 q 444 1028 435 1034 q 448 1015 446 1021 q 456 1005 450 1009 z "},")":{"ha":560,"x_min":0,"x_max":461,"o":"m 103 1005 q 115 1028 113 1013 q 123 1032 119 1031 q 130 1036 126 1034 q 138 1027 134 1032 q 148 1020 141 1023 q 164 979 155 998 q 184 941 174 960 q 194 927 189 935 q 203 913 199 920 q 218 883 212 898 q 231 854 224 868 q 244 831 237 842 q 256 808 251 819 q 262 799 260 804 q 266 788 263 793 q 281 758 273 773 q 293 728 289 743 q 310 696 304 713 q 324 663 316 680 q 330 652 327 656 q 336 642 334 647 q 343 625 340 633 q 350 609 346 616 q 365 576 357 591 q 382 544 373 560 q 397 511 389 528 q 411 477 404 495 q 418 463 414 471 q 426 446 423 454 q 439 414 431 434 q 453 384 446 393 q 461 361 461 366 q 461 350 461 357 l 461 335 l 450 313 q 433 281 441 298 q 416 247 425 264 q 407 231 412 239 q 399 217 401 224 q 386 189 392 202 q 372 161 380 175 q 341 106 357 133 q 313 49 326 79 q 304 40 309 46 q 297 30 300 34 q 286 0 290 15 q 275 -30 282 -15 q 262 -53 264 -47 q 258 -64 259 -58 q 245 -86 252 -72 q 233 -115 239 -100 q 220 -146 227 -130 q 210 -171 214 -161 q 193 -199 203 -183 q 176 -231 183 -216 q 160 -241 165 -233 q 142 -248 155 -250 q 129 -236 133 -243 q 114 -228 125 -229 q 110 -218 113 -225 q 104 -212 107 -210 l 81 -213 q 68 -198 75 -206 q 54 -184 62 -190 q 45 -170 50 -178 q 37 -156 39 -163 q 52 -114 42 -133 q 68 -72 61 -95 q 83 -41 77 -60 q 95 -19 90 -33 q 142 86 121 38 q 190 182 164 134 q 244 270 217 227 q 293 361 271 313 q 286 379 290 370 q 279 399 281 388 q 242 469 259 434 q 208 540 225 505 q 192 568 199 555 q 178 597 184 582 q 172 611 175 604 q 167 625 170 618 q 146 669 157 647 q 125 713 136 692 q 116 730 121 722 q 107 745 111 738 q 86 783 96 764 q 64 822 76 803 q 52 847 60 837 q 38 869 45 857 q 28 888 35 875 q 16 915 22 901 q 5 941 9 929 q 0 960 0 954 q 9 975 5 970 q 18 983 12 979 q 41 995 28 985 q 61 1005 54 1005 q 81 1008 72 1009 q 94 1015 90 1008 l 103 1005 z "},"*":{"ha":574,"x_min":0,"x_max":575,"o":"m 345 815 q 355 826 350 821 q 365 838 359 831 q 372 848 366 842 q 381 857 378 854 q 403 878 392 864 q 425 905 414 891 q 448 932 437 920 q 469 952 458 945 q 486 948 477 944 q 503 935 499 937 q 510 928 507 932 l 518 910 q 530 895 530 907 q 547 877 543 884 q 551 863 551 869 q 523 838 534 846 q 502 823 511 830 q 492 814 495 818 q 483 808 488 811 q 458 780 463 789 q 429 757 444 770 q 401 731 415 743 q 437 707 423 715 q 463 688 450 699 q 482 674 469 682 q 510 657 495 666 q 539 641 525 648 q 562 631 553 633 q 574 620 570 623 q 572 608 575 612 q 570 597 568 604 q 566 579 566 589 q 558 573 562 576 q 551 568 555 570 q 540 557 543 560 q 532 541 541 545 q 528 530 533 532 q 521 524 524 528 q 478 544 494 533 q 446 564 463 555 q 439 572 444 570 q 429 579 434 575 q 394 602 411 586 q 359 625 377 618 q 354 612 354 618 q 354 598 354 605 q 349 583 351 590 q 347 568 347 576 q 349 524 347 545 q 351 479 351 502 q 351 465 351 472 q 349 452 351 458 q 333 448 335 446 q 324 446 331 449 q 308 442 315 452 q 300 445 305 444 q 292 446 294 446 q 271 444 277 445 q 263 449 266 444 q 244 443 247 444 q 239 442 241 442 q 232 452 232 446 q 232 465 232 458 q 227 480 227 473 q 227 490 227 487 q 231 550 227 521 q 236 609 236 579 q 235 617 236 613 q 235 625 235 621 q 201 601 213 614 q 174 575 190 587 q 148 551 163 567 q 122 532 133 536 q 110 545 115 534 q 101 547 104 545 q 95 548 98 548 q 84 561 90 559 q 75 566 79 563 q 68 575 72 571 q 61 585 64 579 q 45 589 49 583 q 42 602 42 595 q 49 617 42 613 q 78 648 57 637 q 113 674 99 658 q 119 677 117 674 q 126 681 122 680 q 135 686 127 681 q 151 697 142 692 q 168 708 160 703 q 178 713 176 713 q 153 739 167 731 q 122 755 138 747 q 90 772 106 764 q 65 784 75 780 q 50 791 58 788 q 37 799 42 795 q 21 810 28 804 q 7 823 14 817 q 6 850 0 844 q 20 854 12 856 q 28 873 22 856 q 50 895 35 890 q 65 922 56 916 q 83 918 80 920 q 90 916 85 917 q 115 897 104 906 q 130 883 125 887 q 153 864 140 875 q 181 842 167 853 q 209 820 195 830 q 233 806 222 810 l 233 826 q 231 888 233 857 q 228 951 228 920 q 227 962 228 958 q 225 972 225 967 l 227 990 q 232 1002 229 996 q 240 1010 235 1008 q 256 998 250 1006 q 264 1004 260 1001 q 271 1005 267 1008 q 286 1005 285 1010 q 302 1013 300 1009 q 307 1017 304 1016 q 323 1013 320 1009 q 330 1017 326 1017 q 341 1000 338 1006 q 345 983 345 993 q 346 976 346 981 q 346 968 346 971 q 344 906 346 937 q 342 844 342 875 q 342 828 342 838 q 345 815 342 818 z "},"+":{"ha":663,"x_min":27,"x_max":623,"o":"m 623 505 q 618 492 617 494 q 618 487 618 490 q 610 453 612 471 q 601 418 609 435 l 576 397 q 562 400 568 400 q 511 395 536 395 q 461 391 487 395 q 450 392 454 393 q 439 391 445 391 q 418 377 420 384 q 415 359 415 370 q 416 345 415 350 q 412 285 411 315 q 411 224 414 255 q 392 225 400 225 q 373 228 381 228 q 357 221 363 228 q 332 227 343 227 q 315 222 324 227 l 294 229 q 270 221 281 221 q 259 232 263 229 q 258 264 259 241 q 254 296 258 288 q 254 332 252 319 q 255 357 255 345 q 255 370 255 363 q 252 385 255 377 q 156 389 199 389 q 69 389 113 389 q 54 395 62 389 q 34 400 45 400 q 39 418 35 412 q 35 437 34 435 q 35 445 35 439 q 33 474 30 465 q 38 490 35 483 q 27 502 35 496 q 35 518 27 510 q 102 519 71 518 q 161 519 134 519 q 174 520 168 519 q 186 521 179 521 q 219 522 205 521 q 250 529 233 522 q 251 610 250 570 q 254 692 252 651 q 277 695 269 696 q 292 694 285 694 q 314 703 309 701 q 326 704 319 704 q 347 711 345 703 q 358 708 353 709 q 369 707 363 707 q 392 709 385 709 q 399 692 397 694 q 403 686 400 689 q 406 661 406 674 q 406 633 406 647 q 404 578 406 609 q 415 525 403 547 l 435 525 q 507 528 471 525 q 579 534 543 532 q 601 525 597 525 q 608 519 608 521 q 610 511 609 518 l 623 505 z "},",":{"ha":381,"x_min":69,"x_max":283,"o":"m 205 178 q 214 160 206 164 q 233 159 222 156 q 245 142 240 144 q 254 137 250 140 l 270 129 q 279 118 279 123 q 283 109 278 113 q 278 90 282 99 q 273 71 274 81 q 254 41 262 56 q 240 12 247 27 q 234 -3 237 5 q 227 -18 231 -11 q 220 -26 224 -22 q 214 -37 217 -31 q 201 -57 208 -47 q 189 -77 195 -66 q 177 -82 178 -76 q 170 -88 176 -88 q 159 -100 164 -95 q 149 -110 155 -104 q 140 -104 144 -107 q 133 -98 137 -100 q 126 -80 130 -81 q 117 -78 122 -79 q 108 -75 113 -77 q 98 -61 103 -72 q 85 -35 90 -39 q 81 -44 81 -38 q 79 -50 81 -50 q 73 -39 76 -43 q 69 -30 69 -34 l 79 -16 q 79 -1 80 -9 q 131 83 107 39 q 174 171 155 126 q 184 176 180 174 q 195 179 189 179 l 205 178 z "},"-":{"ha":612,"x_min":14,"x_max":598,"o":"m 590 510 q 597 492 597 496 q 597 486 598 488 q 597 469 594 473 l 593 446 q 595 429 590 434 q 593 413 593 420 q 590 399 593 406 q 554 399 566 397 q 532 400 543 400 q 474 401 503 400 q 416 406 445 401 q 308 408 357 408 q 262 411 285 410 q 218 412 240 412 q 168 416 190 415 q 127 416 146 416 q 105 415 117 416 q 80 414 94 414 q 54 414 66 414 q 26 415 41 415 q 24 430 23 425 q 26 444 26 435 q 19 463 20 453 q 18 481 18 472 q 18 496 18 488 q 20 511 19 505 q 16 519 18 515 q 14 526 14 524 q 18 541 16 537 q 26 546 22 544 q 34 552 31 548 q 87 555 60 556 q 140 555 114 555 q 182 553 161 555 q 224 551 202 552 q 276 548 250 548 q 330 548 302 548 q 379 545 354 548 q 427 543 404 543 q 587 534 506 543 q 590 510 590 518 z "},".":{"ha":208,"x_min":0,"x_max":208,"o":"m 125 187 q 144 178 138 189 q 159 165 151 168 q 176 144 171 149 q 179 129 180 140 q 191 123 186 126 q 203 114 197 119 q 208 96 208 106 q 208 87 208 92 q 206 79 208 83 q 193 66 199 72 q 180 52 186 60 q 152 29 164 41 q 121 7 140 18 q 106 -4 113 1 q 88 -14 99 -9 q 83 -6 88 -8 q 76 -1 79 -4 q 57 22 76 15 q 44 43 53 34 q 30 62 35 52 q 26 75 30 71 q 20 83 23 79 q 3 92 7 83 q 0 113 0 102 q 7 127 3 123 q 14 138 11 132 q 49 172 28 152 q 84 199 69 191 q 94 203 87 202 q 106 203 102 203 l 121 203 q 125 195 123 197 q 125 187 127 194 z "},"/":{"ha":568,"x_min":69,"x_max":513,"o":"m 513 932 q 509 898 513 914 q 501 876 506 890 q 491 848 496 863 q 480 821 486 834 q 471 799 475 807 q 456 762 463 780 q 444 728 450 745 q 436 714 441 720 q 429 701 431 708 q 418 673 422 688 q 408 643 415 658 q 377 560 393 601 q 347 476 361 519 q 307 364 328 419 q 267 251 285 309 q 262 244 264 248 q 258 236 260 240 q 243 193 255 227 q 216 122 231 160 q 189 52 202 84 q 171 11 176 19 q 161 18 164 12 q 152 27 157 23 q 134 19 142 27 q 114 25 125 26 q 98 38 103 24 q 87 37 92 38 q 79 35 83 35 q 70 43 71 39 q 69 52 69 47 q 71 63 69 58 q 72 75 72 68 q 71 81 72 77 q 71 90 71 84 q 79 123 72 103 q 95 165 85 142 q 113 208 104 187 q 126 240 122 228 q 166 345 146 292 q 206 450 186 399 q 237 539 222 494 q 269 628 251 585 q 276 644 273 636 q 279 662 279 652 q 298 702 290 681 q 312 745 305 723 q 328 785 320 765 q 345 825 335 806 q 370 884 357 854 q 393 944 382 914 l 408 989 q 433 979 426 987 q 449 979 444 979 q 471 967 461 979 q 489 964 490 971 q 496 958 488 958 q 511 949 509 962 q 513 932 513 936 z "},":":{"ha":354,"x_min":69,"x_max":283,"o":"m 195 711 q 200 703 198 708 q 209 697 202 697 q 221 682 216 689 q 233 669 227 675 q 256 633 240 651 q 281 609 273 616 q 283 588 283 591 q 282 581 283 585 q 254 555 267 568 q 227 528 240 541 q 217 523 221 526 q 210 517 213 519 q 193 513 199 517 q 179 506 187 509 q 172 508 175 506 q 164 511 168 510 q 155 525 161 521 q 140 534 148 529 q 121 553 126 545 q 110 568 117 562 q 106 577 110 574 q 100 585 103 581 q 93 588 96 586 q 83 591 90 590 q 78 602 80 597 q 72 613 76 608 q 78 625 75 620 q 83 637 81 629 q 104 655 98 647 q 121 670 111 663 q 134 684 126 680 q 146 700 142 689 q 160 703 152 703 q 171 711 168 704 q 186 711 182 712 q 195 711 190 709 m 194 187 q 214 178 209 189 q 228 165 220 168 q 245 144 240 149 q 248 129 250 140 q 273 114 262 125 q 277 96 277 106 q 277 87 277 92 q 275 79 277 83 q 262 66 269 72 q 250 52 255 60 q 221 29 233 41 q 190 7 209 18 q 175 -4 182 1 q 157 -14 168 -9 q 153 -6 157 -8 q 146 -1 149 -4 q 126 22 146 15 q 113 43 122 34 q 99 62 104 52 q 96 75 99 71 q 91 83 94 79 q 73 92 76 83 q 69 113 69 102 q 76 127 72 123 q 83 138 80 132 q 118 172 98 152 q 155 199 138 191 q 164 203 157 202 q 175 203 171 203 l 190 203 q 195 195 193 197 q 194 187 197 194 z "},";":{"ha":339,"x_min":42,"x_max":255,"o":"m 174 718 q 196 699 187 707 q 209 681 205 692 q 233 660 224 670 q 252 642 241 650 q 248 604 254 614 q 222 586 233 597 q 197 566 212 575 q 186 559 191 562 q 174 553 180 556 q 161 542 167 548 q 146 533 155 536 q 139 542 144 538 q 130 552 134 545 q 123 569 127 566 q 113 575 118 572 q 96 597 110 591 q 93 616 96 608 q 83 635 90 625 q 64 650 71 635 q 65 663 64 658 q 66 674 66 669 q 98 701 83 689 q 132 727 114 713 q 148 736 142 736 q 168 731 155 736 l 174 718 m 176 178 q 186 160 178 164 q 206 159 194 156 q 218 142 213 144 q 227 137 222 140 l 241 129 q 250 118 251 123 q 255 109 250 113 q 250 90 254 99 q 244 71 245 81 q 227 41 235 56 q 213 12 220 27 q 207 -3 210 5 q 198 -18 203 -11 q 192 -26 195 -22 q 186 -37 189 -31 l 161 -77 q 149 -82 151 -76 q 141 -88 148 -88 q 131 -100 136 -95 q 121 -110 126 -104 q 113 -104 117 -107 q 106 -98 110 -100 q 98 -80 103 -81 q 89 -78 94 -79 q 79 -75 84 -77 q 69 -61 75 -72 q 58 -35 61 -39 q 54 -44 54 -38 q 52 -50 54 -50 q 45 -39 49 -43 q 42 -30 42 -34 l 52 -16 q 52 -1 53 -9 q 103 83 80 39 q 146 171 126 126 q 157 176 153 174 q 168 179 161 179 l 176 178 z "},"<":{"ha":682,"x_min":56,"x_max":654,"o":"m 640 241 l 623 233 q 618 226 620 229 q 613 220 617 222 q 589 211 602 220 q 570 195 576 202 q 552 191 562 193 q 534 186 543 189 q 484 205 511 195 q 435 229 457 216 q 374 266 404 248 q 312 300 343 283 q 292 313 298 307 q 275 326 285 319 q 268 330 271 328 q 259 335 264 332 q 236 352 247 346 q 210 365 225 358 q 191 376 199 369 q 171 387 183 384 q 136 407 156 401 q 98 414 117 412 q 74 410 79 410 q 62 412 69 411 l 61 430 q 56 447 56 444 q 57 453 57 450 q 62 475 62 463 q 57 500 62 488 q 71 520 68 515 q 77 530 75 525 q 83 536 80 533 q 90 541 87 538 q 134 557 113 547 q 178 575 155 568 q 224 597 209 590 q 256 614 240 605 q 283 625 270 621 q 307 636 296 629 q 332 647 320 643 q 355 658 343 651 q 397 679 378 669 q 438 699 416 689 q 452 707 446 703 q 464 716 457 712 q 513 739 490 728 q 556 766 536 750 q 568 768 563 768 q 578 768 572 768 q 588 756 585 762 q 597 745 591 750 q 612 713 601 727 q 619 692 612 705 q 632 673 627 680 q 639 654 635 662 q 643 637 643 647 q 633 625 639 633 q 615 618 624 621 q 598 609 606 614 q 565 593 582 604 q 528 576 548 582 q 510 568 515 568 q 480 556 495 560 q 445 537 463 545 q 408 522 427 529 q 359 499 381 511 q 311 473 336 487 q 341 453 321 467 q 372 435 361 439 q 397 416 381 425 q 429 399 412 407 q 463 382 446 391 q 491 366 479 374 q 515 353 500 362 q 538 343 529 343 q 552 340 547 342 q 562 338 557 339 q 590 324 576 331 q 618 311 604 317 q 635 295 625 300 q 651 281 644 290 q 652 267 651 274 q 654 251 652 259 q 648 245 651 248 q 640 241 646 243 z "},"=":{"ha":655,"x_min":42,"x_max":614,"o":"m 273 522 q 239 520 256 522 q 206 517 221 518 q 154 512 179 514 q 103 510 129 510 q 49 515 72 510 q 52 534 49 528 q 47 555 47 545 q 42 575 46 566 q 46 593 45 585 q 50 612 47 601 q 42 629 42 623 q 61 642 56 639 q 79 643 71 643 q 98 643 88 643 q 142 646 121 644 q 186 650 164 647 q 221 652 205 651 q 254 655 237 652 q 278 657 273 656 q 290 658 283 658 l 305 658 q 329 660 317 658 q 351 662 340 662 q 469 658 410 662 q 587 651 529 654 q 609 634 610 642 q 614 621 608 627 q 610 570 608 598 q 602 522 612 541 q 572 519 581 518 q 553 521 563 521 q 494 521 525 521 q 435 525 463 521 q 397 524 410 524 q 370 525 385 525 q 336 524 353 525 q 300 522 319 522 l 273 522 m 598 399 q 596 388 597 392 q 591 378 595 384 q 592 361 594 369 q 590 346 590 354 q 593 331 590 339 q 588 323 590 327 q 586 313 586 319 q 583 298 587 302 q 494 299 538 300 q 403 301 449 298 q 380 302 392 301 q 358 304 369 304 q 338 302 347 304 q 320 300 330 300 q 297 302 308 300 q 275 304 286 304 q 241 302 258 304 q 208 301 224 301 q 163 300 184 301 q 118 298 141 298 q 101 300 110 298 q 83 301 92 301 q 71 301 77 301 q 61 302 65 301 q 61 317 60 312 q 64 324 62 321 q 59 338 61 331 q 54 353 57 346 q 56 372 57 362 q 61 391 56 381 q 56 413 56 408 q 57 423 56 418 q 69 427 64 426 q 80 431 75 429 q 122 435 102 434 q 165 438 142 437 q 197 441 180 439 q 231 442 214 442 q 258 440 244 442 q 286 438 273 438 q 317 439 301 438 q 349 439 334 439 q 406 438 378 439 q 464 437 434 437 q 524 436 495 437 q 583 433 552 435 q 591 425 587 429 q 594 414 594 420 q 594 406 594 408 q 598 399 594 403 z "},">":{"ha":696,"x_min":42,"x_max":640,"o":"m 57 241 q 49 245 52 243 q 42 251 46 248 q 45 267 45 259 q 45 281 45 274 q 62 295 53 290 q 77 311 71 300 q 106 324 92 317 q 134 338 119 331 q 153 345 148 340 q 181 353 167 343 q 205 366 195 362 q 233 382 217 374 q 267 399 250 391 q 299 416 283 407 q 324 435 315 425 q 355 453 335 439 q 385 473 374 467 q 338 499 361 487 q 288 522 315 511 q 252 537 270 529 q 217 556 233 545 q 202 562 209 559 q 189 568 195 564 q 168 576 174 574 q 132 593 149 582 q 99 609 115 604 q 81 618 91 614 q 62 625 72 621 q 57 654 53 647 q 64 673 61 662 q 77 692 71 680 q 84 713 84 705 q 99 745 95 727 q 108 756 104 750 q 118 768 111 762 q 129 768 123 768 q 140 766 134 768 q 184 739 160 750 q 232 718 208 728 q 244 707 239 712 q 256 699 250 703 q 300 679 281 689 q 339 658 319 669 q 365 647 353 651 q 389 636 377 643 q 414 625 401 629 q 439 614 426 621 q 471 597 456 605 q 506 583 487 590 q 562 557 541 568 q 606 541 583 547 q 612 536 609 538 q 618 530 616 533 q 625 520 621 525 q 632 511 628 515 q 635 488 636 494 q 633 475 633 481 q 639 453 633 463 q 638 435 640 438 q 635 430 636 433 q 635 420 636 423 q 633 412 633 416 q 623 410 628 411 q 612 410 618 410 q 559 407 579 412 q 525 387 540 401 q 505 376 513 384 q 486 365 496 369 q 460 352 471 358 q 437 335 449 346 q 420 326 431 331 q 405 313 412 319 q 391 304 397 307 q 323 266 353 283 q 263 229 293 248 q 213 205 240 216 q 161 186 186 195 q 144 191 153 189 q 126 195 136 193 q 106 211 119 202 q 83 220 94 220 q 73 233 79 222 q 57 241 62 236 z "},"?":{"ha":609,"x_min":-14,"x_max":601,"o":"m 595 827 q 598 798 601 806 q 593 784 595 791 q 583 767 585 772 q 579 760 582 762 q 574 752 576 755 q 568 745 571 749 q 554 720 564 731 q 541 707 544 708 q 534 695 538 700 q 526 685 530 690 q 507 659 521 673 q 486 629 499 643 q 464 597 472 616 q 438 560 446 581 q 425 540 427 551 q 408 519 414 532 q 392 499 403 507 q 375 472 385 484 q 358 446 365 460 q 336 410 349 426 q 339 361 339 388 q 339 312 339 335 q 337 299 339 307 q 330 288 335 292 q 312 288 313 289 q 305 292 307 288 q 298 296 304 296 q 289 292 293 296 q 282 289 285 289 q 262 294 275 289 q 239 289 251 289 q 218 296 225 289 q 212 293 214 296 q 201 290 210 290 q 182 297 191 290 q 176 351 175 326 q 174 404 178 377 q 172 425 172 415 q 171 442 172 434 q 170 458 170 450 q 220 536 197 496 q 274 610 244 575 q 319 666 297 637 q 365 722 342 694 q 380 741 372 732 q 395 760 389 749 q 382 778 392 766 q 366 793 373 789 q 357 800 362 798 q 349 804 353 802 q 334 816 336 815 q 330 818 332 817 q 313 827 323 822 q 294 840 304 833 q 275 852 283 846 q 263 863 267 859 q 247 861 250 860 q 222 839 235 852 q 203 811 210 826 q 184 792 191 806 q 170 777 175 785 q 156 762 164 769 q 140 749 145 751 q 126 732 134 746 q 115 724 121 728 q 107 712 110 719 q 92 701 100 708 q 75 694 83 694 q 53 713 66 713 q 45 727 43 722 q 41 732 46 732 q 29 741 31 735 q 19 746 27 746 q -14 770 -1 754 q -7 789 -8 780 q 4 804 1 793 q 25 827 12 811 q 52 862 38 844 q 78 897 66 880 q 95 924 90 914 q 133 963 114 943 q 175 998 152 983 q 187 1008 178 1002 q 208 1021 197 1015 q 229 1032 218 1027 q 244 1040 239 1038 q 269 1038 263 1036 q 281 1039 274 1039 q 297 1038 292 1039 q 321 1038 315 1043 q 338 1032 327 1032 q 355 1014 349 1024 q 372 994 362 1004 q 410 965 389 978 q 449 936 430 952 q 458 927 454 932 q 467 917 463 922 q 483 904 475 910 q 500 891 491 898 q 530 866 515 879 q 560 838 545 853 q 595 827 578 827 m 292 186 q 307 162 297 179 q 328 127 317 145 q 345 92 338 109 q 353 68 353 76 q 353 58 353 62 q 354 47 354 53 q 345 37 351 41 q 332 30 339 34 q 318 26 321 31 q 313 16 315 22 q 295 16 297 14 q 290 19 293 19 q 279 14 285 19 q 269 5 273 8 q 260 5 264 5 q 251 7 255 4 q 233 -7 239 -4 q 220 -11 227 -9 q 203 12 213 -4 q 190 31 194 27 q 169 79 179 54 q 148 126 159 103 q 157 142 149 137 q 174 146 165 146 q 184 156 182 149 q 195 163 187 163 q 216 171 205 170 q 235 180 228 172 q 261 180 251 176 q 275 187 271 184 l 292 186 z "},"@":{"ha":814,"x_min":0,"x_max":800,"o":"m 789 502 q 797 480 795 491 q 800 458 799 469 q 783 437 796 454 q 754 399 769 419 q 727 363 739 380 q 715 346 715 347 q 696 325 707 339 q 673 311 685 311 q 663 313 666 311 q 655 321 659 316 q 631 325 636 317 q 618 335 627 332 q 597 361 604 351 q 582 380 590 370 q 566 401 571 396 q 559 412 562 407 q 554 404 556 408 q 547 396 552 399 q 526 363 538 377 q 502 335 513 350 q 474 291 487 313 q 445 247 461 269 q 427 240 438 240 q 414 233 416 237 q 410 225 412 229 q 392 231 396 227 q 380 236 388 235 q 355 262 368 250 q 332 288 343 274 q 323 300 327 294 q 312 313 319 307 q 300 327 305 320 q 292 340 296 334 q 272 364 281 350 q 252 391 263 378 q 235 414 244 400 q 216 445 225 429 q 201 477 208 461 q 193 505 194 492 q 202 514 197 511 q 212 519 208 517 q 220 540 216 536 q 225 551 225 544 q 254 585 239 560 q 281 625 270 610 q 319 673 300 650 q 357 720 338 697 q 370 740 359 726 q 385 757 381 754 q 398 768 392 768 q 415 768 404 768 q 431 760 429 762 q 446 739 442 743 q 452 725 449 730 q 458 716 456 720 q 474 688 464 697 q 491 675 484 680 q 503 656 496 665 q 511 637 509 648 q 511 628 510 632 q 510 620 511 624 q 505 613 507 614 q 502 604 502 612 q 487 589 492 598 q 479 584 481 589 q 473 576 477 579 q 461 562 467 568 q 449 555 456 555 q 420 580 430 571 q 401 600 411 589 q 382 572 395 591 q 362 545 369 552 q 340 519 351 534 q 320 488 330 503 q 357 433 335 465 q 397 382 378 401 q 445 448 422 414 q 491 517 468 483 q 507 537 499 528 q 521 557 514 547 q 540 574 538 571 q 552 576 541 576 q 579 566 571 572 q 595 553 587 560 q 613 527 602 538 q 635 503 624 515 q 648 484 642 492 q 661 467 654 476 q 684 496 673 477 q 666 519 675 507 q 648 541 656 530 q 625 576 643 549 q 585 633 606 604 q 547 688 564 663 q 526 715 530 712 q 518 731 524 724 q 509 745 513 738 q 492 767 502 754 q 480 785 483 780 q 471 802 480 787 q 452 833 463 817 q 431 865 441 850 q 418 884 420 880 q 408 871 412 878 q 397 857 404 864 q 361 809 380 838 q 328 758 342 780 q 304 727 317 743 q 281 696 292 711 q 257 667 270 681 q 232 637 244 652 q 217 618 224 628 q 203 598 210 608 q 163 548 184 575 q 126 495 142 521 q 150 460 136 476 q 175 426 164 445 q 185 409 179 419 q 199 388 191 399 q 213 367 206 377 q 224 353 220 357 q 231 338 225 346 q 242 321 236 331 q 254 304 248 312 q 263 292 260 296 q 315 212 290 252 q 370 136 340 171 q 385 119 378 127 q 399 102 391 110 q 417 122 410 109 q 435 148 425 136 q 448 170 445 163 q 458 183 452 176 q 487 217 475 199 q 514 250 499 235 q 533 277 528 267 q 545 298 538 288 q 566 317 556 305 q 583 321 579 321 q 590 320 586 321 q 595 313 593 317 q 602 309 597 309 q 608 300 605 302 q 617 292 612 297 q 621 283 617 285 q 628 275 625 281 q 641 260 635 269 q 647 245 647 252 q 621 204 631 220 q 600 174 610 189 q 562 126 582 149 q 528 79 543 103 q 515 58 521 68 q 500 39 509 49 q 445 -43 468 -1 q 433 -52 438 -46 q 419 -58 427 -58 q 406 -49 410 -58 q 389 -42 400 -47 q 371 -43 374 -46 q 368 -38 368 -41 q 305 42 332 -1 q 267 89 283 68 q 235 132 250 110 q 204 177 218 155 q 175 222 190 199 q 152 257 164 243 q 132 286 140 271 q 113 318 127 294 q 81 368 98 342 q 49 416 64 395 q 30 441 34 437 q 11 468 22 460 q 0 491 0 476 q 5 508 4 506 q 7 513 7 510 q 15 529 12 521 q 23 544 18 537 q 35 560 30 552 q 46 575 41 568 q 61 597 53 586 q 77 618 69 608 q 85 629 80 624 q 94 639 91 633 q 106 656 103 650 q 117 669 110 662 q 123 678 118 671 q 134 692 127 685 q 144 705 140 699 q 152 713 149 711 q 165 732 157 724 q 178 749 172 739 q 205 783 191 766 q 229 815 220 799 q 279 894 255 859 q 302 921 289 906 q 323 947 316 936 q 330 957 328 956 q 334 959 331 958 q 351 985 343 970 q 347 995 349 990 q 343 1004 346 1000 q 362 1023 343 1023 q 373 1034 369 1028 q 385 1039 377 1039 q 397 1046 395 1042 q 406 1050 400 1050 q 422 1058 419 1059 q 427 1057 425 1057 q 437 1050 431 1054 q 446 1042 442 1046 q 475 1000 463 1024 q 503 956 488 975 q 522 927 513 941 q 541 898 532 913 q 552 880 547 888 q 563 863 557 871 q 578 839 571 852 q 593 815 586 826 q 607 792 598 804 q 624 770 616 780 q 632 759 627 768 q 644 740 637 750 q 658 720 651 730 q 669 705 665 711 q 684 684 675 694 q 699 663 692 674 q 722 626 709 642 q 745 591 734 610 q 764 566 754 578 q 783 541 774 555 q 788 535 785 538 q 793 530 791 532 q 799 515 799 519 q 789 502 799 509 z "},"A":{"ha":754,"x_min":-14,"x_max":761,"o":"m 129 22 q 121 16 125 19 q 113 11 117 14 q 85 2 98 3 q 58 -12 73 1 q 50 -5 53 -5 q 41 -5 47 -5 q 20 4 23 -5 q 3 -3 15 3 q -14 -11 -8 -8 q 3 16 -1 7 q 7 34 7 26 q 9 51 8 42 q 15 76 9 60 q 19 87 18 81 q 23 99 20 92 q 35 145 30 119 q 50 190 39 171 q 60 233 50 213 q 77 275 71 254 q 85 292 80 283 q 92 308 90 300 q 101 334 98 321 q 109 359 104 347 q 130 437 119 399 q 151 515 141 476 q 154 530 152 522 q 159 545 156 538 q 168 587 165 566 q 180 627 170 608 q 181 644 179 636 q 186 662 183 652 q 191 680 189 671 q 195 692 194 688 q 205 724 202 709 q 220 754 209 738 q 224 768 220 754 q 233 800 228 783 q 243 833 239 818 q 247 852 247 849 q 252 872 250 863 q 256 892 254 882 q 262 904 259 899 q 267 916 264 909 q 275 952 271 930 q 286 986 279 974 q 302 1002 290 996 q 321 1015 313 1008 q 357 1017 346 1012 q 380 1031 369 1023 q 393 1027 387 1029 q 406 1025 399 1025 q 441 967 431 997 q 461 907 452 937 q 469 878 465 892 q 479 850 473 864 q 483 842 480 846 q 488 831 486 837 q 500 808 495 821 q 509 784 505 796 q 521 762 517 774 q 528 736 525 749 q 536 711 532 723 q 548 692 540 700 q 557 663 551 677 q 567 632 564 648 q 586 591 575 621 q 608 525 597 560 q 628 457 618 490 q 642 411 637 425 q 652 383 644 400 q 667 353 661 366 q 679 321 673 338 q 689 290 685 305 q 695 262 692 275 q 703 233 699 248 q 711 216 705 224 q 719 198 716 209 q 726 178 724 187 q 735 157 728 168 q 736 138 734 142 q 742 129 739 134 q 754 83 747 100 q 761 47 761 66 q 755 27 761 31 q 739 14 749 23 q 721 -1 728 4 q 699 -7 713 -7 q 679 -12 682 -5 q 674 -20 675 -18 q 653 -20 658 -19 q 644 -20 648 -20 q 634 -22 639 -20 q 624 -31 629 -24 q 606 -12 614 -20 q 590 8 597 -3 q 584 62 590 31 q 571 111 578 94 q 546 180 557 146 q 524 250 534 214 q 515 277 519 264 q 505 302 510 289 q 507 280 507 292 q 499 258 506 269 q 491 251 496 255 q 486 244 486 247 q 457 218 469 231 q 450 184 458 194 q 433 167 442 175 q 404 170 410 165 q 389 175 399 174 q 378 176 384 176 q 368 175 373 175 q 347 180 357 175 q 341 186 343 183 q 336 191 339 189 q 311 210 326 202 q 283 222 297 217 q 261 242 273 232 q 237 259 250 252 q 220 214 227 233 q 206 175 214 194 q 182 94 191 129 q 160 24 172 60 q 150 20 155 23 q 138 18 145 18 l 129 22 m 262 311 q 281 332 273 330 q 297 342 290 334 q 303 349 300 345 q 311 357 307 353 q 320 362 315 359 q 330 369 326 365 q 348 385 340 378 q 370 392 355 392 q 408 380 393 392 q 445 365 423 369 q 463 353 448 357 q 486 345 477 350 q 465 413 472 378 q 446 481 457 448 q 427 541 438 511 q 406 597 416 570 q 389 650 396 624 q 372 700 382 675 q 350 640 361 675 q 334 578 339 605 q 332 559 334 566 q 327 542 330 549 q 321 526 324 534 q 290 419 304 473 q 256 311 275 365 l 262 311 z "},"B":{"ha":692,"x_min":83,"x_max":671,"o":"m 617 764 q 623 739 617 749 q 629 720 629 728 q 635 688 627 707 q 643 651 643 670 q 622 630 640 643 q 581 602 604 617 q 538 573 559 587 q 509 551 517 559 q 526 533 515 540 q 545 519 536 526 q 569 500 553 513 q 602 472 585 487 q 633 444 618 457 q 651 423 647 430 q 656 414 654 422 q 659 395 658 406 q 661 376 661 385 q 662 363 662 366 q 663 342 661 349 q 667 328 665 335 q 670 313 669 320 q 671 307 671 307 q 664 292 671 298 q 650 279 656 285 q 637 269 643 274 q 624 256 631 263 q 606 243 616 250 q 587 231 595 237 q 578 223 582 228 q 570 216 574 218 q 543 195 557 205 q 514 176 528 184 q 486 157 499 167 q 457 136 472 146 q 417 112 437 123 q 378 88 397 100 q 360 75 369 81 q 342 62 351 68 q 288 31 315 47 q 235 -4 260 15 q 203 -13 213 -9 q 184 -16 194 -16 q 174 -10 176 -16 q 167 -4 172 -4 q 144 -5 146 -7 q 138 0 142 -3 q 104 0 118 -3 q 99 17 100 7 q 91 34 98 27 q 92 60 94 47 q 92 84 90 72 q 88 114 88 100 q 92 151 88 132 q 88 175 88 163 q 90 197 88 186 q 91 218 91 208 q 85 243 91 232 q 85 291 85 267 q 84 339 84 315 q 84 361 84 350 q 85 384 84 372 q 84 404 84 391 q 87 418 84 412 q 90 431 90 425 q 87 460 90 446 q 85 488 85 473 q 87 514 85 502 q 90 540 90 526 q 84 552 85 545 q 83 566 83 559 q 85 582 83 571 q 84 605 85 593 q 83 628 83 617 q 83 637 83 633 q 85 647 84 642 q 83 666 83 656 q 83 685 83 675 q 84 710 83 697 q 85 735 85 723 q 86 767 84 755 q 90 791 88 779 l 90 868 q 87 892 90 879 q 84 917 84 905 q 85 937 84 924 q 90 958 87 951 q 134 990 109 986 q 142 998 140 993 q 155 1002 145 1002 q 176 1023 171 1016 q 190 1038 182 1031 q 197 1040 194 1038 q 206 1042 201 1042 q 222 1036 216 1039 q 235 1032 228 1034 q 288 992 262 1012 q 342 951 315 972 q 366 929 354 940 q 389 909 377 918 q 404 901 396 905 q 419 891 412 897 q 449 871 434 882 q 479 852 464 861 l 576 791 q 597 777 587 784 q 617 764 608 770 m 423 705 q 385 728 403 715 q 346 749 366 742 q 323 764 335 760 q 300 776 311 768 q 278 795 288 787 q 254 810 269 803 q 243 728 247 768 q 240 647 240 688 q 248 567 240 605 q 277 582 263 574 q 304 598 290 590 q 314 604 309 601 q 326 609 319 606 q 339 620 332 614 q 353 629 346 625 q 382 649 368 640 q 411 669 396 658 q 426 677 418 674 q 442 688 434 681 q 433 696 441 693 q 423 705 426 700 m 384 452 q 376 454 380 452 q 366 456 372 456 q 336 437 350 445 q 307 420 321 430 q 293 411 300 416 q 279 403 286 406 q 252 385 262 392 q 237 366 243 377 q 239 290 240 328 q 239 213 239 252 q 243 198 239 206 q 286 216 255 199 q 352 255 317 233 q 418 297 387 277 q 465 327 450 317 q 490 338 476 330 q 507 357 505 346 q 448 406 481 387 q 384 452 414 426 z "},"C":{"ha":544,"x_min":-7,"x_max":559,"o":"m 305 370 q 326 341 308 363 q 366 292 343 319 q 410 241 388 266 q 439 206 431 217 q 492 132 465 168 q 544 56 519 95 q 555 39 551 49 q 559 18 559 28 q 553 5 559 5 q 540 1 547 4 q 515 -9 526 -8 q 498 -11 505 -11 q 465 -10 483 -11 q 435 -12 448 -9 q 426 -17 431 -14 q 418 -20 420 -20 q 402 -17 407 -20 q 389 -11 397 -14 q 370 15 378 1 q 351 42 361 28 q 334 59 343 52 q 316 77 324 66 q 272 137 294 109 q 227 194 250 165 q 203 222 216 209 q 179 250 190 236 q 159 281 168 264 q 138 312 149 297 q 115 345 130 326 q 84 385 100 365 q 51 424 68 406 q 22 452 34 442 q 16 465 22 461 q 4 475 11 469 q -3 488 1 481 q -7 502 -7 494 q -5 511 -7 507 q -3 519 -4 515 q 1 530 0 525 q 4 540 1 534 q 24 571 11 557 q 43 602 37 585 q 45 612 45 608 q 47 623 45 617 q 60 639 52 631 q 75 656 68 647 q 88 681 81 669 q 102 705 95 693 q 144 766 121 736 q 187 823 167 795 q 222 877 206 850 q 258 930 239 903 q 279 961 267 944 q 304 994 292 978 q 331 1025 317 1010 q 358 1046 345 1039 q 388 1038 381 1048 q 407 1028 395 1028 q 433 1016 426 1024 q 446 1001 439 1008 q 476 994 464 1001 q 500 974 488 987 q 486 947 495 959 q 471 921 477 935 q 455 907 460 917 q 441 891 450 898 q 411 846 426 868 q 381 803 396 823 q 366 790 374 795 q 351 776 357 785 q 347 767 349 772 q 343 758 346 762 q 307 708 327 732 q 271 656 286 684 q 260 637 264 647 q 251 617 256 627 q 235 594 245 609 q 215 564 225 579 q 197 534 205 548 q 190 510 190 519 q 208 483 191 503 q 243 439 224 463 q 281 396 263 416 q 305 370 300 376 z "},"D":{"ha":692,"x_min":83,"x_max":699,"o":"m 88 -16 q 83 -1 83 -11 q 83 10 83 5 q 85 22 84 15 q 92 85 92 53 q 95 148 92 117 q 97 186 96 167 q 98 224 98 205 q 91 448 98 336 q 84 674 84 560 q 87 832 84 753 q 91 991 90 911 q 121 997 103 998 q 149 1009 138 996 q 163 1010 156 1010 q 176 1009 170 1009 q 205 1019 191 1009 q 235 1035 218 1028 q 246 1033 243 1032 q 254 1034 250 1034 q 271 1024 258 1034 q 301 1002 285 1015 q 332 979 317 990 q 350 966 346 968 q 410 909 384 940 q 463 848 437 879 q 515 785 487 817 q 571 726 544 753 q 591 707 581 715 q 610 688 601 699 q 618 676 614 682 q 625 663 621 670 q 644 647 633 654 q 665 631 655 640 q 685 609 671 625 q 699 585 699 593 q 696 575 699 579 q 690 566 693 571 q 689 553 689 562 q 688 543 689 545 q 673 529 674 532 q 669 524 671 526 q 659 515 665 518 q 650 505 652 511 q 648 496 647 500 q 646 487 648 492 q 624 458 639 472 q 598 429 609 445 q 568 380 583 404 q 534 332 553 355 q 517 311 526 321 q 500 290 509 301 q 488 273 494 282 q 476 254 483 264 q 448 216 461 235 q 419 179 434 198 q 384 134 403 156 q 350 88 365 111 q 319 43 335 64 q 283 4 302 23 q 270 -8 278 0 q 254 -16 262 -16 q 245 -12 248 -16 q 235 -8 241 -8 q 227 -9 233 -8 q 210 -12 220 -11 l 186 -15 q 155 -25 164 -26 q 136 -26 145 -24 q 127 -30 130 -27 q 119 -33 123 -33 q 104 -24 110 -33 q 88 -16 99 -15 m 495 570 q 482 589 495 576 q 463 606 469 601 q 440 622 453 614 q 419 639 427 629 q 406 656 412 647 q 393 673 400 665 q 344 727 369 700 q 300 787 319 754 q 277 806 288 795 q 251 823 266 817 q 249 806 248 815 q 250 789 250 798 q 247 728 250 758 q 244 669 244 699 q 248 524 244 595 q 251 381 251 453 q 252 327 251 354 q 256 273 252 300 q 254 258 254 264 q 256 240 254 251 q 275 257 267 247 q 289 277 282 267 q 334 337 312 307 q 380 399 357 368 q 410 439 395 419 q 441 480 426 458 q 454 499 445 486 q 471 527 463 513 q 488 553 480 541 q 495 570 495 566 z "},"E":{"ha":623,"x_min":76,"x_max":574,"o":"m 552 190 q 568 156 563 172 q 574 133 574 140 q 570 117 574 123 q 562 104 567 111 q 454 62 507 81 q 345 23 400 42 q 318 14 331 19 q 290 7 305 9 q 281 1 288 4 q 265 -4 274 -1 q 248 -9 256 -7 q 237 -11 240 -11 q 232 -3 235 -4 q 227 0 229 -1 q 218 -5 220 0 q 209 -12 216 -9 q 197 -13 202 -12 q 187 -11 191 -14 q 168 -20 176 -14 q 148 -30 159 -27 q 123 -25 127 -24 q 113 -27 118 -26 q 104 -4 103 -19 q 96 20 104 11 q 94 40 96 38 q 91 45 91 42 q 92 62 91 54 q 91 80 94 71 q 95 125 96 103 q 96 168 94 146 q 97 181 96 175 q 98 194 98 187 q 100 219 98 214 q 103 231 103 224 q 102 249 103 240 q 102 269 102 258 q 102 306 102 288 q 103 345 103 324 q 96 448 103 396 q 90 551 90 499 q 83 674 90 613 q 76 798 76 735 q 76 828 76 808 q 76 869 76 848 q 77 909 76 890 q 79 936 77 928 q 87 940 79 937 q 98 943 95 943 q 109 939 104 943 q 118 933 113 936 q 147 938 142 936 q 155 940 152 940 q 168 936 163 940 q 175 932 172 932 q 200 933 198 937 q 209 929 202 929 q 231 933 227 935 q 239 932 235 932 q 254 937 245 932 q 269 944 262 941 q 307 958 292 951 q 337 974 327 970 q 358 983 347 978 q 402 1003 381 993 q 446 1024 423 1013 q 455 1025 450 1024 q 463 1028 460 1025 q 471 1027 467 1027 q 480 1027 476 1027 q 498 1020 494 1021 q 508 1004 503 1012 q 519 990 513 997 q 530 978 526 978 q 526 969 530 974 q 522 960 522 964 q 540 925 533 941 q 547 902 547 909 q 544 886 547 892 q 537 873 541 880 q 433 825 486 849 q 327 779 381 802 q 301 767 313 773 q 274 758 289 761 q 262 753 271 755 q 247 751 252 751 q 250 706 250 728 q 252 661 251 684 q 257 621 254 642 q 263 579 260 600 q 352 617 308 598 q 441 655 396 636 q 458 652 449 654 q 475 648 467 651 q 480 642 477 646 q 487 635 483 637 q 496 614 486 628 q 506 594 506 601 q 509 581 506 583 q 514 570 511 579 q 514 555 515 556 q 525 541 521 548 q 529 525 529 534 q 491 494 510 502 q 453 479 472 487 q 439 471 446 476 q 425 464 431 467 q 404 456 414 460 q 382 448 393 453 q 347 427 365 438 q 309 411 328 415 q 290 402 294 407 q 274 389 285 397 l 274 353 l 274 285 q 274 257 274 271 q 273 228 274 243 q 270 205 270 214 l 270 183 q 283 188 277 186 q 297 193 290 190 q 307 194 302 194 q 317 197 312 194 q 328 199 324 198 q 338 203 332 201 q 369 218 358 214 q 391 225 380 221 q 435 242 414 233 q 479 259 457 251 q 498 263 492 256 q 509 260 505 262 q 521 259 514 259 q 541 236 537 244 q 552 221 545 228 q 562 209 559 209 q 557 200 562 206 q 552 190 553 194 z "},"F":{"ha":600,"x_min":83,"x_max":559,"o":"m 529 979 q 547 946 540 963 q 555 922 555 929 q 552 907 555 913 q 544 892 549 901 q 440 845 492 869 q 334 799 388 821 q 308 788 320 793 q 281 777 296 783 q 269 772 278 774 q 254 770 260 770 q 257 715 256 743 q 259 658 258 686 q 262 642 259 650 q 264 627 264 635 q 267 576 267 601 q 270 526 267 552 q 370 570 320 548 q 469 614 419 593 q 487 612 477 613 q 505 606 496 610 q 510 600 507 604 q 517 593 513 595 q 526 573 517 586 q 534 545 534 560 q 538 536 534 543 q 544 528 543 530 q 543 513 544 514 q 555 495 552 506 q 559 473 559 484 q 511 437 534 446 q 463 416 487 427 q 448 408 456 412 q 431 400 439 404 q 410 393 420 396 q 389 384 400 389 q 353 362 373 374 q 316 347 332 350 q 298 344 305 345 q 281 336 290 343 q 280 304 279 320 q 281 274 281 289 q 279 242 281 258 q 277 210 277 227 q 274 157 277 183 q 271 104 271 130 q 273 73 271 88 q 274 42 274 57 q 271 27 274 34 q 266 14 269 20 q 243 14 247 11 q 233 20 239 18 q 224 15 227 20 q 216 7 222 9 q 204 7 210 8 q 194 9 198 7 q 174 0 183 5 q 155 -8 165 -5 q 130 -6 134 -5 q 119 -8 125 -7 q 111 16 110 1 q 103 41 111 30 q 100 58 103 54 q 98 64 98 61 q 98 73 98 68 q 99 83 99 77 q 98 102 99 95 q 100 127 99 110 q 103 162 102 144 q 104 198 104 180 q 104 227 104 216 q 107 238 104 233 q 110 250 110 243 q 109 269 110 260 q 109 288 109 278 q 109 326 109 307 q 110 363 110 345 q 104 478 110 422 q 98 591 98 534 q 95 660 98 623 q 88 728 92 697 q 86 740 88 735 q 84 750 84 745 q 83 783 83 766 q 83 818 83 800 q 83 848 83 829 q 83 889 83 868 q 83 929 83 910 q 85 956 84 948 q 94 961 85 958 q 104 964 102 964 q 115 960 111 964 q 125 952 119 956 q 136 956 130 956 q 149 956 142 956 q 174 956 170 960 q 182 951 179 951 q 189 955 186 951 q 195 959 191 959 q 208 954 206 959 q 216 948 210 948 q 224 952 221 948 q 229 956 227 956 q 237 954 233 956 q 245 952 241 952 q 260 957 252 952 q 275 964 269 962 q 295 971 286 967 q 313 978 304 975 q 344 994 334 990 q 365 1002 354 997 q 409 1023 388 1013 q 453 1043 430 1034 q 469 1048 465 1043 q 494 1047 479 1044 q 515 1024 510 1032 q 526 1009 519 1016 q 537 998 534 998 q 533 989 537 994 q 529 979 529 983 z "},"G":{"ha":814,"x_min":-7,"x_max":807,"o":"m 788 519 q 799 499 791 510 q 807 483 807 488 q 791 443 796 457 q 773 418 785 429 q 765 400 773 414 q 747 371 757 387 q 726 341 736 355 q 713 321 716 327 q 703 300 707 311 q 693 281 699 290 q 668 240 681 259 q 644 198 655 221 q 632 183 637 191 q 620 168 627 175 q 583 113 604 138 q 544 56 562 87 q 559 18 559 41 q 552 5 559 5 q 540 1 545 4 q 515 -9 526 -8 q 498 -11 505 -11 q 465 -10 483 -11 q 435 -12 448 -9 q 426 -17 431 -14 q 418 -20 420 -20 q 402 -17 407 -20 q 389 -11 397 -14 q 370 15 378 1 q 351 42 361 28 q 334 59 343 52 q 316 77 324 66 q 272 137 294 109 q 227 194 250 165 q 203 222 216 209 q 179 250 190 236 q 159 281 168 264 q 138 312 149 297 q 115 345 130 326 q 84 385 100 365 q 51 424 68 406 q 22 452 34 442 q 16 465 22 461 q 4 475 11 469 q -3 488 1 481 q -7 502 -7 494 q -3 519 -7 511 q 1 530 0 525 q 4 540 1 534 q 24 571 11 557 q 43 602 37 585 q 45 612 45 608 q 47 623 45 617 q 60 640 52 632 q 75 656 68 647 q 88 681 81 669 q 102 705 95 693 q 144 766 121 736 q 187 823 167 795 q 222 877 206 850 q 258 930 239 903 q 279 961 267 944 q 304 994 292 978 q 331 1025 317 1010 q 358 1046 345 1039 q 388 1038 381 1048 q 407 1028 395 1028 q 433 1016 426 1024 q 446 1001 439 1008 q 476 994 464 1001 q 500 974 488 987 q 486 947 495 959 q 471 921 477 935 q 455 907 460 917 q 441 891 450 898 q 411 846 426 868 q 381 803 396 823 q 366 790 374 795 q 351 776 358 785 q 347 767 349 772 q 343 758 346 762 q 307 708 327 732 q 271 656 286 684 q 260 637 264 647 q 251 617 256 627 q 235 593 245 608 q 215 564 225 579 q 197 534 205 549 q 190 510 190 519 q 208 483 191 503 q 244 439 224 463 q 283 395 264 416 q 305 370 301 374 q 326 341 308 363 q 366 292 343 319 q 410 241 388 266 q 439 206 431 217 l 450 189 q 465 208 453 190 q 488 247 476 225 q 511 288 500 269 q 524 312 521 307 q 537 334 528 316 q 558 372 547 351 q 578 410 570 392 q 589 433 587 427 l 572 433 q 530 431 551 433 q 487 422 509 429 q 471 427 477 423 q 454 435 464 431 q 451 454 450 449 q 450 463 452 460 q 447 471 449 468 q 445 479 445 473 q 442 494 445 488 q 437 509 439 500 q 437 519 437 514 q 435 529 438 525 q 431 564 438 553 q 437 589 431 583 q 445 605 442 594 q 466 607 457 601 q 484 613 475 613 q 519 620 506 613 q 545 621 532 621 q 570 624 557 621 q 581 627 576 625 q 593 629 586 628 q 610 631 601 631 q 628 631 620 631 q 671 634 650 633 q 715 636 693 635 q 728 632 722 633 q 739 628 734 631 q 746 622 743 625 q 755 617 749 618 q 765 604 762 610 q 766 586 762 591 q 759 568 760 579 q 757 547 758 556 q 773 532 766 544 q 783 519 780 519 l 788 519 z "},"H":{"ha":807,"x_min":83,"x_max":724,"o":"m 662 1004 q 685 1007 678 1008 q 699 1005 692 1006 q 712 991 707 1000 q 711 935 712 963 q 711 879 711 907 q 712 776 711 827 q 712 673 713 724 q 713 659 715 661 q 712 655 712 658 q 715 553 712 604 q 718 452 718 503 l 718 271 q 721 156 718 213 q 724 42 724 99 q 718 27 724 37 q 709 9 715 16 q 686 14 697 8 q 679 10 681 14 q 673 4 677 7 q 655 -1 662 4 q 639 -7 648 -7 q 623 -5 631 -7 q 606 -3 616 -3 q 598 -7 604 -3 q 590 -14 593 -12 q 578 -16 583 -14 q 566 -18 572 -18 q 559 -1 559 -12 q 551 12 560 9 q 551 27 551 19 q 552 43 552 35 q 549 150 552 96 q 545 256 547 203 q 545 302 544 279 q 545 347 545 324 q 545 372 545 359 q 543 395 545 384 q 528 393 534 396 q 515 389 522 389 q 477 370 487 380 q 464 368 469 370 q 452 362 458 365 q 431 357 441 359 q 410 351 420 355 q 396 346 403 349 q 382 340 389 343 q 353 330 368 335 q 323 320 338 326 q 297 312 308 317 q 275 301 286 307 q 265 180 266 237 q 269 65 264 122 q 266 47 266 57 q 262 30 266 37 q 242 29 247 26 q 232 35 237 33 q 223 30 227 34 q 217 23 220 26 q 200 18 206 23 q 189 11 194 14 q 180 11 184 9 q 171 9 176 12 q 158 13 157 9 q 155 16 159 16 q 147 12 149 16 q 140 4 145 7 q 127 1 134 1 q 114 -3 121 0 q 107 12 107 4 q 100 27 107 20 q 97 64 98 46 q 92 102 96 83 q 94 163 95 140 q 94 210 94 186 q 92 254 94 232 q 90 297 91 275 q 85 377 87 336 q 83 458 83 418 q 86 525 83 492 q 90 591 90 557 q 90 637 90 614 q 91 682 91 659 q 90 720 91 701 q 90 755 90 738 q 92 795 90 776 q 95 834 95 815 q 92 880 95 857 q 90 925 90 902 q 91 938 90 932 q 92 951 92 944 q 94 969 91 966 q 99 978 96 972 q 114 982 106 979 q 129 982 122 985 q 151 990 137 990 q 172 1000 165 990 q 185 999 182 998 q 191 1000 189 1000 q 204 1000 203 997 q 209 1004 205 1004 q 230 1003 216 1004 q 250 997 244 1002 q 264 850 263 925 q 266 703 266 776 q 267 664 266 684 q 266 625 269 644 q 264 610 266 617 q 263 594 263 602 q 260 546 263 571 q 258 498 258 521 q 286 492 274 488 q 308 499 297 495 q 333 508 321 503 q 357 517 345 513 q 380 526 368 522 q 404 532 393 529 q 473 562 439 544 q 543 590 507 579 q 540 739 540 665 q 540 886 540 812 q 540 928 540 906 q 543 970 540 949 q 546 979 544 975 q 548 989 548 982 q 557 998 552 996 q 566 1006 563 1001 q 572 1002 568 1004 q 579 998 575 1000 q 592 1002 590 1001 q 597 1005 594 1004 q 614 1008 604 1008 q 632 1008 625 1008 l 648 1008 l 662 1004 z "},"I":{"ha":545,"x_min":14,"x_max":498,"o":"m 496 156 q 494 141 494 148 q 496 125 494 133 q 498 109 498 117 q 494 79 495 84 q 460 63 486 72 q 401 45 435 54 q 326 28 366 37 q 250 11 286 19 q 182 -3 213 3 q 137 -12 152 -9 q 124 -16 130 -14 q 111 -20 118 -18 q 98 -21 104 -22 q 84 -23 91 -20 q 77 -19 80 -23 q 71 -12 73 -15 q 68 0 71 -4 q 62 7 65 4 q 56 13 58 9 q 53 24 53 16 q 45 41 50 35 q 41 53 41 47 q 35 84 35 71 q 37 95 35 91 q 41 103 38 99 q 53 110 49 106 q 64 117 57 114 q 87 124 72 121 q 119 132 102 127 q 153 140 137 136 q 180 148 170 144 q 189 149 184 149 q 195 152 193 149 q 192 195 193 174 q 189 237 191 217 q 187 256 189 247 q 186 274 186 266 l 187 302 q 183 406 187 354 q 179 509 179 457 l 179 555 q 178 575 179 566 q 178 595 178 585 q 178 645 178 621 q 179 694 179 669 l 179 819 q 123 819 149 826 q 71 808 98 811 q 60 829 61 818 q 45 848 49 844 q 35 871 41 852 q 20 895 26 890 q 14 910 14 899 q 17 920 14 917 q 23 929 20 922 q 37 937 35 935 q 42 940 39 939 q 73 954 56 949 q 107 963 91 958 q 133 972 121 967 q 160 982 145 978 q 195 993 178 987 q 229 1002 213 998 q 250 1004 240 1005 q 271 1010 260 1004 q 309 1011 289 1008 q 351 1020 328 1015 q 396 1029 374 1025 q 429 1036 418 1034 q 438 1029 435 1034 q 446 1024 441 1025 q 449 1014 448 1020 q 454 1005 450 1008 q 461 983 454 990 q 466 953 460 970 q 472 921 472 936 q 450 895 465 901 q 416 886 434 890 q 380 878 397 882 q 351 871 362 875 q 352 831 351 852 q 353 791 353 811 q 352 753 353 772 q 351 715 351 734 q 351 656 351 686 q 350 597 350 627 q 351 513 350 555 q 355 429 353 471 q 357 408 357 422 q 359 302 357 354 q 366 194 361 250 q 393 199 384 193 q 406 202 400 199 q 418 208 412 205 q 440 212 426 209 q 458 216 454 216 q 473 216 471 214 q 486 203 477 208 q 490 180 488 191 q 496 156 492 168 z "},"J":{"ha":591,"x_min":20,"x_max":509,"o":"m 499 7 q 486 3 491 7 q 473 -3 480 0 q 463 -13 463 -9 q 460 -16 464 -16 q 436 -12 448 -16 q 412 -8 425 -8 q 392 3 401 -3 q 373 19 382 9 q 356 17 361 19 q 345 16 351 15 q 312 36 327 23 q 278 56 297 49 q 266 66 273 62 q 252 75 259 69 q 216 95 240 80 q 166 127 193 110 q 117 160 140 144 q 84 186 94 176 q 68 195 79 187 q 47 212 57 202 q 28 231 37 221 q 20 247 20 240 q 27 258 20 254 q 37 270 34 263 q 37 277 38 273 q 38 285 37 282 q 45 302 45 296 q 47 313 46 308 q 60 328 54 321 q 72 343 65 335 q 77 365 71 358 q 92 378 84 372 q 109 377 99 378 q 125 373 118 376 q 138 364 138 366 q 141 359 138 362 q 155 350 148 354 q 168 342 161 346 q 199 320 183 331 q 231 298 214 309 q 276 270 250 288 q 324 244 302 252 q 327 266 327 252 q 326 285 327 275 q 326 305 326 294 q 323 335 326 320 q 317 363 320 350 q 309 491 311 429 q 307 528 308 510 q 305 564 305 545 q 306 616 305 590 q 307 669 307 642 q 308 715 307 692 q 309 761 309 738 q 310 804 309 784 q 311 848 311 825 q 310 922 311 882 q 313 997 309 963 q 321 1017 316 1010 q 361 1015 346 1016 q 395 1015 376 1015 q 404 1011 400 1015 q 411 1008 407 1008 q 420 1010 416 1008 q 429 1012 423 1012 q 446 1004 438 1012 q 469 1005 461 1008 q 478 986 476 998 q 483 963 480 974 q 484 944 483 951 q 484 930 484 937 q 483 901 484 916 q 481 871 481 886 q 484 836 481 853 q 486 800 486 818 q 484 765 486 781 q 483 731 483 749 q 484 705 483 718 q 484 681 484 693 q 484 624 484 652 q 483 567 483 595 q 484 551 483 560 q 483 533 484 541 q 477 518 483 526 q 482 429 480 473 q 487 339 484 384 q 488 315 487 328 q 491 290 490 302 q 494 260 494 275 q 495 231 494 245 q 498 193 496 212 q 502 156 500 175 q 506 126 503 141 q 509 96 509 111 q 507 51 509 77 q 499 7 506 24 z "},"K":{"ha":742,"x_min":83,"x_max":749,"o":"m 651 -3 q 623 -30 644 -19 q 606 -17 613 -24 q 587 -5 598 -9 q 575 14 579 11 q 566 19 571 18 q 552 35 557 26 q 540 52 547 45 q 530 60 537 53 q 514 76 522 68 q 499 92 506 84 q 491 99 492 99 q 469 117 479 107 q 463 125 467 121 q 457 133 460 130 q 439 144 446 137 q 427 161 433 152 q 413 178 420 171 q 396 190 406 186 q 373 212 387 203 q 350 233 359 221 q 332 252 342 243 q 312 269 323 260 q 294 292 307 277 q 273 309 282 308 q 271 247 271 278 q 269 184 270 216 q 269 151 269 168 q 269 115 270 133 q 265 101 267 109 q 263 85 263 94 q 261 64 263 69 q 258 56 259 60 q 250 22 254 42 q 236 -8 247 3 q 213 -5 221 -9 q 208 -11 210 -8 q 199 -14 205 -14 q 191 -9 197 -11 q 182 -7 184 -7 q 168 -9 175 -7 q 153 -12 160 -12 q 142 -9 146 -12 q 130 -5 137 -5 q 121 -9 126 -5 q 110 -14 115 -14 q 98 -12 103 -14 q 88 -8 94 -9 q 89 0 88 -4 q 88 8 90 4 l 83 42 q 86 61 84 52 q 90 79 88 71 q 92 120 91 100 q 92 160 92 140 q 92 229 92 195 q 92 298 91 263 q 96 323 94 311 q 98 349 98 336 q 102 418 98 384 q 109 487 106 452 q 111 540 111 514 q 111 591 111 566 q 110 691 111 642 q 109 789 109 741 q 110 833 109 806 q 107 876 111 861 q 107 954 109 916 q 113 962 113 956 q 114 972 114 967 l 114 991 q 134 1005 126 1005 q 148 1004 141 1005 q 161 998 155 1002 q 184 1000 179 1002 q 197 994 190 997 q 212 1004 208 996 q 227 997 227 1001 q 229 989 227 993 q 248 991 243 987 q 259 996 252 994 q 275 989 271 993 q 279 970 275 981 q 283 944 283 960 q 282 920 283 932 q 281 898 281 909 q 282 861 281 879 q 283 825 283 844 q 283 814 283 819 q 282 804 282 810 q 285 700 282 753 q 288 594 288 647 q 286 587 288 591 q 288 579 285 582 q 327 631 311 604 q 362 686 343 659 q 395 735 378 707 q 425 787 412 764 q 434 803 430 795 q 444 819 438 811 q 451 832 446 826 q 458 846 456 838 q 471 867 465 857 q 483 888 476 878 q 497 908 490 899 q 511 926 505 917 q 534 962 522 944 q 556 1000 547 981 q 581 1015 570 1006 q 604 1031 591 1024 q 623 1006 617 1013 q 640 998 629 1000 q 644 989 643 994 q 648 981 644 983 q 667 981 665 979 q 679 970 671 974 q 693 964 686 967 q 693 956 693 960 q 694 948 693 951 q 711 922 711 941 q 654 835 685 876 q 601 746 624 793 q 585 718 594 731 q 571 689 576 704 q 556 669 562 680 q 543 650 551 659 q 532 635 537 643 q 521 621 526 628 q 501 591 510 606 q 480 560 492 575 q 461 533 472 547 q 443 500 450 518 q 425 467 435 481 q 413 443 414 450 q 406 418 412 435 q 427 391 415 403 q 453 368 439 378 q 478 341 464 353 q 507 316 492 330 q 517 306 513 311 q 526 297 521 301 q 562 266 541 281 q 602 237 583 251 q 640 204 617 224 q 686 162 662 184 q 730 120 711 140 q 749 95 749 100 q 733 70 742 75 q 720 56 724 65 q 712 50 712 53 q 708 41 712 47 q 692 25 699 34 q 678 8 685 16 q 668 3 673 5 q 661 -4 663 1 l 651 -3 z "},"L":{"ha":609,"x_min":83,"x_max":616,"o":"m 593 232 q 604 212 602 220 q 609 197 606 205 q 614 183 612 190 q 616 175 616 176 q 612 159 616 165 q 602 144 609 153 q 495 104 548 123 q 387 65 442 84 q 359 56 372 61 q 332 49 347 52 q 323 44 330 46 q 309 39 317 42 q 294 35 301 37 q 283 33 286 33 q 260 31 273 30 q 235 30 247 31 q 225 23 228 28 q 219 12 222 18 q 209 1 216 5 q 190 -4 202 -4 q 165 -3 178 -4 q 140 4 153 -1 q 138 14 137 8 q 136 24 138 20 q 117 22 123 26 q 103 18 110 19 q 97 31 99 23 q 90 43 95 38 q 88 57 88 50 q 88 71 88 64 q 89 93 88 80 q 94 113 90 106 q 98 268 98 190 q 98 423 98 346 q 98 443 98 430 q 97 469 98 456 q 96 494 96 483 q 94 511 95 506 q 95 530 95 521 q 95 548 95 538 q 95 563 95 556 q 92 576 95 570 q 94 591 94 582 q 92 605 94 598 q 91 618 91 612 q 92 640 91 629 q 92 661 92 650 q 89 730 92 696 q 85 800 85 765 q 85 892 85 846 q 83 985 84 939 q 88 1008 88 998 q 118 1015 107 1017 q 140 1012 129 1012 q 152 1013 146 1012 q 163 1017 157 1015 q 174 1014 170 1016 q 186 1012 179 1012 q 208 1013 206 1016 q 214 1008 210 1010 q 223 1013 220 1009 q 232 1016 227 1016 q 244 1006 240 1016 q 254 989 248 996 q 259 962 254 974 q 261 852 262 906 q 264 743 260 798 q 268 692 266 719 q 270 642 270 666 q 271 559 270 601 q 271 476 271 518 q 272 464 271 469 q 273 452 273 458 q 271 420 273 435 q 270 391 270 406 l 270 285 q 269 257 270 271 q 270 229 269 243 l 275 213 q 306 224 290 218 q 339 233 321 231 q 359 239 350 236 q 380 244 369 241 q 410 259 399 255 q 431 267 420 263 q 476 284 454 275 q 521 301 498 293 q 538 304 532 298 q 563 301 552 301 q 581 278 578 286 q 591 263 585 270 q 592 255 589 256 q 597 248 595 254 q 598 241 602 245 q 593 232 594 236 z "},"M":{"ha":1066,"x_min":62,"x_max":1025,"o":"m 1025 4 q 1010 -4 1019 -3 q 994 -5 1002 -5 q 951 -15 974 -15 q 935 -9 936 -7 q 929 -15 933 -12 q 892 -25 909 -24 q 865 -33 876 -26 q 854 -9 854 -24 q 850 18 853 7 q 841 41 844 27 q 837 71 838 56 q 833 100 836 85 q 826 125 831 114 q 825 137 825 132 q 823 149 826 142 q 822 186 825 172 q 817 214 819 199 q 815 233 815 222 q 807 248 815 243 q 808 277 811 267 q 804 294 806 286 q 803 318 803 305 q 800 342 803 331 q 783 472 792 407 q 765 602 773 537 q 753 582 757 595 q 747 557 750 568 q 732 507 739 533 q 719 457 726 481 q 714 432 716 446 q 708 407 712 418 q 684 339 694 368 q 665 281 674 311 q 659 250 662 264 q 654 220 656 235 q 650 197 652 212 q 644 175 647 182 q 640 165 642 168 q 639 156 637 163 q 621 111 625 136 q 604 64 616 87 q 591 35 604 47 q 578 33 585 34 q 566 27 572 31 q 550 31 559 30 q 533 31 541 31 q 521 36 526 33 q 509 41 515 39 q 494 55 502 49 q 477 68 486 61 q 463 95 469 88 q 452 123 458 110 q 442 152 445 136 q 432 180 438 167 q 419 208 426 193 q 413 226 416 217 q 406 244 410 235 q 398 271 404 255 q 389 300 392 288 q 385 314 389 301 q 375 342 380 327 q 366 369 370 357 q 359 382 361 381 q 355 395 357 389 q 350 410 353 401 q 336 446 345 427 q 320 480 328 464 q 311 507 313 494 q 304 532 308 519 q 299 544 301 538 q 294 556 297 549 q 289 573 292 564 q 283 591 286 582 q 277 580 277 589 q 277 564 278 571 q 274 535 274 549 q 273 506 274 521 q 267 475 270 490 q 263 445 264 460 q 259 372 263 408 q 252 306 256 339 q 247 237 248 273 q 241 186 247 212 q 239 134 236 161 q 236 126 236 129 q 236 118 236 123 q 235 103 236 111 q 235 88 235 95 q 237 72 235 76 q 233 45 233 60 q 233 18 233 31 q 230 7 231 12 q 225 -4 229 1 q 212 -27 227 -27 q 203 -25 208 -27 q 195 -19 198 -23 q 178 -12 180 -20 q 170 -5 176 -4 q 151 -9 153 -12 q 142 -8 149 -7 q 128 1 132 3 q 122 0 125 0 q 109 2 110 4 q 103 0 107 0 q 85 7 96 7 q 65 8 73 7 q 63 18 64 14 q 62 30 62 23 q 63 45 62 38 q 64 61 64 53 q 63 75 64 68 q 62 92 62 83 q 64 111 62 102 q 65 130 65 119 q 64 138 65 134 q 62 146 62 141 q 70 174 71 164 q 71 194 69 184 q 75 239 73 217 q 80 285 77 262 q 82 348 80 323 q 88 399 84 373 q 93 422 91 411 q 98 445 95 433 q 101 488 100 465 q 104 532 102 510 q 111 599 107 566 q 118 665 115 632 q 124 715 121 690 q 127 764 127 741 q 131 795 127 776 q 136 827 134 814 q 140 891 138 860 q 142 954 142 922 l 142 968 q 145 974 142 971 q 148 983 148 977 q 154 1000 148 996 q 164 1016 160 1005 q 180 1015 171 1016 q 193 1006 189 1013 q 212 1009 202 1009 q 228 1016 221 1009 q 240 1012 236 1016 q 251 1005 244 1008 q 262 1010 256 1008 q 273 1015 267 1012 q 279 1008 277 1012 q 285 1004 281 1005 q 312 1005 305 1009 q 315 994 315 1000 q 317 983 316 989 q 335 953 331 970 q 350 922 339 936 q 356 906 353 914 q 362 887 359 898 l 366 871 q 380 838 372 857 q 392 785 387 812 q 410 735 397 758 q 414 715 411 727 q 420 696 418 704 q 440 650 430 673 q 458 602 450 628 q 473 549 467 576 q 488 496 479 522 q 500 461 496 472 q 511 439 505 450 q 513 426 511 435 q 519 406 515 416 q 528 387 524 396 q 536 377 532 378 q 541 385 540 380 q 545 395 541 391 q 550 431 547 410 q 560 467 553 453 q 564 492 560 473 q 572 531 567 510 q 583 570 578 552 q 591 591 587 587 q 596 613 594 609 q 601 620 598 617 q 606 640 602 631 q 612 661 610 650 q 618 699 614 684 q 629 735 623 713 q 640 774 635 754 q 651 812 644 793 q 680 904 667 864 q 712 982 693 944 q 719 997 716 994 q 724 1002 722 1000 q 747 1006 735 1006 q 770 1005 758 1006 q 791 1017 784 1010 q 807 1010 796 1010 q 826 1019 821 1010 q 835 1017 831 1016 q 845 1016 838 1019 q 852 1022 848 1019 q 860 1025 856 1025 q 877 1004 871 1012 q 886 987 883 997 q 890 961 890 975 q 898 935 891 947 q 900 881 897 917 q 908 805 903 845 q 918 731 913 765 q 928 689 924 697 q 929 659 926 671 q 932 635 932 647 q 933 618 932 631 q 936 591 935 605 q 939 564 937 576 q 943 545 941 551 q 951 507 943 521 q 962 439 958 473 q 971 370 967 406 q 975 336 974 353 q 978 302 975 320 q 981 289 979 296 q 985 275 983 282 q 989 250 987 262 q 993 225 990 237 q 997 211 994 218 q 997 195 1000 203 q 999 175 1000 186 q 1004 156 998 164 q 1008 106 1004 127 q 1016 73 1009 90 q 1021 39 1019 57 q 1025 4 1023 22 z "},"N":{"ha":788,"x_min":83,"x_max":700,"o":"m 661 1019 q 682 1015 675 1019 q 691 991 689 1001 q 693 967 693 981 q 694 938 694 947 q 692 920 693 929 q 690 878 690 898 q 690 837 690 859 q 692 741 690 789 q 693 644 693 692 q 692 607 693 625 q 692 570 692 589 q 692 561 692 566 q 693 552 693 556 q 692 528 693 540 q 692 506 692 517 q 692 496 692 500 q 693 486 692 492 q 690 471 690 475 q 692 427 690 449 q 693 382 693 404 q 694 343 693 362 q 694 304 694 324 q 694 281 694 293 q 693 256 693 269 q 694 199 693 228 q 697 141 696 170 q 697 104 697 122 q 700 66 697 85 q 698 35 700 45 q 693 15 696 24 q 679 13 682 12 q 671 14 675 14 q 647 3 652 8 q 635 -7 642 -1 q 622 -7 629 -7 q 610 -12 614 -8 q 600 -11 604 -9 q 591 -12 595 -12 q 566 -17 572 -14 q 547 -20 559 -20 q 530 7 536 -3 q 513 16 525 18 q 488 73 495 43 q 463 127 480 103 q 458 141 461 138 q 453 152 456 144 q 444 175 448 163 q 433 198 439 187 q 411 243 422 221 q 391 290 400 266 q 384 313 387 301 q 377 335 381 324 q 371 346 374 340 q 365 355 368 351 q 349 385 357 370 q 332 415 342 400 q 325 428 330 422 q 315 441 320 434 q 307 460 311 450 q 300 479 304 469 q 292 496 297 487 q 283 513 286 505 q 279 526 281 519 q 271 538 278 533 q 262 517 262 522 q 260 490 260 500 q 259 472 259 480 q 261 454 259 463 q 263 437 263 445 q 267 371 266 404 q 269 305 269 338 q 268 266 267 279 q 270 239 269 252 q 271 211 271 225 q 271 183 270 197 q 272 123 271 152 q 273 62 273 94 l 273 30 q 269 3 273 15 q 242 4 248 3 q 229 8 236 5 q 216 2 221 7 q 205 -7 212 -3 q 189 -7 190 -5 q 183 -12 187 -9 q 176 -12 179 -14 q 168 -11 172 -11 q 151 -8 157 -8 q 135 -14 142 -11 q 119 -18 127 -16 q 110 18 111 -3 q 99 53 109 38 q 102 60 102 58 q 103 68 103 61 q 102 130 103 99 q 100 193 100 161 q 97 243 100 218 q 94 293 94 267 q 95 309 94 301 q 96 327 96 317 q 96 335 96 331 q 95 342 95 339 q 92 392 92 366 q 91 444 91 418 q 89 475 90 458 q 88 509 88 491 q 90 524 88 515 q 91 540 91 532 l 91 597 q 89 618 88 613 q 90 629 90 624 q 87 653 90 642 q 85 678 85 665 q 87 696 85 688 q 90 715 90 705 q 87 754 90 735 q 85 793 85 773 l 85 909 q 84 928 85 918 q 83 948 83 937 q 98 968 91 967 q 110 972 104 968 q 136 975 125 970 q 157 979 153 974 q 165 977 160 977 q 174 977 170 978 q 180 982 178 979 q 189 987 183 985 q 206 998 203 996 q 213 1002 209 1000 q 222 998 220 1002 q 231 994 224 994 q 237 983 233 989 q 247 975 241 978 q 273 936 258 952 q 300 868 285 901 q 334 803 316 836 q 335 793 334 799 q 338 784 336 787 q 357 745 345 769 q 380 707 370 722 q 387 697 382 701 q 393 688 391 693 q 400 673 397 681 q 407 658 403 665 q 422 626 414 642 q 441 594 431 610 q 447 578 444 586 q 454 562 450 570 q 474 524 465 537 q 487 496 483 511 q 502 473 496 486 q 518 452 507 460 q 521 492 519 458 q 522 564 522 525 q 522 639 522 604 q 522 686 522 674 q 521 759 522 723 q 519 830 519 795 q 520 888 519 859 q 522 945 521 917 q 523 973 524 960 q 524 1000 522 986 q 529 1013 525 1006 q 536 1027 533 1020 q 563 1020 553 1029 q 583 1024 571 1024 q 602 1025 594 1024 q 614 1027 613 1027 q 618 1028 616 1028 q 629 1024 624 1025 q 640 1020 633 1023 q 661 1019 652 1024 z "},"O":{"ha":741,"x_min":0,"x_max":741,"o":"m 735 538 q 730 528 732 533 q 726 518 727 524 q 736 507 731 513 q 741 494 741 500 q 739 484 741 488 q 738 475 736 479 q 726 457 732 465 q 718 439 720 449 q 709 429 712 434 q 703 418 705 423 q 694 409 696 415 q 686 399 692 403 q 673 373 685 393 q 646 330 661 353 q 617 285 631 307 q 598 256 604 263 q 592 245 595 250 q 585 236 589 241 q 581 227 582 232 q 576 220 579 222 q 570 210 574 214 q 564 199 567 206 q 537 157 551 182 q 511 114 524 133 q 498 92 505 103 q 486 71 492 81 q 472 50 479 60 q 458 30 465 41 q 439 10 448 22 q 420 -9 431 -1 q 399 7 403 -9 q 381 7 381 11 q 381 0 381 3 q 374 -8 376 -3 q 366 -16 372 -14 q 348 -7 355 -14 q 327 -3 340 -1 q 315 12 321 5 q 302 24 308 18 q 295 38 300 33 q 286 49 290 43 q 278 61 282 56 q 270 72 274 66 q 252 96 260 84 q 236 119 243 107 q 215 153 225 136 q 194 186 205 170 q 183 202 189 194 q 174 218 178 210 q 166 235 171 225 q 155 247 161 244 q 145 263 152 258 q 132 277 138 269 q 114 300 122 288 q 98 327 106 313 q 47 401 71 365 q 0 477 23 438 q 7 510 7 499 q 14 528 7 521 q 16 544 14 533 q 50 598 34 574 q 71 636 65 621 q 84 667 77 651 q 95 677 91 671 q 106 689 99 684 q 118 714 109 704 q 130 739 127 724 q 144 761 142 749 q 165 793 161 773 q 184 818 176 804 q 198 846 191 831 q 224 882 214 860 q 236 897 232 887 q 247 913 240 906 q 264 942 258 930 q 277 966 270 954 q 289 972 286 966 q 300 978 292 979 q 307 1000 300 990 q 315 1003 309 1001 q 320 1008 320 1005 q 321 1027 317 1024 q 328 1032 326 1029 q 349 1028 343 1029 q 366 1019 354 1027 q 385 1013 380 1019 q 397 1005 391 1008 q 406 994 403 1000 q 416 986 410 989 q 439 954 427 971 q 463 921 452 936 q 493 882 477 901 q 522 842 509 864 q 537 819 526 836 q 562 783 548 802 q 586 748 575 764 q 601 730 597 732 q 618 704 605 723 q 648 664 632 685 q 678 624 663 643 q 699 600 693 605 q 721 566 713 579 q 735 538 728 553 m 425 283 q 448 320 439 304 q 464 353 456 336 q 480 376 477 369 q 487 389 483 382 q 509 422 498 406 q 528 457 521 438 q 540 471 536 463 q 552 486 544 479 q 533 530 544 514 q 511 560 522 545 q 503 574 507 567 q 495 587 499 581 q 486 595 490 591 q 479 604 483 600 q 471 621 476 610 q 460 633 465 628 q 450 647 454 639 q 437 662 445 652 q 420 683 429 671 q 404 705 411 694 q 393 722 397 715 q 389 733 391 728 q 384 743 387 738 q 370 760 377 753 q 357 777 363 768 q 349 774 353 774 q 343 770 346 773 q 322 738 334 753 q 300 705 311 723 q 281 672 290 689 q 262 639 271 655 q 249 621 255 629 q 236 601 243 612 q 224 581 229 591 q 213 562 220 571 q 195 537 202 548 q 182 511 189 526 q 195 489 186 503 q 213 460 203 475 q 230 434 222 446 q 239 418 237 422 q 256 397 250 408 q 274 374 263 385 q 286 355 279 363 q 300 338 293 347 q 317 310 307 328 q 339 273 328 292 q 361 237 350 254 q 378 217 372 221 q 401 250 392 232 q 425 283 410 269 z "},"P":{"ha":677,"x_min":83,"x_max":684,"o":"m 193 986 q 202 990 198 987 q 212 993 206 993 q 218 987 216 991 q 224 981 220 983 q 231 986 228 983 q 239 990 235 989 q 254 977 252 986 q 266 970 260 974 q 278 966 271 967 q 285 958 281 960 q 294 949 289 955 q 330 935 308 947 q 366 916 353 922 q 393 902 380 909 q 419 887 407 895 q 444 871 431 880 q 469 857 456 863 q 500 838 481 842 q 534 823 519 834 q 557 809 547 817 q 579 795 568 802 q 589 784 583 788 q 601 773 595 780 q 632 750 628 758 q 644 742 636 747 q 661 730 652 736 q 675 718 669 724 q 684 707 682 712 q 678 687 678 694 q 673 674 678 680 q 681 654 681 663 q 658 627 674 637 q 645 610 654 616 q 633 593 636 604 q 621 582 623 586 q 616 574 618 578 q 568 527 590 547 q 526 484 545 507 q 503 467 513 477 q 486 445 494 457 q 465 424 475 434 q 444 404 454 414 q 435 395 441 399 q 426 385 429 392 q 401 366 411 378 q 378 346 392 354 l 369 332 q 357 323 365 330 q 342 310 350 317 q 330 296 335 302 q 323 285 324 289 q 310 277 319 283 q 292 262 301 270 q 276 245 283 254 q 267 235 269 237 l 254 225 q 256 151 255 189 q 256 77 256 114 l 256 31 l 247 19 q 236 22 240 19 q 227 24 232 24 q 216 19 221 24 q 208 11 212 14 q 192 6 198 9 q 179 0 186 3 q 163 4 171 4 q 146 3 145 0 q 140 5 146 5 q 126 -5 129 -5 q 116 -7 121 -5 q 106 -8 111 -8 q 97 14 100 3 q 84 37 94 26 q 83 56 88 50 q 90 90 91 71 q 88 125 88 109 q 89 143 88 134 q 90 160 90 152 q 87 193 90 176 q 84 228 84 210 q 87 310 84 269 q 90 392 90 351 q 87 439 90 415 q 85 487 85 464 q 87 515 85 502 q 90 540 88 528 q 92 660 90 602 q 94 774 94 718 q 93 810 94 793 q 92 846 92 827 q 94 865 92 856 q 95 884 95 875 q 99 968 99 926 l 98 990 q 114 998 103 998 q 137 989 129 998 q 155 992 146 990 q 172 994 164 994 q 193 986 184 994 m 273 770 q 271 760 273 764 q 269 754 270 757 q 269 745 269 750 q 270 735 270 741 q 269 673 270 704 q 269 613 269 643 l 266 541 q 267 526 266 534 q 269 511 269 518 q 267 498 269 505 q 266 484 266 491 q 270 449 266 467 q 279 458 277 452 q 286 468 282 464 q 345 528 317 496 q 400 590 372 559 q 442 632 425 616 q 469 671 460 648 q 422 702 446 686 q 370 728 397 718 q 363 735 369 731 q 350 743 357 739 q 336 749 343 746 q 327 751 330 751 q 301 765 315 762 q 285 768 292 765 q 275 774 278 772 l 273 770 z "},"Q":{"ha":741,"x_min":0,"x_max":728,"o":"m 389 998 q 397 1004 393 1001 q 406 1008 400 1006 q 419 1001 412 1005 q 433 994 426 997 q 471 935 456 971 q 490 907 477 920 q 511 879 503 895 q 522 860 517 868 q 534 841 528 852 q 576 776 556 811 q 616 709 595 741 q 653 642 635 675 q 692 575 671 609 q 697 560 692 568 q 697 533 699 538 q 711 518 703 524 q 727 506 720 513 q 724 486 728 495 q 718 467 719 477 q 680 406 700 437 q 660 374 669 391 q 640 343 651 358 q 629 321 633 328 q 623 307 625 313 q 604 273 609 292 q 583 240 598 255 q 604 205 586 224 q 635 176 623 187 q 644 162 639 168 q 655 149 650 156 q 661 144 658 146 q 669 138 665 141 q 676 123 670 129 q 690 114 682 117 q 701 96 696 99 q 705 88 705 92 q 703 73 705 81 q 685 54 694 64 q 665 37 675 43 q 656 17 661 28 q 645 -6 651 5 q 632 -27 639 -18 q 618 -39 625 -37 q 601 -20 601 -30 q 588 -10 597 -19 q 579 1 579 -1 q 525 52 545 20 q 517 56 521 54 q 510 60 514 58 q 503 70 507 66 q 495 80 498 73 q 484 73 491 83 q 470 52 477 64 q 457 28 463 39 q 450 14 452 16 q 435 -1 442 7 q 419 -15 427 -8 q 397 -33 403 -27 q 388 -49 391 -38 q 373 -56 376 -54 q 368 -57 370 -57 q 352 -48 361 -57 q 338 -35 343 -39 q 323 -33 331 -34 q 311 -24 316 -31 q 299 1 302 -9 q 285 15 296 11 q 281 24 285 22 q 274 33 278 27 q 254 68 263 47 q 235 106 245 88 q 210 138 224 122 q 184 170 197 155 q 176 180 180 175 q 167 191 171 186 q 150 220 159 206 q 132 248 141 235 q 125 256 129 252 q 119 264 122 259 q 106 286 111 275 q 94 309 100 297 q 68 352 83 332 q 43 393 54 372 q 22 437 33 418 q 3 476 11 457 q 2 484 3 480 q 0 494 1 488 q 10 518 7 511 q 14 532 14 525 q 20 541 16 536 q 24 552 23 545 q 85 642 57 595 q 141 732 113 688 q 199 825 172 779 q 255 917 225 872 q 258 928 255 925 q 262 937 262 932 q 274 954 269 944 q 282 972 279 963 q 291 986 286 979 q 298 1001 296 993 q 307 1010 304 1005 q 315 1021 311 1016 q 324 1028 321 1024 q 338 1032 327 1032 q 345 1031 342 1032 q 353 1032 349 1031 q 363 1024 359 1029 q 374 1017 366 1019 q 382 1007 377 1010 q 389 998 387 1004 m 460 646 q 437 683 448 665 q 414 718 427 701 q 408 730 412 722 q 397 747 403 739 q 384 762 391 755 q 373 769 377 769 q 355 757 363 762 q 340 724 350 741 q 321 693 331 708 q 304 673 312 682 q 293 650 297 665 q 281 637 286 643 q 271 624 277 631 q 257 594 267 610 q 236 562 247 578 q 214 529 225 545 q 195 499 203 513 q 185 481 186 487 q 183 471 184 476 q 202 435 190 452 q 224 401 214 419 q 243 365 235 382 q 266 332 251 347 q 311 267 290 301 q 361 205 332 232 q 373 225 370 213 q 391 248 382 236 q 406 271 399 260 q 419 298 411 285 q 444 334 431 317 q 465 370 457 351 q 479 393 473 381 q 495 414 484 404 q 507 441 498 430 q 524 465 515 453 q 530 481 526 475 q 538 496 534 488 q 515 549 529 524 q 486 598 500 574 q 477 617 481 608 q 468 633 473 627 l 460 646 z "},"R":{"ha":731,"x_min":83,"x_max":738,"o":"m 677 654 q 644 605 665 628 q 604 562 623 582 q 578 529 589 547 q 553 496 567 511 q 532 474 543 484 q 511 452 521 464 q 498 441 505 446 q 487 427 492 435 q 535 349 507 384 q 593 278 563 313 q 623 245 608 260 q 648 212 637 229 q 668 181 658 191 q 686 160 678 171 q 701 136 694 146 q 718 117 707 126 q 726 104 718 110 q 736 91 734 98 q 737 80 736 84 q 738 73 738 76 q 724 55 734 62 q 705 39 713 47 q 682 31 692 39 q 656 23 673 23 q 646 12 650 18 q 635 0 642 5 q 615 -6 624 0 q 595 -15 606 -12 q 574 6 582 -7 q 552 26 566 19 q 547 37 551 33 q 541 47 544 42 q 498 102 518 73 q 457 159 477 130 q 435 182 446 171 q 412 208 423 194 q 399 227 406 216 q 384 247 392 237 q 368 266 374 255 q 351 283 361 277 q 330 266 339 277 q 308 247 320 255 q 287 228 297 237 q 266 210 277 218 q 263 150 263 179 q 263 92 263 121 q 262 48 263 69 q 256 5 262 27 q 243 13 250 4 q 231 23 237 22 q 222 18 225 22 q 212 16 218 14 q 191 4 205 9 q 176 2 184 4 q 161 0 168 0 q 146 3 151 0 q 124 -7 133 -7 q 110 -8 115 -8 q 104 10 107 1 q 100 30 102 19 q 94 42 96 35 q 90 56 92 49 q 91 65 91 60 q 91 76 91 71 q 90 121 91 99 q 91 165 88 142 q 87 179 88 172 q 85 193 85 186 q 86 202 85 197 q 90 210 87 208 q 85 248 85 228 q 84 285 84 267 q 86 304 84 294 q 88 326 88 315 q 85 370 88 349 q 83 414 83 392 q 84 437 84 429 q 85 453 84 445 q 84 469 87 461 q 87 479 85 476 q 90 490 90 483 q 90 524 90 507 q 91 560 91 541 q 92 587 91 574 q 92 614 92 600 q 94 637 92 627 q 98 659 96 648 q 99 683 99 671 q 99 705 99 694 q 99 763 99 734 q 96 821 99 792 q 94 836 95 827 q 92 852 92 844 q 88 905 90 878 q 83 959 87 932 q 85 968 85 963 q 85 977 85 972 q 85 989 85 983 q 84 1002 85 996 q 90 1008 87 1005 q 95 1015 92 1012 q 112 1014 103 1015 q 127 1008 121 1013 q 143 1014 134 1010 q 159 1017 152 1017 q 175 1012 170 1017 q 182 1018 182 1015 q 193 1021 183 1021 q 218 1023 210 1023 q 232 1024 225 1023 q 239 1017 236 1021 q 244 1009 241 1013 q 292 979 274 998 q 334 945 311 959 q 345 939 339 941 q 355 933 350 936 q 380 916 368 925 q 406 899 392 906 q 421 892 419 892 q 425 888 423 891 q 478 859 454 878 q 529 826 502 841 q 553 815 538 821 q 581 804 567 810 q 608 791 595 798 q 628 776 621 784 q 654 755 643 761 q 677 741 666 749 l 678 704 q 676 686 678 694 q 674 669 674 678 q 677 654 674 662 m 491 689 q 461 705 476 697 q 435 726 446 712 q 401 739 426 728 q 352 760 377 749 q 306 781 327 772 q 282 789 285 789 q 278 772 278 788 q 278 736 278 755 q 278 700 278 718 q 278 678 278 682 q 277 628 278 652 q 273 578 275 604 q 269 570 270 574 q 266 563 267 567 q 263 513 263 544 q 263 463 263 481 q 263 445 263 453 q 264 426 263 437 q 274 429 271 426 q 283 435 277 433 q 319 472 301 454 q 355 509 336 490 q 372 526 363 517 q 389 543 380 536 q 401 558 396 551 q 414 572 407 566 q 453 612 433 593 q 487 656 473 632 q 505 678 496 663 q 491 689 495 680 z "},"S":{"ha":487,"x_min":-7,"x_max":473,"o":"m 372 1009 q 381 968 381 991 q 373 925 381 948 q 347 890 365 902 q 323 846 335 863 q 301 812 312 829 q 293 794 297 803 q 282 776 289 785 q 264 749 278 769 q 237 706 251 728 q 212 663 222 684 q 201 637 201 643 q 214 624 201 632 q 231 612 227 616 q 243 598 237 605 q 256 585 250 591 q 286 560 271 572 q 315 533 300 548 q 374 484 343 507 q 430 430 406 461 q 460 397 453 423 q 464 349 467 372 q 469 340 467 345 q 473 331 471 336 q 467 299 473 309 q 454 274 461 289 q 446 247 448 260 q 437 222 444 233 q 429 216 434 218 q 422 208 425 213 q 413 185 416 198 q 404 161 410 172 q 394 140 400 151 q 384 118 388 129 q 379 102 381 111 q 366 88 377 92 q 348 41 359 64 q 330 -7 336 18 q 299 -22 317 -11 q 270 -34 281 -34 q 263 -30 266 -34 q 255 -23 260 -26 q 248 -23 252 -22 q 240 -24 243 -24 q 230 -19 233 -24 q 221 -11 227 -14 q 213 -14 217 -12 q 205 -15 209 -15 q 194 -10 195 -15 q 186 -1 193 -5 q 167 14 170 7 q 159 23 164 20 q 184 90 168 58 q 216 155 201 122 q 226 175 220 165 q 237 195 232 184 q 250 220 241 205 q 264 251 258 235 q 277 281 271 267 q 282 305 282 296 q 271 334 282 324 q 197 400 232 366 q 125 469 163 434 q 72 514 100 491 q 64 526 66 518 q 56 541 61 534 q 47 549 53 547 q 39 557 42 552 q 34 570 35 563 q 26 582 33 578 q 9 590 19 589 q -7 598 0 591 q -3 607 -3 602 q -4 616 -4 612 q 4 629 -4 625 q 12 644 12 633 q 20 658 18 655 q 54 728 35 694 q 94 796 73 762 q 106 817 100 807 q 119 838 113 827 q 127 855 123 848 q 137 869 130 863 q 169 910 156 891 q 189 956 182 929 q 194 975 190 963 q 204 1000 198 987 q 217 1021 210 1012 q 232 1031 224 1031 q 252 1025 239 1031 q 274 1017 264 1020 q 291 1013 282 1015 q 308 1010 300 1010 q 319 1014 313 1010 q 331 1017 324 1017 q 351 1014 342 1017 q 372 1009 361 1010 z "},"T":{"ha":624,"x_min":-20,"x_max":637,"o":"m 636 970 q 634 959 633 964 q 635 947 635 954 q 635 930 632 930 q 637 928 637 930 l 628 914 q 625 899 628 906 q 623 883 621 892 q 615 869 618 876 q 605 856 612 863 l 587 856 q 555 854 572 856 q 522 852 538 852 q 515 852 519 852 q 507 853 511 853 q 500 852 505 853 q 491 852 496 852 q 451 854 471 852 q 410 856 431 856 q 399 856 404 856 q 387 854 393 856 q 385 808 385 831 q 384 760 384 784 q 382 745 384 753 q 381 731 381 738 q 379 697 380 713 q 378 663 378 681 q 379 587 378 625 q 381 510 380 549 q 384 471 382 490 q 385 431 385 452 q 384 340 385 385 q 382 248 382 294 q 381 220 382 233 q 380 193 380 208 q 381 130 380 161 q 382 68 382 99 q 382 38 382 53 q 381 8 381 23 q 372 -11 374 -3 q 355 -19 369 -19 q 347 -13 346 -16 q 345 -7 347 -9 q 326 -9 332 -5 q 312 -15 320 -12 q 303 -14 308 -14 q 294 -14 298 -14 q 289 -16 292 -14 q 277 -18 286 -18 q 267 -15 269 -19 q 259 -11 266 -11 q 243 -17 252 -15 q 227 -19 235 -19 q 219 -9 218 -14 q 217 1 220 -4 q 212 9 216 4 q 206 16 209 14 q 210 50 209 35 q 212 83 212 65 q 209 152 212 118 q 206 221 206 186 q 209 244 206 232 q 212 270 212 256 q 210 283 209 281 q 212 288 212 285 q 211 304 212 296 q 210 320 210 312 q 211 353 210 336 q 212 385 212 369 q 211 399 212 392 q 210 414 210 407 q 210 439 209 426 q 210 467 210 453 q 208 595 210 532 q 206 724 206 659 q 210 788 206 755 q 213 853 213 821 q 210 864 213 857 q 205 873 208 871 q 192 874 198 873 q 179 875 186 875 q 151 871 164 875 q 101 867 125 869 q 53 864 77 865 q 33 865 37 865 q 26 864 30 864 q 9 869 15 864 l 9 887 q 3 905 1 903 q 4 909 4 906 q -3 918 4 913 q -11 933 -11 922 q -16 949 -12 944 q -20 960 -20 955 q -16 982 -20 970 q 7 991 -4 989 q 34 998 19 994 q 49 1004 42 1001 q 64 1008 56 1006 q 83 1009 73 1009 q 102 1010 92 1009 q 144 1017 122 1015 q 187 1020 167 1020 q 225 1015 206 1020 q 259 1010 244 1010 q 300 1008 281 1010 q 342 1005 320 1005 q 351 1003 345 1005 q 365 1001 357 1001 l 496 1001 q 512 1000 507 998 q 521 1001 517 1001 q 541 1000 532 1001 q 562 998 551 998 q 576 1000 571 998 q 597 994 587 998 q 618 989 606 989 q 627 979 624 985 q 636 970 629 972 z "},"U":{"ha":736,"x_min":83,"x_max":652,"o":"m 639 163 q 623 164 625 161 q 612 159 617 161 q 602 152 608 156 q 565 134 583 145 q 528 114 547 123 q 507 105 517 109 q 486 96 496 102 q 453 79 469 88 q 419 64 437 71 q 401 58 410 61 q 382 53 392 56 q 363 44 372 49 q 345 35 354 39 q 330 31 338 33 q 315 24 323 28 q 303 18 308 22 q 292 11 298 14 q 269 3 281 7 q 247 -7 258 -1 q 231 -17 236 -12 q 213 -26 227 -22 q 198 -35 199 -34 q 194 -35 197 -35 q 186 -40 190 -38 q 179 -45 183 -42 q 163 -46 171 -45 q 146 -47 155 -47 q 134 -37 137 -42 q 130 -22 130 -31 q 120 -7 125 -15 q 110 8 115 1 q 98 9 100 3 q 95 22 96 15 q 92 37 94 30 q 90 47 91 45 q 83 85 83 73 q 85 94 83 92 q 88 100 88 96 q 91 132 90 114 q 92 168 92 149 q 92 206 92 187 q 92 240 92 225 q 91 359 92 301 q 90 475 90 416 q 91 529 90 502 q 92 583 92 556 q 94 715 92 650 q 96 846 96 780 q 94 901 96 873 q 90 958 91 929 q 91 981 88 972 q 92 1000 94 990 q 107 1001 96 1001 q 130 1002 118 1001 q 151 1003 141 1002 q 164 1005 161 1004 q 183 998 174 998 q 201 1006 193 998 q 208 1002 208 1004 q 216 1001 209 1001 q 235 1003 228 1002 q 247 1004 241 1004 q 265 977 262 993 q 270 945 269 962 q 272 911 271 928 q 273 883 273 894 q 274 866 273 875 q 275 848 275 857 q 275 834 275 841 q 274 821 274 827 q 275 741 274 781 q 275 661 275 700 q 273 519 275 590 q 271 377 271 448 q 273 347 271 362 q 274 317 274 332 q 273 301 274 309 q 273 285 273 293 q 277 184 273 235 q 300 192 282 186 q 336 205 317 198 q 372 220 355 213 q 392 232 388 228 q 407 236 397 232 q 427 246 416 240 q 448 258 438 252 q 463 267 458 263 q 461 322 461 294 q 461 377 461 350 q 463 526 461 452 q 465 678 465 601 q 464 773 465 726 q 463 868 463 821 q 463 899 463 883 q 464 929 464 914 q 463 975 464 952 q 465 1020 463 997 q 480 1027 479 1027 q 492 1027 488 1027 q 498 1024 495 1027 q 505 1023 502 1023 q 513 1024 509 1024 q 526 1021 519 1024 q 540 1019 533 1019 q 551 1016 551 1020 q 556 1012 552 1012 q 571 1012 567 1016 q 586 1004 575 1009 q 609 994 597 1000 q 631 984 621 989 q 640 975 640 979 q 643 929 644 954 q 642 883 642 905 q 643 845 642 864 q 644 807 644 826 q 644 785 644 796 q 646 765 644 774 q 647 753 647 758 q 647 743 647 749 q 650 726 647 736 q 648 711 648 719 q 648 697 648 704 q 650 658 648 678 q 651 617 651 637 q 649 591 651 604 q 647 567 647 579 l 648 541 q 650 514 648 528 q 651 486 651 500 q 650 472 651 479 q 648 458 650 465 q 647 444 647 452 q 647 429 647 435 q 648 391 647 410 q 650 353 650 372 q 649 329 650 340 q 648 305 648 317 q 650 255 648 281 q 652 205 652 229 q 650 182 652 194 q 639 163 647 170 z "},"V":{"ha":697,"x_min":0,"x_max":697,"o":"m 553 1043 q 569 1038 564 1043 q 576 1027 574 1034 q 604 1022 590 1028 q 621 1010 618 1016 q 635 1005 632 1009 q 643 1000 637 1001 l 658 1001 q 679 990 663 996 q 697 978 694 985 q 695 964 694 971 q 696 947 696 956 q 683 910 692 926 q 667 879 674 894 q 661 864 663 872 q 656 849 659 856 q 652 839 654 844 q 647 829 650 834 q 644 814 647 822 q 639 800 642 807 q 637 789 639 792 q 636 783 636 785 q 595 666 610 720 q 566 557 581 612 q 552 517 559 541 q 535 459 545 492 q 513 389 525 426 q 492 319 502 351 q 474 265 481 288 q 465 240 467 243 q 453 193 461 217 q 439 144 445 170 q 431 125 433 136 q 425 106 430 115 q 407 100 414 107 q 409 80 406 90 q 412 60 412 71 q 399 41 407 45 q 388 27 391 37 q 374 24 378 30 q 363 19 369 19 q 345 14 347 23 q 334 12 336 16 q 328 5 331 7 q 311 1 317 5 q 297 -5 305 -4 q 286 1 292 -3 q 277 8 281 4 q 262 54 269 31 q 248 99 255 76 q 241 119 245 110 q 235 140 237 129 q 233 151 233 146 q 232 161 233 156 q 227 175 229 168 q 221 189 224 182 q 205 250 210 218 q 192 295 198 273 q 180 340 186 317 q 171 380 176 359 q 157 418 165 401 q 146 459 155 439 q 137 499 137 479 q 125 543 130 521 q 114 586 121 564 q 107 606 111 597 q 100 625 103 616 q 94 651 96 637 q 88 678 91 665 q 80 702 84 690 q 72 726 76 713 q 59 771 65 749 q 46 817 53 793 q 33 867 39 842 q 12 916 27 892 q 6 931 8 922 q 0 948 4 940 q 1 973 3 959 q 5 996 0 987 q 38 996 19 996 q 66 994 57 997 q 75 998 72 996 q 84 1002 79 1001 q 100 998 92 998 q 119 1004 113 998 q 136 1001 134 997 q 142 1005 137 1005 q 155 994 151 1002 q 163 978 159 985 q 185 924 178 951 q 201 868 193 898 q 218 814 210 841 q 233 761 227 788 q 240 734 237 747 q 245 707 243 720 q 255 679 250 692 q 266 651 260 666 q 271 622 269 636 q 278 593 274 608 q 285 572 281 582 q 292 552 289 563 q 297 530 294 541 q 302 507 300 518 q 317 454 309 480 q 332 400 326 427 q 340 415 339 404 q 346 433 342 426 q 355 468 349 449 q 366 503 361 487 q 370 515 368 510 q 374 528 372 521 q 380 545 378 536 q 384 563 381 553 q 395 601 389 582 q 407 639 401 620 q 416 675 412 656 q 427 711 420 694 q 439 739 434 726 q 448 768 444 753 q 454 798 452 783 q 464 825 457 812 q 470 840 467 831 q 476 857 473 849 q 488 901 483 879 q 503 944 494 922 q 519 981 510 963 q 536 1017 529 998 q 545 1035 541 1031 q 553 1043 549 1039 z "},"W":{"ha":1002,"x_min":14,"x_max":996,"o":"m 875 1000 q 889 991 880 990 q 907 990 898 993 l 922 985 q 935 981 930 983 q 943 977 939 979 q 975 969 956 978 q 996 956 993 960 q 962 846 979 899 q 930 738 945 792 q 922 707 926 726 q 912 669 917 689 q 902 633 907 650 q 892 606 897 616 l 886 586 q 836 393 861 488 q 779 199 810 297 q 762 135 768 168 q 746 69 755 102 q 734 41 735 53 q 732 16 734 28 q 728 -7 731 4 q 716 -22 724 -18 q 711 -38 716 -33 q 704 -50 707 -43 q 682 -41 693 -50 q 661 -23 670 -31 q 648 1 654 -12 q 640 26 643 14 q 614 136 628 81 q 587 244 601 190 q 585 258 587 248 q 581 278 583 267 q 576 297 578 289 q 572 308 574 305 q 551 410 564 359 q 519 509 538 461 q 517 525 519 517 q 514 541 514 533 q 510 555 511 547 q 503 566 509 563 q 496 557 496 566 q 495 543 495 549 q 480 491 486 511 q 473 450 475 471 q 465 415 465 435 q 460 399 461 408 q 456 381 458 389 q 407 216 433 294 q 403 196 404 206 q 399 175 401 186 q 385 106 391 140 q 374 37 380 72 q 369 20 372 24 q 363 15 366 16 q 359 13 361 14 q 357 8 357 12 q 353 -5 350 -3 q 355 -11 355 -8 q 348 -14 355 -14 q 338 -15 340 -15 q 321 -16 327 -11 q 311 -22 315 -22 q 301 -10 307 -15 q 293 -8 296 -5 q 276 0 279 -1 q 270 4 273 1 q 260 39 267 22 q 247 72 252 56 q 239 111 241 91 q 232 151 236 130 q 224 174 229 160 q 220 195 220 187 q 216 217 217 212 q 213 227 216 222 q 203 276 213 248 q 190 327 194 304 q 157 476 175 406 q 151 496 155 487 q 142 517 146 506 q 130 558 136 537 q 118 601 125 579 q 108 635 113 618 q 98 671 103 652 q 91 688 95 680 q 83 705 87 696 q 73 741 77 724 q 64 774 69 758 q 41 847 53 811 q 19 920 30 883 q 18 934 19 929 q 18 945 16 939 q 14 958 15 951 q 14 971 14 964 l 14 990 q 35 998 20 993 q 57 1002 50 1002 q 83 1002 75 1001 q 96 1009 91 1004 q 104 1008 100 1009 q 111 1006 107 1006 q 130 1008 127 1010 q 138 1013 136 1009 q 148 1016 141 1016 q 155 1009 151 1016 q 161 1000 159 1002 q 167 987 164 993 q 172 974 170 981 q 186 928 180 954 q 201 879 193 902 q 212 847 208 864 q 221 814 216 830 q 227 800 224 807 q 232 787 229 793 q 241 756 236 770 q 250 727 245 742 q 280 631 266 680 q 305 536 294 583 q 312 505 308 522 q 324 476 316 487 q 332 491 330 480 q 336 509 334 502 q 341 525 339 517 q 346 541 343 533 q 354 577 350 560 q 363 612 358 594 q 377 672 370 642 q 392 734 384 703 q 403 773 397 753 q 414 812 408 793 q 418 831 416 822 q 423 852 420 841 q 432 873 427 863 q 439 895 437 884 q 457 950 449 922 q 477 1002 465 978 q 483 1007 480 1005 q 490 1012 486 1009 q 506 995 502 1001 q 519 989 510 989 q 527 979 525 985 q 537 974 529 972 q 543 966 541 971 q 551 959 545 962 q 557 948 556 947 q 563 948 559 949 q 578 939 566 944 q 597 930 591 933 q 599 921 597 925 q 601 911 601 917 q 596 888 601 905 q 589 863 591 872 q 598 861 595 860 q 604 861 601 861 q 621 810 617 838 q 627 760 624 783 q 631 739 629 749 q 636 718 633 728 q 649 664 643 690 q 662 610 655 637 q 667 595 662 604 q 672 569 667 587 q 682 531 677 551 q 694 494 688 511 q 705 468 701 476 q 713 487 712 472 q 720 509 715 502 q 755 651 736 581 q 792 795 773 722 q 817 888 804 844 q 848 981 830 933 q 850 997 850 986 q 873 994 867 1001 l 875 1000 z "},"X":{"ha":656,"x_min":14,"x_max":629,"o":"m 334 662 q 347 686 342 681 q 351 701 351 690 q 375 758 365 728 q 399 815 385 787 q 420 874 411 845 q 441 933 429 903 q 446 949 442 939 q 454 972 450 960 q 463 995 458 985 q 469 1009 467 1005 q 474 1017 472 1013 q 477 1024 476 1020 q 488 1023 486 1024 q 495 1023 491 1023 q 507 1021 505 1023 q 513 1016 509 1019 q 536 1012 528 1015 q 552 1002 545 1009 q 583 987 571 990 q 601 975 594 985 q 629 945 629 972 q 614 908 623 926 q 598 872 605 890 q 571 797 586 833 q 538 726 556 761 q 515 670 526 699 q 490 614 503 642 q 476 576 483 591 q 458 541 468 559 q 442 505 449 524 q 431 489 435 498 q 422 472 427 480 q 432 450 425 460 q 446 427 439 439 q 452 409 448 418 q 460 391 456 400 q 492 323 476 361 q 524 259 507 286 q 550 210 541 232 q 572 161 559 189 q 579 150 575 155 q 587 138 583 145 l 600 114 q 612 90 605 102 q 627 66 620 79 q 628 55 627 60 q 629 43 629 50 q 616 27 620 27 q 609 24 613 27 q 578 -11 585 15 q 564 -15 571 -14 q 557 -26 557 -16 q 532 -27 543 -35 q 519 -43 525 -34 q 505 -56 514 -52 q 489 -39 494 -49 q 476 -22 484 -30 q 471 -5 475 -12 q 465 9 467 1 q 458 24 463 14 q 448 46 453 35 q 437 66 442 57 q 429 77 431 75 q 410 121 418 99 q 392 165 403 142 q 359 238 376 202 q 327 309 342 274 q 312 295 320 308 q 297 266 304 282 q 285 234 290 250 q 278 210 279 218 q 269 192 271 201 q 259 176 266 183 q 243 132 252 153 q 222 90 233 111 q 221 82 222 85 q 220 75 220 79 q 190 25 205 50 q 163 -27 175 0 q 153 -35 159 -31 q 141 -39 148 -39 q 123 -32 132 -39 q 109 -20 115 -24 q 77 -1 84 -11 q 50 8 69 9 q 41 16 43 18 q 34 15 38 15 q 20 25 23 19 q 15 35 18 31 q 14 53 15 49 q 17 62 15 58 q 20 72 19 66 q 43 111 35 91 q 65 149 50 132 q 76 172 69 161 q 85 197 83 183 q 102 221 95 209 q 113 248 109 233 q 117 255 115 251 q 121 262 118 259 q 130 286 125 274 q 138 309 136 297 q 149 326 141 311 q 166 360 157 342 q 182 395 175 378 q 193 418 190 412 q 212 450 202 437 q 228 486 221 464 q 222 502 224 494 q 213 517 220 510 q 203 546 213 532 q 191 575 194 560 q 174 614 180 593 q 161 654 168 635 q 157 665 160 659 q 152 675 155 670 q 129 720 140 699 q 106 762 118 741 q 88 794 99 776 q 71 826 77 812 q 50 877 60 852 q 30 928 41 902 q 26 951 30 939 q 22 974 22 963 q 35 985 30 982 q 42 991 39 987 q 62 1001 53 991 q 90 1006 76 1002 q 115 1017 103 1009 q 137 1022 129 1017 q 156 1027 145 1027 q 170 1021 167 1024 q 176 1016 172 1019 q 255 840 216 928 q 334 662 294 751 z "},"Y":{"ha":628,"x_min":-12,"x_max":642,"o":"m 642 960 q 608 897 627 933 q 578 833 589 860 q 570 814 574 823 q 563 796 567 806 q 546 758 556 776 q 528 719 536 739 q 503 664 515 692 q 477 606 490 636 q 456 559 464 579 q 441 519 449 540 q 427 479 433 499 q 416 444 420 460 q 396 411 404 422 q 391 362 393 387 q 388 312 388 338 q 390 288 388 300 q 393 264 392 277 q 394 230 395 247 q 395 195 393 213 q 398 128 396 161 q 401 60 400 95 q 399 18 403 35 q 397 -16 396 1 q 389 -20 393 -19 q 380 -24 384 -22 q 360 -24 365 -24 q 351 -26 355 -23 q 338 -18 339 -18 q 335 -19 336 -19 q 317 -11 319 -14 q 312 -5 316 -8 q 288 -9 297 -5 q 281 -4 283 -7 q 274 1 278 -1 q 254 5 262 3 q 240 9 245 7 q 231 28 236 20 q 227 50 227 37 q 229 71 227 61 q 233 91 232 80 q 233 103 233 98 q 232 115 232 109 q 235 133 232 122 q 231 199 231 164 q 232 264 232 233 q 227 323 232 296 q 227 348 228 340 q 225 363 225 355 q 227 378 225 370 q 228 392 228 385 q 226 406 228 393 q 221 433 224 419 q 216 460 218 448 q 213 476 213 473 q 193 522 199 500 q 178 559 186 544 q 167 581 172 570 q 157 604 161 591 q 153 618 155 610 q 148 633 151 627 q 138 657 142 644 q 126 678 133 670 q 116 701 121 690 q 111 720 111 711 q 98 749 107 736 q 83 776 90 762 q 77 791 79 784 q 72 804 75 798 q 64 818 69 810 q 54 830 60 826 q 45 852 52 842 q 35 873 38 861 q 20 892 28 883 q 5 930 15 913 q -12 966 -4 947 q 19 1001 -7 994 q 35 1019 33 1017 q 47 1020 38 1020 q 64 1031 56 1027 q 83 1034 72 1036 q 90 1043 84 1039 q 102 1047 96 1047 q 116 1039 110 1047 q 129 1027 122 1031 q 151 990 140 1008 q 171 954 163 972 q 188 916 180 935 q 210 879 195 897 q 231 828 217 852 q 255 777 245 804 q 271 745 262 761 q 286 712 279 730 q 293 696 290 704 q 298 680 296 688 q 304 662 301 673 q 311 644 307 651 q 327 669 320 654 q 347 705 336 688 q 365 741 357 722 q 380 777 376 758 q 392 815 385 796 q 398 829 395 822 q 404 844 401 836 q 411 860 408 852 q 416 876 414 868 q 437 927 426 902 q 461 978 449 952 q 467 990 463 982 q 478 1007 472 998 q 490 1023 484 1016 q 499 1032 495 1029 q 508 1036 502 1035 q 518 1038 514 1036 q 536 1031 530 1038 q 560 1021 552 1024 q 572 1009 568 1019 q 603 994 593 996 q 618 982 613 991 q 636 968 633 972 q 642 960 639 964 z "},"Z":{"ha":597,"x_min":7,"x_max":597,"o":"m 505 1035 q 517 1025 506 1031 q 532 1020 529 1020 q 554 1019 551 1023 q 562 1012 557 1016 q 570 1018 567 1015 q 581 1021 574 1021 q 589 1010 587 1017 q 595 996 591 1002 q 595 973 594 978 q 597 963 597 968 q 585 919 597 943 q 567 875 572 895 q 558 860 560 868 q 551 845 556 852 q 538 821 547 831 q 528 798 530 811 q 522 788 526 796 q 511 770 517 780 q 501 751 506 761 q 495 739 496 742 q 489 726 491 732 q 483 715 487 720 q 474 695 480 707 q 460 671 468 684 q 448 648 453 659 q 442 631 442 636 q 431 606 433 620 q 366 465 395 537 q 305 321 338 392 q 302 307 302 309 q 298 302 301 304 q 289 284 294 293 q 281 266 283 275 q 272 238 275 251 q 259 212 269 225 q 254 196 258 203 q 251 180 250 189 q 264 176 255 176 q 278 175 273 175 q 294 176 286 175 q 311 176 302 176 q 326 176 319 176 q 339 175 332 175 l 373 175 q 383 174 378 175 q 392 174 388 174 q 424 175 407 174 q 457 176 441 176 q 477 177 467 176 q 499 175 488 178 q 505 171 503 174 q 514 171 507 168 q 529 156 526 159 q 534 151 532 153 q 535 142 534 145 q 536 134 536 138 q 538 114 536 119 q 533 96 530 102 l 526 81 q 524 67 526 75 q 524 53 521 60 q 515 29 517 42 q 506 5 513 16 q 484 2 495 1 q 463 0 473 3 q 444 3 456 3 q 422 1 433 3 q 401 0 412 0 q 393 1 397 0 q 385 1 389 1 q 370 0 370 -1 q 366 1 369 1 q 336 1 351 1 q 307 0 321 0 q 297 -1 301 0 q 289 -3 293 -3 q 281 -1 285 -3 q 273 0 277 0 q 258 -1 266 0 q 241 -3 250 -3 q 233 -2 237 -3 q 225 -1 229 -1 q 212 -4 218 -1 q 197 -4 205 -7 l 178 -7 q 135 -9 156 -7 q 92 -12 114 -12 q 76 -11 80 -12 q 60 -4 69 -5 q 42 1 50 -3 q 33 18 41 12 q 18 30 24 23 q 15 50 19 46 q 7 79 16 72 q 16 102 8 91 q 26 125 24 113 q 39 141 37 136 q 42 153 42 146 q 58 177 50 163 q 72 208 65 191 q 84 239 79 224 q 94 267 90 255 q 110 298 104 282 q 122 331 115 315 q 136 359 133 350 q 146 374 140 368 q 154 395 148 380 q 167 429 160 411 q 181 460 174 446 q 191 479 189 475 q 197 492 193 486 q 201 506 201 499 q 222 549 214 524 q 240 594 231 575 q 260 634 250 614 q 282 674 271 654 q 366 838 324 755 q 355 845 363 845 q 340 849 346 845 q 320 848 330 846 q 300 849 311 849 q 257 854 274 854 q 224 853 240 853 q 207 854 216 853 q 190 856 198 856 q 149 853 170 856 q 109 846 127 850 q 83 849 96 849 q 60 852 71 849 q 57 875 54 872 q 51 882 54 879 q 45 890 47 886 q 43 905 46 902 q 37 916 39 909 q 36 934 37 925 q 38 952 35 943 q 31 961 35 958 q 24 968 27 964 q 25 980 26 975 q 26 990 24 985 q 43 1000 34 997 q 58 1012 53 1004 q 94 1019 76 1017 q 130 1020 113 1020 q 166 1019 149 1020 q 199 1017 183 1019 q 222 1014 212 1017 q 243 1009 232 1010 q 256 1008 250 1008 q 270 1009 263 1009 q 317 1008 293 1009 q 363 1008 340 1008 q 399 1008 382 1008 q 431 1010 415 1008 q 439 1021 437 1016 q 445 1032 442 1027 q 461 1031 457 1032 q 468 1031 465 1031 l 484 1024 q 496 1026 490 1024 q 505 1035 503 1028 z "},"[":{"ha":472,"x_min":83,"x_max":472,"o":"m 467 1019 q 471 991 469 996 q 469 983 471 987 q 467 975 468 979 q 472 951 469 962 q 465 935 467 944 q 464 920 464 926 q 456 909 460 914 q 449 899 453 905 q 408 901 422 899 q 381 899 395 902 q 340 905 358 905 q 312 898 323 905 q 293 901 305 901 q 272 898 282 901 q 251 892 262 895 q 248 882 248 887 q 244 873 247 878 q 247 858 245 865 q 250 842 248 850 q 254 627 254 734 q 252 566 254 595 q 251 507 251 537 q 253 392 251 449 q 255 278 255 335 q 253 216 255 247 q 251 155 251 186 q 252 104 251 129 q 254 54 254 80 l 254 11 q 254 -41 254 -15 q 256 -94 255 -66 q 332 -98 294 -100 q 406 -103 369 -95 q 427 -110 416 -106 q 448 -119 438 -114 q 460 -130 452 -127 q 469 -144 469 -133 q 468 -156 469 -151 q 467 -167 467 -161 q 469 -177 467 -172 q 472 -187 472 -182 q 469 -214 472 -195 q 464 -241 467 -233 q 401 -246 426 -245 q 349 -247 376 -247 q 314 -245 331 -247 q 279 -244 297 -244 q 230 -249 262 -244 q 178 -256 198 -254 q 159 -249 168 -252 q 141 -240 151 -245 q 138 -228 138 -235 q 138 -216 138 -221 q 132 -201 136 -209 q 125 -187 127 -194 q 109 -173 113 -178 q 104 -163 106 -168 q 100 -124 102 -153 q 98 -60 99 -95 q 98 6 98 -26 q 98 52 98 38 q 96 92 98 72 q 95 133 95 113 q 96 146 95 140 q 98 159 98 152 q 96 187 98 174 q 95 216 95 201 q 97 248 95 232 q 99 283 99 264 q 98 294 99 289 q 96 305 96 300 q 97 356 96 331 q 98 408 98 381 l 98 483 q 95 513 96 498 q 94 543 94 528 q 94 569 94 556 q 95 595 95 582 q 94 612 95 604 q 94 628 94 620 l 95 655 q 94 733 96 694 q 91 811 91 772 q 88 826 91 818 q 87 854 85 841 q 83 882 88 868 q 85 897 85 888 q 85 911 85 905 q 85 936 85 924 q 84 962 84 948 q 85 976 84 968 q 90 991 85 983 q 84 1020 84 1002 q 100 1044 90 1038 q 118 1050 110 1050 q 164 1048 141 1050 q 210 1046 187 1046 q 258 1050 233 1046 q 268 1048 263 1048 q 277 1048 273 1048 q 299 1050 288 1048 q 323 1051 311 1051 q 345 1052 334 1053 q 370 1050 357 1051 q 396 1048 384 1048 q 416 1046 408 1047 q 431 1040 423 1044 q 448 1035 438 1036 q 456 1027 450 1029 q 467 1019 463 1024 z "},"\\":{"ha":526,"x_min":42,"x_max":484,"o":"m 42 932 q 43 949 42 936 q 52 962 45 962 q 64 964 65 958 q 73 971 64 971 q 106 979 92 979 l 121 979 q 134 991 127 987 l 161 944 q 184 884 172 914 q 210 825 195 854 q 226 785 218 806 q 241 745 233 765 q 256 702 248 723 q 274 662 263 681 q 279 644 275 652 q 285 628 282 636 q 317 539 302 585 q 349 450 332 494 q 387 345 368 399 q 426 240 407 292 q 440 208 431 228 q 458 165 449 187 q 475 123 468 142 q 481 92 481 103 q 481 81 483 84 q 480 75 480 77 q 482 63 480 68 q 484 52 484 58 q 479 37 484 41 q 466 37 471 35 q 457 38 461 38 q 440 25 452 24 q 419 19 429 26 q 403 27 408 27 q 393 18 396 23 q 382 11 389 12 q 364 52 377 19 q 337 122 351 84 q 311 193 323 160 q 296 236 298 227 q 288 251 290 247 q 247 364 269 309 q 206 476 225 419 q 176 560 191 519 q 144 643 160 601 q 135 673 138 658 q 125 701 132 688 q 118 714 122 708 q 111 728 114 720 q 97 762 103 745 q 83 799 91 780 q 73 821 79 807 q 62 848 68 834 q 52 876 57 863 q 45 898 47 890 q 43 915 43 906 q 42 932 42 924 z "},"]":{"ha":486,"x_min":0,"x_max":389,"o":"m 5 1019 q 16 1027 9 1024 q 24 1035 22 1029 q 42 1040 35 1036 q 56 1046 49 1044 q 102 1050 72 1048 q 148 1053 132 1053 q 172 1050 161 1051 q 194 1048 183 1048 q 205 1048 199 1048 q 214 1050 210 1048 q 263 1046 239 1046 q 309 1048 286 1046 q 354 1050 331 1050 q 373 1044 362 1050 q 387 1029 384 1038 q 384 991 388 1004 q 388 962 388 975 q 387 936 388 948 q 385 911 385 924 q 389 882 385 895 q 386 854 385 868 q 385 826 387 841 q 382 811 382 818 q 380 733 382 772 q 378 655 377 694 l 378 640 q 379 612 380 620 q 378 595 378 604 q 379 569 378 582 q 380 543 380 556 q 377 513 380 528 q 374 483 374 498 l 374 408 q 376 356 374 381 q 377 305 377 331 q 375 294 377 300 q 373 283 373 289 q 376 248 373 264 q 378 216 378 232 q 376 187 378 201 q 374 159 374 174 q 376 146 374 152 q 378 133 378 140 q 376 92 378 113 q 374 52 374 72 q 374 6 374 38 q 374 -60 374 -26 q 372 -124 373 -95 q 368 -163 370 -153 q 362 -173 365 -168 q 358 -183 359 -178 q 340 -201 345 -194 q 334 -216 336 -209 q 334 -228 334 -221 q 331 -240 334 -235 q 311 -249 320 -245 q 294 -256 302 -252 q 271 -253 285 -255 q 242 -249 256 -251 q 214 -245 228 -247 q 193 -244 201 -244 q 158 -245 175 -244 q 123 -247 141 -247 q 72 -246 98 -247 q 19 -247 46 -245 q 3 -214 5 -233 q 0 -187 0 -195 q 2 -177 0 -182 q 4 -167 4 -172 q 3 -156 4 -161 q 3 -144 3 -151 q 12 -130 3 -133 q 23 -119 20 -127 q 44 -110 34 -114 q 65 -103 54 -106 q 140 -98 103 -95 q 214 -94 178 -100 q 218 11 218 -41 l 218 54 q 220 104 218 80 q 221 155 221 129 q 218 216 221 186 q 216 278 216 247 q 218 392 216 335 q 220 507 220 449 q 219 566 220 537 q 218 627 218 595 q 222 842 218 734 q 225 858 224 850 q 228 873 227 865 q 221 892 224 879 q 200 898 210 895 q 179 901 190 901 q 160 898 165 901 q 132 905 149 905 q 103 905 114 905 q 63 901 77 902 q 37 899 49 899 q 16 909 19 905 q 8 920 12 914 q 6 935 7 926 q 0 951 5 944 q 1 966 3 966 q 3 983 4 979 q 0 991 1 987 q 1 1015 3 1010 l 5 1019 z "},"^":{"ha":671,"x_min":43,"x_max":629,"o":"m 503 362 q 487 378 496 374 q 471 399 477 395 q 450 486 465 445 q 419 570 434 526 q 401 619 411 595 q 382 669 392 643 q 357 732 370 703 q 349 747 354 739 q 342 761 345 754 q 338 774 339 768 q 335 787 338 780 l 327 765 q 317 755 320 761 q 309 745 315 750 q 307 730 308 736 q 300 718 307 724 q 298 709 300 712 q 297 700 297 705 q 279 654 286 681 q 261 607 271 636 q 239 545 251 578 q 216 484 228 513 q 199 450 205 456 q 191 418 195 434 q 182 387 186 401 q 176 378 179 384 q 171 369 174 373 q 151 377 156 373 q 138 384 145 381 q 122 382 123 381 q 116 395 121 389 q 103 400 111 400 q 85 401 90 400 q 77 403 81 403 q 62 409 68 406 q 49 412 56 412 q 46 434 43 425 q 49 452 49 444 q 52 467 52 458 q 62 503 54 483 q 77 538 71 522 q 120 644 100 591 q 163 749 140 697 q 172 777 168 768 q 179 796 175 787 q 193 827 186 812 q 206 856 199 841 q 222 893 214 875 q 241 930 231 911 q 252 951 248 945 q 252 970 251 966 q 252 978 252 974 q 271 986 267 987 q 288 989 279 987 q 304 993 296 990 q 328 1002 316 1004 q 350 1009 340 1001 q 371 1012 365 1006 q 389 1020 377 1017 q 402 999 399 1005 q 410 986 406 993 q 427 947 416 966 q 442 907 437 928 q 446 895 444 901 q 450 882 448 888 q 461 849 454 868 q 476 810 468 830 q 493 773 484 791 q 510 743 502 755 q 514 733 513 741 q 517 722 515 726 q 528 718 526 723 q 532 707 529 712 q 548 671 538 688 q 564 636 557 654 q 568 623 567 629 q 572 609 570 616 q 583 581 578 594 q 595 556 589 568 q 615 511 606 533 q 629 464 624 488 q 618 456 624 458 q 610 446 613 454 q 600 430 604 442 q 584 425 590 430 q 571 414 578 419 q 540 394 547 406 q 515 377 533 382 q 512 368 514 369 q 505 362 510 366 l 503 362 z "},"_":{"ha":806,"x_min":42,"x_max":764,"o":"m 764 91 q 758 69 760 72 q 757 61 755 66 q 744 27 746 47 q 730 -3 742 7 l 711 -3 q 702 -3 707 -3 q 693 -1 697 -3 q 676 -3 685 -3 q 658 -3 667 -3 q 619 -2 639 -3 q 581 -1 600 -1 q 570 0 575 -1 q 562 1 566 1 q 538 3 549 3 q 515 4 526 4 q 479 3 496 4 q 445 3 463 3 q 332 3 388 3 q 220 4 277 4 q 197 3 209 4 q 174 3 186 3 q 159 0 170 3 q 124 3 141 3 q 90 3 107 3 q 72 6 85 3 q 54 11 58 9 q 43 56 52 34 q 43 84 45 76 q 42 100 42 92 q 57 118 49 118 q 71 122 65 118 q 85 125 77 122 q 109 125 96 126 q 132 123 121 123 q 178 123 155 123 q 224 125 201 123 q 263 126 250 127 q 289 125 277 125 q 315 125 302 125 q 342 126 328 126 q 428 125 385 126 q 514 125 471 125 q 538 124 526 125 q 564 122 551 123 q 583 121 574 121 q 604 121 593 122 q 621 120 613 121 q 637 119 629 119 q 645 119 640 119 q 652 121 650 119 q 671 119 662 119 q 692 118 681 118 q 712 121 699 118 q 742 113 726 115 q 755 102 746 110 q 764 91 764 95 z "},"`":{"ha":525,"x_min":98,"x_max":427,"o":"m 184 1036 q 214 1012 201 1021 q 240 993 228 1002 q 332 923 288 958 q 423 853 377 888 q 427 838 426 849 q 427 821 427 826 q 417 808 419 807 q 414 806 415 808 q 407 793 410 796 q 403 785 404 791 q 392 779 397 781 q 381 773 387 777 q 338 783 351 773 q 317 796 331 785 q 286 819 302 807 q 254 844 269 831 q 231 861 239 856 q 210 877 220 868 q 189 892 201 886 q 144 928 167 911 q 100 963 122 944 q 100 981 98 975 q 106 996 103 987 q 113 1010 110 1004 q 118 1021 117 1017 q 168 1040 151 1040 q 183 1038 178 1040 l 184 1036 z "},"a":{"ha":701,"x_min":-14,"x_max":708,"o":"m 357 1027 q 370 979 363 1002 q 387 932 377 955 q 412 928 407 929 q 423 924 416 926 q 441 848 438 888 q 452 770 445 808 q 489 698 477 736 q 515 620 500 659 q 521 603 519 606 q 522 597 522 600 q 538 549 530 574 q 556 502 547 525 q 565 478 560 490 q 574 456 570 467 q 581 428 578 442 q 589 400 585 414 q 609 346 598 373 q 631 292 620 319 q 646 250 635 282 q 670 181 658 217 q 692 115 682 145 q 703 77 703 84 q 705 55 703 66 q 708 31 707 43 q 694 16 703 18 q 680 18 686 15 q 667 12 673 15 q 655 7 661 9 q 648 3 651 5 q 642 0 646 0 q 621 -3 625 0 q 606 -7 616 -7 q 591 -6 594 -3 q 585 -11 587 -9 q 572 -14 579 -14 q 559 -15 566 -14 q 554 -4 556 -9 q 548 8 552 1 q 527 50 533 30 q 517 83 521 71 q 505 113 510 98 q 494 142 500 127 q 479 136 486 140 q 468 127 472 133 q 452 123 452 127 q 449 115 452 119 q 436 110 441 113 q 420 109 431 107 q 407 97 414 102 q 389 91 400 92 q 367 73 378 80 q 340 69 355 65 q 302 62 321 65 q 264 58 283 58 q 237 71 243 65 q 221 76 232 76 q 213 102 222 95 q 214 115 213 106 q 217 126 214 123 q 237 144 235 134 q 252 156 240 153 q 258 166 255 161 q 264 176 262 171 q 276 180 271 179 q 283 189 281 182 q 304 197 290 189 q 321 212 317 206 q 335 219 332 216 q 342 225 338 222 q 359 228 355 224 q 384 222 370 222 q 393 223 389 222 q 403 224 397 224 q 431 238 414 235 q 458 252 448 241 q 452 279 454 263 q 442 304 449 294 q 433 338 439 321 q 423 369 427 354 q 388 480 408 426 q 354 591 368 534 q 348 606 351 598 q 342 620 345 613 q 335 602 335 604 q 332 597 335 600 q 330 585 331 590 q 326 574 328 581 q 318 550 321 563 q 312 526 315 537 q 300 478 305 503 q 288 429 294 453 q 260 345 274 387 q 232 262 245 304 q 226 233 229 243 q 219 212 222 222 q 214 193 216 202 q 212 178 212 183 q 180 90 193 134 q 148 3 167 45 q 138 -4 142 0 q 129 -8 134 -8 q 117 -3 118 -8 q 111 3 117 3 q 102 1 106 3 q 94 -4 98 -1 q 78 -1 87 -1 q 65 5 69 0 q 46 -1 56 -1 q 24 5 35 -1 q 8 3 16 3 q -1 4 4 3 q -9 8 -7 5 q -11 19 -11 14 q -11 31 -11 24 q -14 52 -11 45 q 34 192 11 121 q 80 336 57 263 q 104 403 92 370 q 126 469 115 435 q 136 505 132 488 q 146 538 140 522 q 169 610 157 574 q 190 681 180 646 q 197 690 195 685 q 201 703 198 696 l 199 720 q 212 744 209 734 q 217 765 216 754 q 229 800 224 781 q 237 836 235 819 q 241 885 240 857 q 248 932 241 913 q 253 939 251 937 q 255 948 255 941 q 261 954 258 951 q 266 962 264 958 q 271 981 273 972 q 269 998 269 989 q 279 1010 281 1005 q 278 1021 278 1016 q 287 1034 278 1028 q 298 1047 296 1040 q 315 1045 307 1046 q 331 1046 323 1044 q 354 1028 340 1028 l 357 1027 z "},"b":{"ha":692,"x_min":83,"x_max":671,"o":"m 617 764 q 623 739 617 749 q 629 720 629 728 q 635 688 627 707 q 643 651 643 670 q 622 630 640 643 q 581 602 604 617 q 538 573 559 587 q 509 551 517 559 q 526 533 515 540 q 545 519 536 526 q 569 500 553 513 q 602 472 585 487 q 633 444 618 457 q 651 423 647 430 q 656 414 654 422 q 659 395 658 406 q 661 376 661 385 q 662 363 662 366 q 663 342 661 349 q 667 328 665 335 q 670 313 669 320 q 671 307 671 307 q 664 292 671 298 q 650 279 656 285 q 637 269 643 274 q 624 256 631 263 q 606 243 616 250 q 587 231 595 237 q 578 223 582 228 q 570 216 574 218 q 543 195 557 205 q 514 176 528 184 q 486 157 499 167 q 457 136 472 146 q 417 112 437 123 q 378 88 397 100 q 360 75 369 81 q 342 62 351 68 q 288 31 315 47 q 235 -4 260 15 q 203 -13 213 -9 q 184 -16 194 -16 q 174 -10 176 -16 q 167 -4 172 -4 q 144 -5 146 -7 q 138 0 142 -3 q 104 0 118 -3 q 99 17 100 7 q 91 34 98 27 q 92 60 94 47 q 92 84 90 72 q 88 114 88 100 q 92 151 88 132 q 88 175 88 163 q 90 197 88 186 q 91 218 91 208 q 85 243 91 232 q 85 291 85 267 q 84 339 84 315 q 84 361 84 350 q 85 384 84 372 q 84 404 84 391 q 87 418 84 412 q 90 431 90 425 q 87 460 90 446 q 85 488 85 473 q 87 514 85 502 q 90 540 90 526 q 84 552 85 545 q 83 566 83 559 q 85 582 83 571 q 84 605 85 593 q 83 628 83 617 q 83 637 83 633 q 85 647 84 642 q 83 666 83 656 q 83 685 83 675 q 84 710 83 697 q 85 735 85 723 q 86 767 84 755 q 90 791 88 779 l 90 868 q 87 892 90 879 q 84 917 84 905 q 85 937 84 924 q 90 958 87 951 q 134 990 109 986 q 142 998 140 993 q 155 1002 145 1002 q 176 1023 171 1016 q 190 1038 182 1031 q 197 1040 194 1038 q 206 1042 201 1042 q 222 1036 216 1039 q 235 1032 228 1034 q 288 992 262 1012 q 342 951 315 972 q 366 929 354 940 q 389 909 377 918 q 404 901 396 905 q 419 891 412 897 q 449 871 434 882 q 479 852 464 861 l 576 791 q 597 777 587 784 q 617 764 608 770 m 423 705 q 385 728 403 715 q 346 749 366 742 q 323 764 335 760 q 300 776 311 768 q 278 795 288 787 q 254 810 269 803 q 243 728 247 768 q 240 647 240 688 q 248 567 240 605 q 277 582 263 574 q 304 598 290 590 q 314 604 309 601 q 326 609 319 606 q 339 620 332 614 q 353 629 346 625 q 382 649 368 640 q 411 669 396 658 q 426 677 418 674 q 442 688 434 681 q 433 696 441 693 q 423 705 426 700 m 384 452 q 376 454 380 452 q 366 456 372 456 q 336 437 350 445 q 307 420 321 430 q 293 411 300 416 q 279 403 286 406 q 252 385 262 392 q 237 366 243 377 q 239 290 240 328 q 239 213 239 252 q 243 198 239 206 q 286 216 255 199 q 352 255 317 233 q 418 297 387 277 q 465 327 450 317 q 490 338 476 330 q 507 357 505 346 q 448 406 481 387 q 384 452 414 426 z "},"c":{"ha":544,"x_min":-7,"x_max":559,"o":"m 305 370 q 326 341 308 363 q 366 292 343 319 q 410 241 388 266 q 439 206 431 217 q 492 132 465 168 q 544 56 519 95 q 555 39 551 49 q 559 18 559 28 q 553 5 559 5 q 540 1 547 4 q 515 -9 526 -8 q 498 -11 505 -11 q 465 -10 483 -11 q 435 -12 448 -9 q 426 -17 431 -14 q 418 -20 420 -20 q 402 -17 407 -20 q 389 -11 397 -14 q 370 15 378 1 q 351 42 361 28 q 334 59 343 52 q 316 77 324 66 q 272 137 294 109 q 227 194 250 165 q 203 222 216 209 q 179 250 190 236 q 159 281 168 264 q 138 312 149 297 q 115 345 130 326 q 84 385 100 365 q 51 424 68 406 q 22 452 34 442 q 16 465 22 461 q 4 475 11 469 q -3 488 1 481 q -7 502 -7 494 q -5 511 -7 507 q -3 519 -4 515 q 1 530 0 525 q 4 540 1 534 q 24 571 11 557 q 43 602 37 585 q 45 612 45 608 q 47 623 45 617 q 60 639 52 631 q 75 656 68 647 q 88 681 81 669 q 102 705 95 693 q 144 766 121 736 q 187 823 167 795 q 222 877 206 850 q 258 930 239 903 q 279 961 267 944 q 304 994 292 978 q 331 1025 317 1010 q 358 1046 345 1039 q 388 1038 381 1048 q 407 1028 395 1028 q 433 1016 426 1024 q 446 1001 439 1008 q 476 994 464 1001 q 500 974 488 987 q 486 947 495 959 q 471 921 477 935 q 455 907 460 917 q 441 891 450 898 q 411 846 426 868 q 381 803 396 823 q 366 790 374 795 q 351 776 357 785 q 347 767 349 772 q 343 758 346 762 q 307 708 327 732 q 271 656 286 684 q 260 637 264 647 q 251 617 256 627 q 235 594 245 609 q 215 564 225 579 q 197 534 205 548 q 190 510 190 519 q 208 483 191 503 q 243 439 224 463 q 281 396 263 416 q 305 370 300 376 z "},"d":{"ha":692,"x_min":83,"x_max":699,"o":"m 88 -16 q 83 -1 83 -11 q 83 10 83 5 q 85 22 84 15 q 92 85 92 53 q 95 148 92 117 q 97 186 96 167 q 98 224 98 205 q 91 448 98 336 q 84 674 84 560 q 87 832 84 753 q 91 991 90 911 q 121 997 103 998 q 149 1009 138 996 q 163 1010 156 1010 q 176 1009 170 1009 q 205 1019 191 1009 q 235 1035 218 1028 q 246 1033 243 1032 q 254 1034 250 1034 q 271 1024 258 1034 q 301 1002 285 1015 q 332 979 317 990 q 350 966 346 968 q 410 909 384 940 q 463 848 437 879 q 515 785 487 817 q 571 726 544 753 q 591 707 581 715 q 610 688 601 699 q 618 676 614 682 q 625 663 621 670 q 644 647 633 654 q 665 631 655 640 q 685 609 671 625 q 699 585 699 593 q 696 575 699 579 q 690 566 693 571 q 689 553 689 562 q 688 543 689 545 q 673 529 674 532 q 669 524 671 526 q 659 515 665 518 q 650 505 652 511 q 648 496 647 500 q 646 487 648 492 q 624 458 639 472 q 598 429 609 445 q 568 380 583 404 q 534 332 553 355 q 517 311 526 321 q 500 290 509 301 q 488 273 494 282 q 476 254 483 264 q 448 216 461 235 q 419 179 434 198 q 384 134 403 156 q 350 88 365 111 q 319 43 335 64 q 283 4 302 23 q 270 -8 278 0 q 254 -16 262 -16 q 245 -12 248 -16 q 235 -8 241 -8 q 227 -9 233 -8 q 210 -12 220 -11 l 186 -15 q 155 -25 164 -26 q 136 -26 145 -24 q 127 -30 130 -27 q 119 -33 123 -33 q 104 -24 110 -33 q 88 -16 99 -15 m 495 570 q 482 589 495 576 q 463 606 469 601 q 440 622 453 614 q 419 639 427 629 q 406 656 412 647 q 393 673 400 665 q 344 727 369 700 q 300 787 319 754 q 277 806 288 795 q 251 823 266 817 q 249 806 248 815 q 250 789 250 798 q 247 728 250 758 q 244 669 244 699 q 248 524 244 595 q 251 381 251 453 q 252 327 251 354 q 256 273 252 300 q 254 258 254 264 q 256 240 254 251 q 275 257 267 247 q 289 277 282 267 q 334 337 312 307 q 380 399 357 368 q 410 439 395 419 q 441 480 426 458 q 454 499 445 486 q 471 527 463 513 q 488 553 480 541 q 495 570 495 566 z "},"e":{"ha":526,"x_min":-20,"x_max":526,"o":"m 282 355 q 302 327 285 349 q 340 279 319 305 q 382 230 362 254 q 410 195 401 206 q 439 158 425 176 q 465 119 453 140 l 490 79 q 509 56 500 65 q 524 30 518 46 q 526 15 526 19 q 519 1 526 5 q 508 -2 509 1 q 502 -8 507 -5 q 485 -12 496 -11 q 467 -12 473 -12 q 436 -12 454 -12 q 407 -15 418 -11 q 399 -19 404 -16 q 391 -22 393 -22 q 375 -18 380 -22 q 362 -14 370 -15 q 344 12 351 -1 q 327 38 336 24 q 308 55 317 47 q 292 72 298 62 q 250 130 271 102 q 205 186 228 159 q 182 213 194 201 q 159 240 170 225 q 138 269 148 254 q 119 300 129 285 q 98 332 111 312 q 68 371 84 351 q 35 408 52 391 q 8 435 19 426 q 1 448 7 444 q -11 457 -4 453 q -17 470 -14 464 q -20 483 -20 476 q -16 500 -20 492 q -13 511 -14 506 q -9 521 -12 515 q 9 550 -3 536 q 27 581 20 564 q 30 589 30 585 q 33 598 30 594 q 44 616 35 609 q 58 633 53 624 q 71 656 65 644 q 84 681 77 667 q 127 747 104 715 q 172 811 149 779 q 207 863 190 838 q 241 914 224 888 q 262 943 251 926 q 286 975 273 959 q 312 1005 298 991 q 339 1027 326 1019 q 366 1018 359 1028 q 387 1008 373 1008 q 410 997 404 1004 q 422 983 415 990 q 452 977 441 983 q 475 956 464 970 q 463 930 471 941 q 448 906 454 918 q 432 891 437 901 q 418 876 427 882 q 389 832 404 853 q 359 791 374 811 q 342 769 351 779 q 327 749 334 760 q 322 740 324 745 q 317 731 320 735 q 282 683 301 705 q 247 633 263 661 q 238 614 241 624 q 229 594 235 604 q 214 572 224 586 q 194 543 203 559 q 177 513 184 528 q 170 490 170 499 q 186 463 171 483 q 222 421 202 444 q 259 379 241 399 q 282 355 277 359 m 372 602 q 392 567 381 582 q 401 557 396 562 q 410 547 407 553 q 415 535 412 544 q 420 522 418 526 q 437 498 425 511 q 449 473 449 484 q 446 458 449 467 q 442 444 444 450 q 441 427 441 435 q 435 411 441 418 q 420 403 429 404 q 406 396 412 401 q 397 387 403 393 q 387 372 392 380 q 376 356 381 363 q 372 345 372 349 q 351 344 355 343 q 340 343 346 345 q 326 355 334 350 q 308 363 319 359 q 296 389 305 374 q 279 412 286 403 l 270 425 q 233 479 250 453 q 208 538 216 506 q 248 567 233 557 q 278 585 262 576 q 310 600 294 593 q 339 618 326 608 q 354 617 350 618 q 359 614 358 616 q 363 610 361 613 q 372 602 365 606 z "},"f":{"ha":600,"x_min":83,"x_max":559,"o":"m 529 979 q 547 946 540 963 q 555 922 555 929 q 552 907 555 913 q 544 892 549 901 q 440 845 492 869 q 334 799 388 821 q 308 788 320 793 q 281 777 296 783 q 269 772 278 774 q 254 770 260 770 q 257 715 256 743 q 259 658 258 686 q 262 642 259 650 q 264 627 264 635 q 267 576 267 601 q 270 526 267 552 q 370 570 320 548 q 469 614 419 593 q 487 612 477 613 q 505 606 496 610 q 510 600 507 604 q 517 593 513 595 q 526 573 517 586 q 534 545 534 560 q 538 536 534 543 q 544 528 543 530 q 543 513 544 514 q 555 495 552 506 q 559 473 559 484 q 511 437 534 446 q 463 416 487 427 q 448 408 456 412 q 431 400 439 404 q 410 393 420 396 q 389 384 400 389 q 353 362 373 374 q 316 347 332 350 q 298 344 305 345 q 281 336 290 343 q 280 304 279 320 q 281 274 281 289 q 279 242 281 258 q 277 210 277 227 q 274 157 277 183 q 271 104 271 130 q 273 73 271 88 q 274 42 274 57 q 271 27 274 34 q 266 14 269 20 q 243 14 247 11 q 233 20 239 18 q 224 15 227 20 q 216 7 222 9 q 204 7 210 8 q 194 9 198 7 q 174 0 183 5 q 155 -8 165 -5 q 130 -6 134 -5 q 119 -8 125 -7 q 111 16 110 1 q 103 41 111 30 q 100 58 103 54 q 98 64 98 61 q 98 73 98 68 q 99 83 99 77 q 98 102 99 95 q 100 127 99 110 q 103 162 102 144 q 104 198 104 180 q 104 227 104 216 q 107 238 104 233 q 110 250 110 243 q 109 269 110 260 q 109 288 109 278 q 109 326 109 307 q 110 363 110 345 q 104 478 110 422 q 98 591 98 534 q 95 660 98 623 q 88 728 92 697 q 86 740 88 735 q 84 750 84 745 q 83 783 83 766 q 83 818 83 800 q 83 848 83 829 q 83 889 83 868 q 83 929 83 910 q 85 956 84 948 q 94 961 85 958 q 104 964 102 964 q 115 960 111 964 q 125 952 119 956 q 136 956 130 956 q 149 956 142 956 q 174 956 170 960 q 182 951 179 951 q 189 955 186 951 q 195 959 191 959 q 208 954 206 959 q 216 948 210 948 q 224 952 221 948 q 229 956 227 956 q 237 954 233 956 q 245 952 241 952 q 260 957 252 952 q 275 964 269 962 q 295 971 286 967 q 313 978 304 975 q 344 994 334 990 q 365 1002 354 997 q 409 1023 388 1013 q 453 1043 430 1034 q 469 1048 465 1043 q 494 1047 479 1044 q 515 1024 510 1032 q 526 1009 519 1016 q 537 998 534 998 q 533 989 537 994 q 529 979 529 983 z "}}}
